G04 #@! TF.GenerationSoftware,KiCad,Pcbnew,(6.0.0)*
G04 #@! TF.CreationDate,2022-01-30T14:59:02+09:00*
G04 #@! TF.ProjectId,exits,65786974-732e-46b6-9963-61645f706362,2.1*
G04 #@! TF.SameCoordinates,Original*
G04 #@! TF.FileFunction,Copper,L1,Top*
G04 #@! TF.FilePolarity,Positive*
%FSLAX46Y46*%
G04 Gerber Fmt 4.6, Leading zero omitted, Abs format (unit mm)*
G04 Created by KiCad (PCBNEW (6.0.0)) date 2022-01-30 14:59:03*
%MOMM*%
%LPD*%
G01*
G04 APERTURE LIST*
G04 #@! TA.AperFunction,ComponentPad*
%ADD10C,1.727200*%
G04 #@! TD*
G04 #@! TA.AperFunction,ComponentPad*
%ADD11O,2.720000X3.240000*%
G04 #@! TD*
G04 #@! TA.AperFunction,ComponentPad*
%ADD12R,1.800000X1.800000*%
G04 #@! TD*
G04 #@! TA.AperFunction,ComponentPad*
%ADD13C,1.800000*%
G04 #@! TD*
G04 #@! TA.AperFunction,ComponentPad*
%ADD14R,1.700000X1.700000*%
G04 #@! TD*
G04 #@! TA.AperFunction,ComponentPad*
%ADD15O,1.700000X1.700000*%
G04 #@! TD*
G04 #@! TA.AperFunction,ViaPad*
%ADD16C,0.762000*%
G04 #@! TD*
G04 APERTURE END LIST*
D10*
X156500000Y-65340000D03*
X156500000Y-67880000D03*
X156500000Y-75500000D03*
X156500000Y-52340000D03*
X156500000Y-54880000D03*
X156500000Y-62500000D03*
X151750000Y-52410000D03*
X151750000Y-49870000D03*
X151750000Y-42250000D03*
X147000000Y-52340000D03*
X147000000Y-54880000D03*
X147000000Y-62500000D03*
X147000000Y-65340000D03*
X147000000Y-67880000D03*
X147000000Y-75500000D03*
X147000000Y-78340000D03*
X147000000Y-80880000D03*
X147000000Y-88500000D03*
X156500000Y-78340000D03*
X156500000Y-80880000D03*
X156500000Y-88500000D03*
D11*
X156500000Y-100000000D03*
X147000000Y-100000000D03*
D12*
X149250000Y-107500000D03*
D13*
X151750000Y-107500000D03*
X154250000Y-107500000D03*
X149250000Y-110000000D03*
X151750000Y-110000000D03*
X154250000Y-110000000D03*
D14*
X158750000Y-42250000D03*
D15*
X158750000Y-44790000D03*
X158750000Y-47330000D03*
X158750000Y-49870000D03*
D14*
X158280000Y-113300000D03*
D15*
X155740000Y-113300000D03*
X153200000Y-113300000D03*
X150660000Y-113300000D03*
X148120000Y-113300000D03*
X145580000Y-113300000D03*
D16*
X152500000Y-71250000D03*
G04 #@! TA.AperFunction,Conductor*
G36*
X160688121Y-40274002D02*
G01*
X160734614Y-40327658D01*
X160746000Y-40380000D01*
X160746000Y-115120000D01*
X160725998Y-115188121D01*
X160672342Y-115234614D01*
X160620000Y-115246000D01*
X142880000Y-115246000D01*
X142811879Y-115225998D01*
X142765386Y-115172342D01*
X142754000Y-115120000D01*
X142754000Y-113270964D01*
X144471148Y-113270964D01*
X144484424Y-113473522D01*
X144485845Y-113479118D01*
X144485846Y-113479123D01*
X144506119Y-113558945D01*
X144534392Y-113670269D01*
X144536809Y-113675512D01*
X144574010Y-113756208D01*
X144619377Y-113854616D01*
X144736533Y-114020389D01*
X144881938Y-114162035D01*
X145050720Y-114274812D01*
X145056023Y-114277090D01*
X145056026Y-114277092D01*
X145187283Y-114333484D01*
X145237228Y-114354942D01*
X145310244Y-114371464D01*
X145429579Y-114398467D01*
X145429584Y-114398468D01*
X145435216Y-114399742D01*
X145440987Y-114399969D01*
X145440989Y-114399969D01*
X145500756Y-114402317D01*
X145638053Y-114407712D01*
X145745348Y-114392155D01*
X145833231Y-114379413D01*
X145833236Y-114379412D01*
X145838945Y-114378584D01*
X145844409Y-114376729D01*
X145844414Y-114376728D01*
X146025693Y-114315192D01*
X146025698Y-114315190D01*
X146031165Y-114313334D01*
X146208276Y-114214147D01*
X146247969Y-114181135D01*
X146359913Y-114088031D01*
X146364345Y-114084345D01*
X146494147Y-113928276D01*
X146593334Y-113751165D01*
X146595190Y-113745698D01*
X146595192Y-113745693D01*
X146656728Y-113564414D01*
X146656729Y-113564409D01*
X146658584Y-113558945D01*
X146659412Y-113553236D01*
X146659413Y-113553231D01*
X146687179Y-113361727D01*
X146687712Y-113358053D01*
X146689232Y-113300000D01*
X146686564Y-113270964D01*
X147011148Y-113270964D01*
X147024424Y-113473522D01*
X147025845Y-113479118D01*
X147025846Y-113479123D01*
X147046119Y-113558945D01*
X147074392Y-113670269D01*
X147076809Y-113675512D01*
X147114010Y-113756208D01*
X147159377Y-113854616D01*
X147276533Y-114020389D01*
X147421938Y-114162035D01*
X147590720Y-114274812D01*
X147596023Y-114277090D01*
X147596026Y-114277092D01*
X147727283Y-114333484D01*
X147777228Y-114354942D01*
X147850244Y-114371464D01*
X147969579Y-114398467D01*
X147969584Y-114398468D01*
X147975216Y-114399742D01*
X147980987Y-114399969D01*
X147980989Y-114399969D01*
X148040756Y-114402317D01*
X148178053Y-114407712D01*
X148285348Y-114392155D01*
X148373231Y-114379413D01*
X148373236Y-114379412D01*
X148378945Y-114378584D01*
X148384409Y-114376729D01*
X148384414Y-114376728D01*
X148565693Y-114315192D01*
X148565698Y-114315190D01*
X148571165Y-114313334D01*
X148748276Y-114214147D01*
X148787969Y-114181135D01*
X148899913Y-114088031D01*
X148904345Y-114084345D01*
X149034147Y-113928276D01*
X149133334Y-113751165D01*
X149135190Y-113745698D01*
X149135192Y-113745693D01*
X149196728Y-113564414D01*
X149196729Y-113564409D01*
X149198584Y-113558945D01*
X149199412Y-113553236D01*
X149199413Y-113553231D01*
X149227179Y-113361727D01*
X149227712Y-113358053D01*
X149229232Y-113300000D01*
X149226564Y-113270964D01*
X149551148Y-113270964D01*
X149564424Y-113473522D01*
X149565845Y-113479118D01*
X149565846Y-113479123D01*
X149586119Y-113558945D01*
X149614392Y-113670269D01*
X149616809Y-113675512D01*
X149654010Y-113756208D01*
X149699377Y-113854616D01*
X149816533Y-114020389D01*
X149961938Y-114162035D01*
X150130720Y-114274812D01*
X150136023Y-114277090D01*
X150136026Y-114277092D01*
X150267283Y-114333484D01*
X150317228Y-114354942D01*
X150390244Y-114371464D01*
X150509579Y-114398467D01*
X150509584Y-114398468D01*
X150515216Y-114399742D01*
X150520987Y-114399969D01*
X150520989Y-114399969D01*
X150580756Y-114402317D01*
X150718053Y-114407712D01*
X150825348Y-114392155D01*
X150913231Y-114379413D01*
X150913236Y-114379412D01*
X150918945Y-114378584D01*
X150924409Y-114376729D01*
X150924414Y-114376728D01*
X151105693Y-114315192D01*
X151105698Y-114315190D01*
X151111165Y-114313334D01*
X151288276Y-114214147D01*
X151327969Y-114181135D01*
X151439913Y-114088031D01*
X151444345Y-114084345D01*
X151574147Y-113928276D01*
X151673334Y-113751165D01*
X151675190Y-113745698D01*
X151675192Y-113745693D01*
X151736728Y-113564414D01*
X151736729Y-113564409D01*
X151738584Y-113558945D01*
X151739412Y-113553236D01*
X151739413Y-113553231D01*
X151767179Y-113361727D01*
X151767712Y-113358053D01*
X151769232Y-113300000D01*
X151766564Y-113270964D01*
X152091148Y-113270964D01*
X152104424Y-113473522D01*
X152105845Y-113479118D01*
X152105846Y-113479123D01*
X152126119Y-113558945D01*
X152154392Y-113670269D01*
X152156809Y-113675512D01*
X152194010Y-113756208D01*
X152239377Y-113854616D01*
X152356533Y-114020389D01*
X152501938Y-114162035D01*
X152670720Y-114274812D01*
X152676023Y-114277090D01*
X152676026Y-114277092D01*
X152807283Y-114333484D01*
X152857228Y-114354942D01*
X152930244Y-114371464D01*
X153049579Y-114398467D01*
X153049584Y-114398468D01*
X153055216Y-114399742D01*
X153060987Y-114399969D01*
X153060989Y-114399969D01*
X153120756Y-114402317D01*
X153258053Y-114407712D01*
X153365348Y-114392155D01*
X153453231Y-114379413D01*
X153453236Y-114379412D01*
X153458945Y-114378584D01*
X153464409Y-114376729D01*
X153464414Y-114376728D01*
X153645693Y-114315192D01*
X153645698Y-114315190D01*
X153651165Y-114313334D01*
X153828276Y-114214147D01*
X153867969Y-114181135D01*
X153979913Y-114088031D01*
X153984345Y-114084345D01*
X154114147Y-113928276D01*
X154213334Y-113751165D01*
X154215190Y-113745698D01*
X154215192Y-113745693D01*
X154276728Y-113564414D01*
X154276729Y-113564409D01*
X154278584Y-113558945D01*
X154279412Y-113553236D01*
X154279413Y-113553231D01*
X154307179Y-113361727D01*
X154307712Y-113358053D01*
X154309232Y-113300000D01*
X154306564Y-113270964D01*
X154631148Y-113270964D01*
X154644424Y-113473522D01*
X154645845Y-113479118D01*
X154645846Y-113479123D01*
X154666119Y-113558945D01*
X154694392Y-113670269D01*
X154696809Y-113675512D01*
X154734010Y-113756208D01*
X154779377Y-113854616D01*
X154896533Y-114020389D01*
X155041938Y-114162035D01*
X155210720Y-114274812D01*
X155216023Y-114277090D01*
X155216026Y-114277092D01*
X155347283Y-114333484D01*
X155397228Y-114354942D01*
X155470244Y-114371464D01*
X155589579Y-114398467D01*
X155589584Y-114398468D01*
X155595216Y-114399742D01*
X155600987Y-114399969D01*
X155600989Y-114399969D01*
X155660756Y-114402317D01*
X155798053Y-114407712D01*
X155905348Y-114392155D01*
X155993231Y-114379413D01*
X155993236Y-114379412D01*
X155998945Y-114378584D01*
X156004409Y-114376729D01*
X156004414Y-114376728D01*
X156185693Y-114315192D01*
X156185698Y-114315190D01*
X156191165Y-114313334D01*
X156368276Y-114214147D01*
X156407969Y-114181135D01*
X156519913Y-114088031D01*
X156524345Y-114084345D01*
X156654147Y-113928276D01*
X156753334Y-113751165D01*
X156755190Y-113745698D01*
X156755192Y-113745693D01*
X156816728Y-113564414D01*
X156816729Y-113564409D01*
X156818584Y-113558945D01*
X156819412Y-113553236D01*
X156819413Y-113553231D01*
X156847179Y-113361727D01*
X156847712Y-113358053D01*
X156849232Y-113300000D01*
X156830658Y-113097859D01*
X156829090Y-113092299D01*
X156777125Y-112908046D01*
X156777124Y-112908044D01*
X156775557Y-112902487D01*
X156764978Y-112881033D01*
X156688331Y-112725609D01*
X156685776Y-112720428D01*
X156564320Y-112557779D01*
X156420609Y-112424933D01*
X157175500Y-112424933D01*
X157175501Y-114175066D01*
X157190266Y-114249301D01*
X157197161Y-114259620D01*
X157197162Y-114259622D01*
X157237516Y-114320015D01*
X157246516Y-114333484D01*
X157330699Y-114389734D01*
X157404933Y-114404500D01*
X158279858Y-114404500D01*
X159155066Y-114404499D01*
X159190818Y-114397388D01*
X159217126Y-114392156D01*
X159217128Y-114392155D01*
X159229301Y-114389734D01*
X159239621Y-114382839D01*
X159239622Y-114382838D01*
X159303168Y-114340377D01*
X159313484Y-114333484D01*
X159369734Y-114249301D01*
X159384500Y-114175067D01*
X159384499Y-112424934D01*
X159369734Y-112350699D01*
X159343654Y-112311667D01*
X159320377Y-112276832D01*
X159313484Y-112266516D01*
X159229301Y-112210266D01*
X159155067Y-112195500D01*
X158280142Y-112195500D01*
X157404934Y-112195501D01*
X157369182Y-112202612D01*
X157342874Y-112207844D01*
X157342872Y-112207845D01*
X157330699Y-112210266D01*
X157320379Y-112217161D01*
X157320378Y-112217162D01*
X157259985Y-112257516D01*
X157246516Y-112266516D01*
X157190266Y-112350699D01*
X157175500Y-112424933D01*
X156420609Y-112424933D01*
X156415258Y-112419987D01*
X156410375Y-112416906D01*
X156410371Y-112416903D01*
X156248464Y-112314748D01*
X156243581Y-112311667D01*
X156055039Y-112236446D01*
X156049379Y-112235320D01*
X156049375Y-112235319D01*
X155861613Y-112197971D01*
X155861610Y-112197971D01*
X155855946Y-112196844D01*
X155850171Y-112196768D01*
X155850167Y-112196768D01*
X155748793Y-112195441D01*
X155652971Y-112194187D01*
X155647274Y-112195166D01*
X155647273Y-112195166D01*
X155559397Y-112210266D01*
X155452910Y-112228564D01*
X155262463Y-112298824D01*
X155088010Y-112402612D01*
X155083670Y-112406418D01*
X155083666Y-112406421D01*
X154939733Y-112532648D01*
X154935392Y-112536455D01*
X154809720Y-112695869D01*
X154807031Y-112700980D01*
X154807029Y-112700983D01*
X154794073Y-112725609D01*
X154715203Y-112875515D01*
X154655007Y-113069378D01*
X154631148Y-113270964D01*
X154306564Y-113270964D01*
X154290658Y-113097859D01*
X154289090Y-113092299D01*
X154237125Y-112908046D01*
X154237124Y-112908044D01*
X154235557Y-112902487D01*
X154224978Y-112881033D01*
X154148331Y-112725609D01*
X154145776Y-112720428D01*
X154024320Y-112557779D01*
X153875258Y-112419987D01*
X153870375Y-112416906D01*
X153870371Y-112416903D01*
X153708464Y-112314748D01*
X153703581Y-112311667D01*
X153515039Y-112236446D01*
X153509379Y-112235320D01*
X153509375Y-112235319D01*
X153321613Y-112197971D01*
X153321610Y-112197971D01*
X153315946Y-112196844D01*
X153310171Y-112196768D01*
X153310167Y-112196768D01*
X153208793Y-112195441D01*
X153112971Y-112194187D01*
X153107274Y-112195166D01*
X153107273Y-112195166D01*
X153019397Y-112210266D01*
X152912910Y-112228564D01*
X152722463Y-112298824D01*
X152548010Y-112402612D01*
X152543670Y-112406418D01*
X152543666Y-112406421D01*
X152399733Y-112532648D01*
X152395392Y-112536455D01*
X152269720Y-112695869D01*
X152267031Y-112700980D01*
X152267029Y-112700983D01*
X152254073Y-112725609D01*
X152175203Y-112875515D01*
X152115007Y-113069378D01*
X152091148Y-113270964D01*
X151766564Y-113270964D01*
X151750658Y-113097859D01*
X151749090Y-113092299D01*
X151697125Y-112908046D01*
X151697124Y-112908044D01*
X151695557Y-112902487D01*
X151684978Y-112881033D01*
X151608331Y-112725609D01*
X151605776Y-112720428D01*
X151484320Y-112557779D01*
X151335258Y-112419987D01*
X151330375Y-112416906D01*
X151330371Y-112416903D01*
X151168464Y-112314748D01*
X151163581Y-112311667D01*
X150975039Y-112236446D01*
X150969379Y-112235320D01*
X150969375Y-112235319D01*
X150781613Y-112197971D01*
X150781610Y-112197971D01*
X150775946Y-112196844D01*
X150770171Y-112196768D01*
X150770167Y-112196768D01*
X150668793Y-112195441D01*
X150572971Y-112194187D01*
X150567274Y-112195166D01*
X150567273Y-112195166D01*
X150479397Y-112210266D01*
X150372910Y-112228564D01*
X150182463Y-112298824D01*
X150008010Y-112402612D01*
X150003670Y-112406418D01*
X150003666Y-112406421D01*
X149859733Y-112532648D01*
X149855392Y-112536455D01*
X149729720Y-112695869D01*
X149727031Y-112700980D01*
X149727029Y-112700983D01*
X149714073Y-112725609D01*
X149635203Y-112875515D01*
X149575007Y-113069378D01*
X149551148Y-113270964D01*
X149226564Y-113270964D01*
X149210658Y-113097859D01*
X149209090Y-113092299D01*
X149157125Y-112908046D01*
X149157124Y-112908044D01*
X149155557Y-112902487D01*
X149144978Y-112881033D01*
X149068331Y-112725609D01*
X149065776Y-112720428D01*
X148944320Y-112557779D01*
X148795258Y-112419987D01*
X148790375Y-112416906D01*
X148790371Y-112416903D01*
X148628464Y-112314748D01*
X148623581Y-112311667D01*
X148435039Y-112236446D01*
X148429379Y-112235320D01*
X148429375Y-112235319D01*
X148241613Y-112197971D01*
X148241610Y-112197971D01*
X148235946Y-112196844D01*
X148230171Y-112196768D01*
X148230167Y-112196768D01*
X148128793Y-112195441D01*
X148032971Y-112194187D01*
X148027274Y-112195166D01*
X148027273Y-112195166D01*
X147939397Y-112210266D01*
X147832910Y-112228564D01*
X147642463Y-112298824D01*
X147468010Y-112402612D01*
X147463670Y-112406418D01*
X147463666Y-112406421D01*
X147319733Y-112532648D01*
X147315392Y-112536455D01*
X147189720Y-112695869D01*
X147187031Y-112700980D01*
X147187029Y-112700983D01*
X147174073Y-112725609D01*
X147095203Y-112875515D01*
X147035007Y-113069378D01*
X147011148Y-113270964D01*
X146686564Y-113270964D01*
X146670658Y-113097859D01*
X146669090Y-113092299D01*
X146617125Y-112908046D01*
X146617124Y-112908044D01*
X146615557Y-112902487D01*
X146604978Y-112881033D01*
X146528331Y-112725609D01*
X146525776Y-112720428D01*
X146404320Y-112557779D01*
X146255258Y-112419987D01*
X146250375Y-112416906D01*
X146250371Y-112416903D01*
X146088464Y-112314748D01*
X146083581Y-112311667D01*
X145895039Y-112236446D01*
X145889379Y-112235320D01*
X145889375Y-112235319D01*
X145701613Y-112197971D01*
X145701610Y-112197971D01*
X145695946Y-112196844D01*
X145690171Y-112196768D01*
X145690167Y-112196768D01*
X145588793Y-112195441D01*
X145492971Y-112194187D01*
X145487274Y-112195166D01*
X145487273Y-112195166D01*
X145399397Y-112210266D01*
X145292910Y-112228564D01*
X145102463Y-112298824D01*
X144928010Y-112402612D01*
X144923670Y-112406418D01*
X144923666Y-112406421D01*
X144779733Y-112532648D01*
X144775392Y-112536455D01*
X144649720Y-112695869D01*
X144647031Y-112700980D01*
X144647029Y-112700983D01*
X144634073Y-112725609D01*
X144555203Y-112875515D01*
X144495007Y-113069378D01*
X144471148Y-113270964D01*
X142754000Y-113270964D01*
X142754000Y-111161406D01*
X148453423Y-111161406D01*
X148458704Y-111168461D01*
X148635080Y-111271527D01*
X148644363Y-111275974D01*
X148851003Y-111354883D01*
X148860901Y-111357759D01*
X149077653Y-111401857D01*
X149087883Y-111403076D01*
X149308914Y-111411182D01*
X149319223Y-111410714D01*
X149538623Y-111382608D01*
X149548688Y-111380468D01*
X149760557Y-111316905D01*
X149770152Y-111313144D01*
X149968778Y-111215838D01*
X149977636Y-111210559D01*
X150035097Y-111169572D01*
X150043497Y-111158874D01*
X150036510Y-111145721D01*
X149262811Y-110372021D01*
X149248868Y-110364408D01*
X149247034Y-110364539D01*
X149240420Y-110368790D01*
X148460180Y-111149031D01*
X148453423Y-111161406D01*
X142754000Y-111161406D01*
X142754000Y-109970638D01*
X147837893Y-109970638D01*
X147850627Y-110191468D01*
X147852061Y-110201670D01*
X147900685Y-110417439D01*
X147903773Y-110427292D01*
X147986986Y-110632220D01*
X147991634Y-110641421D01*
X148080097Y-110785781D01*
X148090553Y-110795242D01*
X148099331Y-110791458D01*
X148877979Y-110012811D01*
X148885592Y-109998868D01*
X148885461Y-109997034D01*
X148881210Y-109990420D01*
X148103862Y-109213073D01*
X148092330Y-109206776D01*
X148080048Y-109216399D01*
X148024467Y-109297877D01*
X148019379Y-109306833D01*
X147926252Y-109507459D01*
X147922689Y-109517146D01*
X147863581Y-109730280D01*
X147861650Y-109740400D01*
X147838145Y-109960349D01*
X147837893Y-109970638D01*
X142754000Y-109970638D01*
X142754000Y-108444669D01*
X147842001Y-108444669D01*
X147842371Y-108451490D01*
X147847895Y-108502352D01*
X147851521Y-108517604D01*
X147896676Y-108638054D01*
X147905214Y-108653649D01*
X147981715Y-108755724D01*
X147994276Y-108768285D01*
X148096351Y-108844786D01*
X148111946Y-108853324D01*
X148232394Y-108898478D01*
X148247650Y-108902105D01*
X148276961Y-108905290D01*
X148300835Y-108901010D01*
X148302170Y-108900048D01*
X148316622Y-108885597D01*
X148378935Y-108851574D01*
X148449750Y-108856640D01*
X148494811Y-108885600D01*
X149237189Y-109627979D01*
X149251132Y-109635592D01*
X149252966Y-109635461D01*
X149259580Y-109631210D01*
X150005189Y-108885600D01*
X150067502Y-108851575D01*
X150138317Y-108856639D01*
X150183378Y-108885597D01*
X150192218Y-108894437D01*
X150213503Y-108906059D01*
X150215145Y-108906146D01*
X150252352Y-108902105D01*
X150267604Y-108898479D01*
X150388054Y-108853324D01*
X150403649Y-108844786D01*
X150505724Y-108768285D01*
X150518285Y-108755724D01*
X150594786Y-108653649D01*
X150603324Y-108638054D01*
X150648478Y-108517606D01*
X150652105Y-108502351D01*
X150657631Y-108451486D01*
X150658000Y-108444672D01*
X150658000Y-108346734D01*
X150678002Y-108278613D01*
X150731658Y-108232120D01*
X150801932Y-108222016D01*
X150866512Y-108251510D01*
X150871921Y-108256480D01*
X151016197Y-108397027D01*
X151016203Y-108397032D01*
X151020337Y-108401059D01*
X151025133Y-108404264D01*
X151025136Y-108404266D01*
X151167186Y-108499180D01*
X151196760Y-108518941D01*
X151202063Y-108521219D01*
X151202066Y-108521221D01*
X151283908Y-108556383D01*
X151391711Y-108602699D01*
X151452928Y-108616551D01*
X151495707Y-108626231D01*
X151557734Y-108660774D01*
X151591238Y-108723367D01*
X151585584Y-108794138D01*
X151542565Y-108850618D01*
X151489237Y-108873304D01*
X151449913Y-108880061D01*
X151250846Y-108953501D01*
X151245885Y-108956453D01*
X151245884Y-108956453D01*
X151073463Y-109059032D01*
X151073460Y-109059034D01*
X151068495Y-109061988D01*
X151064155Y-109065794D01*
X151064151Y-109065797D01*
X150913309Y-109198083D01*
X150908968Y-109201890D01*
X150905393Y-109206425D01*
X150905392Y-109206426D01*
X150809535Y-109328020D01*
X150777607Y-109368520D01*
X150774922Y-109373623D01*
X150774919Y-109373628D01*
X150753865Y-109413647D01*
X150704446Y-109464620D01*
X150635314Y-109480783D01*
X150568417Y-109457005D01*
X150526807Y-109405223D01*
X150497193Y-109337118D01*
X150492315Y-109328020D01*
X150419224Y-109215038D01*
X150408538Y-109205835D01*
X150398973Y-109210238D01*
X149622021Y-109987189D01*
X149614408Y-110001132D01*
X149614539Y-110002966D01*
X149618790Y-110009580D01*
X150396307Y-110787096D01*
X150408313Y-110793652D01*
X150420052Y-110784684D01*
X150458010Y-110731859D01*
X150463321Y-110723020D01*
X150527750Y-110592657D01*
X150575864Y-110540450D01*
X150644565Y-110522543D01*
X150712041Y-110544621D01*
X150745050Y-110580317D01*
X150745890Y-110579723D01*
X150868350Y-110753000D01*
X151020337Y-110901059D01*
X151025133Y-110904264D01*
X151025136Y-110904266D01*
X151167186Y-110999180D01*
X151196760Y-111018941D01*
X151202063Y-111021219D01*
X151202066Y-111021221D01*
X151283908Y-111056383D01*
X151391711Y-111102699D01*
X151467750Y-111119905D01*
X151593025Y-111148252D01*
X151593030Y-111148253D01*
X151598662Y-111149527D01*
X151604433Y-111149754D01*
X151604435Y-111149754D01*
X151669911Y-111152326D01*
X151810681Y-111157857D01*
X151915674Y-111142634D01*
X152014953Y-111128239D01*
X152014958Y-111128238D01*
X152020667Y-111127410D01*
X152026131Y-111125555D01*
X152026136Y-111125554D01*
X152119240Y-111093949D01*
X152221589Y-111059207D01*
X152299221Y-111015731D01*
X152401670Y-110958357D01*
X152401674Y-110958354D01*
X152406717Y-110955530D01*
X152569852Y-110819852D01*
X152705530Y-110656717D01*
X152708354Y-110651674D01*
X152708357Y-110651670D01*
X152806383Y-110476632D01*
X152806384Y-110476630D01*
X152809207Y-110471589D01*
X152877410Y-110270667D01*
X152878239Y-110264951D01*
X152879584Y-110259348D01*
X152914936Y-110197780D01*
X152977963Y-110165098D01*
X153048654Y-110171679D01*
X153104565Y-110215434D01*
X153124225Y-110257748D01*
X153157058Y-110387031D01*
X153245890Y-110579723D01*
X153368350Y-110753000D01*
X153520337Y-110901059D01*
X153525133Y-110904264D01*
X153525136Y-110904266D01*
X153667186Y-110999180D01*
X153696760Y-111018941D01*
X153702063Y-111021219D01*
X153702066Y-111021221D01*
X153783908Y-111056383D01*
X153891711Y-111102699D01*
X153967750Y-111119905D01*
X154093025Y-111148252D01*
X154093030Y-111148253D01*
X154098662Y-111149527D01*
X154104433Y-111149754D01*
X154104435Y-111149754D01*
X154169911Y-111152326D01*
X154310681Y-111157857D01*
X154415674Y-111142634D01*
X154514953Y-111128239D01*
X154514958Y-111128238D01*
X154520667Y-111127410D01*
X154526131Y-111125555D01*
X154526136Y-111125554D01*
X154619240Y-111093949D01*
X154721589Y-111059207D01*
X154799221Y-111015731D01*
X154901670Y-110958357D01*
X154901674Y-110958354D01*
X154906717Y-110955530D01*
X155069852Y-110819852D01*
X155205530Y-110656717D01*
X155208354Y-110651674D01*
X155208357Y-110651670D01*
X155306383Y-110476632D01*
X155306384Y-110476630D01*
X155309207Y-110471589D01*
X155377410Y-110270667D01*
X155379052Y-110259348D01*
X155407324Y-110064355D01*
X155407857Y-110060681D01*
X155409446Y-110000000D01*
X155397446Y-109869402D01*
X155390560Y-109794462D01*
X155390559Y-109794459D01*
X155390031Y-109788708D01*
X155334005Y-109590053D01*
X155334003Y-109590049D01*
X155332436Y-109584492D01*
X155281293Y-109480783D01*
X155241145Y-109399372D01*
X155238590Y-109394191D01*
X155111636Y-109224179D01*
X155103220Y-109216399D01*
X154960066Y-109084069D01*
X154960063Y-109084067D01*
X154955826Y-109080150D01*
X154776377Y-108966926D01*
X154579300Y-108888300D01*
X154573637Y-108887174D01*
X154573635Y-108887173D01*
X154532957Y-108879082D01*
X154514942Y-108875499D01*
X154452033Y-108842592D01*
X154416900Y-108780898D01*
X154420700Y-108710003D01*
X154462225Y-108652416D01*
X154510106Y-108629402D01*
X154514949Y-108628239D01*
X154520667Y-108627410D01*
X154721589Y-108559207D01*
X154795873Y-108517606D01*
X154901670Y-108458357D01*
X154901674Y-108458354D01*
X154906717Y-108455530D01*
X155069852Y-108319852D01*
X155205530Y-108156717D01*
X155208354Y-108151674D01*
X155208357Y-108151670D01*
X155306383Y-107976632D01*
X155306384Y-107976630D01*
X155309207Y-107971589D01*
X155377410Y-107770667D01*
X155378977Y-107759865D01*
X155407324Y-107564355D01*
X155407857Y-107560681D01*
X155409446Y-107500000D01*
X155397446Y-107369402D01*
X155390560Y-107294462D01*
X155390559Y-107294459D01*
X155390031Y-107288708D01*
X155334005Y-107090053D01*
X155334003Y-107090049D01*
X155332436Y-107084492D01*
X155238590Y-106894191D01*
X155126236Y-106743730D01*
X155115089Y-106728803D01*
X155115088Y-106728802D01*
X155111636Y-106724179D01*
X155087524Y-106701890D01*
X154960066Y-106584069D01*
X154960063Y-106584067D01*
X154955826Y-106580150D01*
X154776377Y-106466926D01*
X154579300Y-106388300D01*
X154573643Y-106387175D01*
X154573637Y-106387173D01*
X154376863Y-106348033D01*
X154376859Y-106348033D01*
X154371195Y-106346906D01*
X154365420Y-106346830D01*
X154365416Y-106346830D01*
X154258804Y-106345434D01*
X154159031Y-106344128D01*
X154153334Y-106345107D01*
X154153333Y-106345107D01*
X154136305Y-106348033D01*
X153949913Y-106380061D01*
X153750846Y-106453501D01*
X153745885Y-106456453D01*
X153745884Y-106456453D01*
X153573463Y-106559032D01*
X153573460Y-106559034D01*
X153568495Y-106561988D01*
X153564155Y-106565794D01*
X153564151Y-106565797D01*
X153433258Y-106680588D01*
X153408968Y-106701890D01*
X153277607Y-106868520D01*
X153178812Y-107056299D01*
X153177100Y-107061813D01*
X153119273Y-107248046D01*
X153079970Y-107307171D01*
X153014940Y-107335662D01*
X152944831Y-107324472D01*
X152891901Y-107277155D01*
X152877671Y-107244883D01*
X152834005Y-107090053D01*
X152834003Y-107090047D01*
X152832436Y-107084492D01*
X152738590Y-106894191D01*
X152626236Y-106743730D01*
X152615089Y-106728803D01*
X152615088Y-106728802D01*
X152611636Y-106724179D01*
X152587524Y-106701890D01*
X152460066Y-106584069D01*
X152460063Y-106584067D01*
X152455826Y-106580150D01*
X152276377Y-106466926D01*
X152079300Y-106388300D01*
X152073643Y-106387175D01*
X152073637Y-106387173D01*
X151876863Y-106348033D01*
X151876859Y-106348033D01*
X151871195Y-106346906D01*
X151865420Y-106346830D01*
X151865416Y-106346830D01*
X151758804Y-106345434D01*
X151659031Y-106344128D01*
X151653334Y-106345107D01*
X151653333Y-106345107D01*
X151636305Y-106348033D01*
X151449913Y-106380061D01*
X151250846Y-106453501D01*
X151245885Y-106456453D01*
X151245884Y-106456453D01*
X151073463Y-106559032D01*
X151073460Y-106559034D01*
X151068495Y-106561988D01*
X151064155Y-106565794D01*
X151064151Y-106565797D01*
X150933258Y-106680588D01*
X150908968Y-106701890D01*
X150887752Y-106728803D01*
X150882949Y-106734895D01*
X150825068Y-106776008D01*
X150754148Y-106779302D01*
X150692705Y-106743730D01*
X150660248Y-106680588D01*
X150657999Y-106656889D01*
X150657999Y-106555331D01*
X150657629Y-106548510D01*
X150652105Y-106497648D01*
X150648479Y-106482396D01*
X150603324Y-106361946D01*
X150594786Y-106346351D01*
X150518285Y-106244276D01*
X150505724Y-106231715D01*
X150403649Y-106155214D01*
X150388054Y-106146676D01*
X150267606Y-106101522D01*
X150252351Y-106097895D01*
X150201486Y-106092369D01*
X150194672Y-106092000D01*
X149522115Y-106092000D01*
X149506876Y-106096475D01*
X149505671Y-106097865D01*
X149504000Y-106105548D01*
X149504000Y-107628000D01*
X149483998Y-107696121D01*
X149430342Y-107742614D01*
X149378000Y-107754000D01*
X147860116Y-107754000D01*
X147844877Y-107758475D01*
X147843672Y-107759865D01*
X147842001Y-107767548D01*
X147842001Y-108444669D01*
X142754000Y-108444669D01*
X142754000Y-107227885D01*
X147842000Y-107227885D01*
X147846475Y-107243124D01*
X147847865Y-107244329D01*
X147855548Y-107246000D01*
X148977885Y-107246000D01*
X148993124Y-107241525D01*
X148994329Y-107240135D01*
X148996000Y-107232452D01*
X148996000Y-106110116D01*
X148991525Y-106094877D01*
X148990135Y-106093672D01*
X148982452Y-106092001D01*
X148305331Y-106092001D01*
X148298510Y-106092371D01*
X148247648Y-106097895D01*
X148232396Y-106101521D01*
X148111946Y-106146676D01*
X148096351Y-106155214D01*
X147994276Y-106231715D01*
X147981715Y-106244276D01*
X147905214Y-106346351D01*
X147896676Y-106361946D01*
X147851522Y-106482394D01*
X147847895Y-106497649D01*
X147842369Y-106548514D01*
X147842000Y-106555328D01*
X147842000Y-107227885D01*
X142754000Y-107227885D01*
X142754000Y-100323428D01*
X145385500Y-100323428D01*
X145400447Y-100513344D01*
X145459772Y-100760451D01*
X145557022Y-100995234D01*
X145689803Y-101211914D01*
X145854846Y-101405154D01*
X146048086Y-101570197D01*
X146264766Y-101702978D01*
X146269336Y-101704871D01*
X146269340Y-101704873D01*
X146494976Y-101798334D01*
X146499549Y-101800228D01*
X146585220Y-101820796D01*
X146741843Y-101858398D01*
X146741849Y-101858399D01*
X146746656Y-101859553D01*
X147000000Y-101879492D01*
X147253344Y-101859553D01*
X147258151Y-101858399D01*
X147258157Y-101858398D01*
X147414780Y-101820796D01*
X147500451Y-101800228D01*
X147505024Y-101798334D01*
X147730660Y-101704873D01*
X147730664Y-101704871D01*
X147735234Y-101702978D01*
X147951914Y-101570197D01*
X148145154Y-101405154D01*
X148310197Y-101211914D01*
X148442978Y-100995234D01*
X148540228Y-100760451D01*
X148599553Y-100513344D01*
X148614500Y-100323428D01*
X154885500Y-100323428D01*
X154900447Y-100513344D01*
X154959772Y-100760451D01*
X155057022Y-100995234D01*
X155189803Y-101211914D01*
X155354846Y-101405154D01*
X155548086Y-101570197D01*
X155764766Y-101702978D01*
X155769336Y-101704871D01*
X155769340Y-101704873D01*
X155994976Y-101798334D01*
X155999549Y-101800228D01*
X156085220Y-101820796D01*
X156241843Y-101858398D01*
X156241849Y-101858399D01*
X156246656Y-101859553D01*
X156500000Y-101879492D01*
X156753344Y-101859553D01*
X156758151Y-101858399D01*
X156758157Y-101858398D01*
X156914780Y-101820796D01*
X157000451Y-101800228D01*
X157005024Y-101798334D01*
X157230660Y-101704873D01*
X157230664Y-101704871D01*
X157235234Y-101702978D01*
X157451914Y-101570197D01*
X157645154Y-101405154D01*
X157810197Y-101211914D01*
X157942978Y-100995234D01*
X158040228Y-100760451D01*
X158099553Y-100513344D01*
X158114500Y-100323428D01*
X158114500Y-99676572D01*
X158099553Y-99486656D01*
X158040228Y-99239549D01*
X157942978Y-99004766D01*
X157810197Y-98788086D01*
X157645154Y-98594846D01*
X157451914Y-98429803D01*
X157235234Y-98297022D01*
X157230664Y-98295129D01*
X157230660Y-98295127D01*
X157005024Y-98201666D01*
X157005022Y-98201665D01*
X157000451Y-98199772D01*
X156914780Y-98179204D01*
X156758157Y-98141602D01*
X156758151Y-98141601D01*
X156753344Y-98140447D01*
X156500000Y-98120508D01*
X156246656Y-98140447D01*
X156241849Y-98141601D01*
X156241843Y-98141602D01*
X156085220Y-98179204D01*
X155999549Y-98199772D01*
X155994978Y-98201665D01*
X155994976Y-98201666D01*
X155769340Y-98295127D01*
X155769336Y-98295129D01*
X155764766Y-98297022D01*
X155548086Y-98429803D01*
X155354846Y-98594846D01*
X155189803Y-98788086D01*
X155057022Y-99004766D01*
X154959772Y-99239549D01*
X154900447Y-99486656D01*
X154885500Y-99676572D01*
X154885500Y-100323428D01*
X148614500Y-100323428D01*
X148614500Y-99676572D01*
X148599553Y-99486656D01*
X148540228Y-99239549D01*
X148442978Y-99004766D01*
X148310197Y-98788086D01*
X148145154Y-98594846D01*
X147951914Y-98429803D01*
X147735234Y-98297022D01*
X147730664Y-98295129D01*
X147730660Y-98295127D01*
X147505024Y-98201666D01*
X147505022Y-98201665D01*
X147500451Y-98199772D01*
X147414780Y-98179204D01*
X147258157Y-98141602D01*
X147258151Y-98141601D01*
X147253344Y-98140447D01*
X147000000Y-98120508D01*
X146746656Y-98140447D01*
X146741849Y-98141601D01*
X146741843Y-98141602D01*
X146585220Y-98179204D01*
X146499549Y-98199772D01*
X146494978Y-98201665D01*
X146494976Y-98201666D01*
X146269340Y-98295127D01*
X146269336Y-98295129D01*
X146264766Y-98297022D01*
X146048086Y-98429803D01*
X145854846Y-98594846D01*
X145689803Y-98788086D01*
X145557022Y-99004766D01*
X145459772Y-99239549D01*
X145400447Y-99486656D01*
X145385500Y-99676572D01*
X145385500Y-100323428D01*
X142754000Y-100323428D01*
X142754000Y-88470606D01*
X145877495Y-88470606D01*
X145890935Y-88675659D01*
X145941517Y-88874828D01*
X146027549Y-89061445D01*
X146146148Y-89229259D01*
X146293342Y-89372649D01*
X146298138Y-89375854D01*
X146298141Y-89375856D01*
X146376523Y-89428229D01*
X146464203Y-89486815D01*
X146469506Y-89489093D01*
X146469509Y-89489095D01*
X146559293Y-89527669D01*
X146653008Y-89567932D01*
X146853433Y-89613284D01*
X146859202Y-89613511D01*
X146859205Y-89613511D01*
X146936697Y-89616555D01*
X147058768Y-89621351D01*
X147160451Y-89606607D01*
X147256419Y-89592693D01*
X147256424Y-89592692D01*
X147262133Y-89591864D01*
X147267597Y-89590009D01*
X147267602Y-89590008D01*
X147451249Y-89527669D01*
X147451254Y-89527667D01*
X147456721Y-89525811D01*
X147636012Y-89425403D01*
X147794003Y-89294003D01*
X147925403Y-89136012D01*
X148025811Y-88956721D01*
X148027667Y-88951254D01*
X148027669Y-88951249D01*
X148090008Y-88767602D01*
X148090009Y-88767597D01*
X148091864Y-88762133D01*
X148104403Y-88675659D01*
X148120818Y-88562442D01*
X148121351Y-88558768D01*
X148122890Y-88500000D01*
X148120189Y-88470606D01*
X155377495Y-88470606D01*
X155390935Y-88675659D01*
X155441517Y-88874828D01*
X155527549Y-89061445D01*
X155646148Y-89229259D01*
X155793342Y-89372649D01*
X155798138Y-89375854D01*
X155798141Y-89375856D01*
X155876523Y-89428229D01*
X155964203Y-89486815D01*
X155969506Y-89489093D01*
X155969509Y-89489095D01*
X156059293Y-89527669D01*
X156153008Y-89567932D01*
X156353433Y-89613284D01*
X156359202Y-89613511D01*
X156359205Y-89613511D01*
X156436697Y-89616555D01*
X156558768Y-89621351D01*
X156660451Y-89606607D01*
X156756419Y-89592693D01*
X156756424Y-89592692D01*
X156762133Y-89591864D01*
X156767597Y-89590009D01*
X156767602Y-89590008D01*
X156951249Y-89527669D01*
X156951254Y-89527667D01*
X156956721Y-89525811D01*
X157136012Y-89425403D01*
X157294003Y-89294003D01*
X157425403Y-89136012D01*
X157525811Y-88956721D01*
X157527667Y-88951254D01*
X157527669Y-88951249D01*
X157590008Y-88767602D01*
X157590009Y-88767597D01*
X157591864Y-88762133D01*
X157604403Y-88675659D01*
X157620818Y-88562442D01*
X157621351Y-88558768D01*
X157622890Y-88500000D01*
X157604087Y-88295370D01*
X157594400Y-88261021D01*
X157549878Y-88103157D01*
X157549876Y-88103152D01*
X157548308Y-88097592D01*
X157457421Y-87913292D01*
X157334470Y-87748640D01*
X157183572Y-87609151D01*
X157138348Y-87580617D01*
X157014665Y-87502579D01*
X157014660Y-87502577D01*
X157009781Y-87499498D01*
X156818918Y-87423351D01*
X156617374Y-87383261D01*
X156611599Y-87383185D01*
X156611595Y-87383185D01*
X156510796Y-87381866D01*
X156411899Y-87380571D01*
X156209375Y-87415372D01*
X156203958Y-87417370D01*
X156203952Y-87417372D01*
X156057800Y-87471290D01*
X156016583Y-87486496D01*
X155998326Y-87497358D01*
X155844950Y-87588607D01*
X155844947Y-87588609D01*
X155839982Y-87591563D01*
X155685484Y-87727054D01*
X155558265Y-87888430D01*
X155462585Y-88070289D01*
X155401648Y-88266538D01*
X155377495Y-88470606D01*
X148120189Y-88470606D01*
X148104087Y-88295370D01*
X148094400Y-88261021D01*
X148049878Y-88103157D01*
X148049876Y-88103152D01*
X148048308Y-88097592D01*
X147957421Y-87913292D01*
X147834470Y-87748640D01*
X147683572Y-87609151D01*
X147638348Y-87580617D01*
X147514665Y-87502579D01*
X147514660Y-87502577D01*
X147509781Y-87499498D01*
X147318918Y-87423351D01*
X147117374Y-87383261D01*
X147111599Y-87383185D01*
X147111595Y-87383185D01*
X147010796Y-87381866D01*
X146911899Y-87380571D01*
X146709375Y-87415372D01*
X146703958Y-87417370D01*
X146703952Y-87417372D01*
X146557800Y-87471290D01*
X146516583Y-87486496D01*
X146498326Y-87497358D01*
X146344950Y-87588607D01*
X146344947Y-87588609D01*
X146339982Y-87591563D01*
X146185484Y-87727054D01*
X146058265Y-87888430D01*
X145962585Y-88070289D01*
X145901648Y-88266538D01*
X145877495Y-88470606D01*
X142754000Y-88470606D01*
X142754000Y-84162410D01*
X145243862Y-84162410D01*
X145279028Y-84420804D01*
X145352000Y-84671162D01*
X145461177Y-84907984D01*
X145463737Y-84911889D01*
X145463740Y-84911894D01*
X145601592Y-85122154D01*
X145601596Y-85122159D01*
X145604158Y-85126067D01*
X145777804Y-85320621D01*
X145978300Y-85487371D01*
X146201240Y-85622655D01*
X146205548Y-85624462D01*
X146205549Y-85624462D01*
X146437413Y-85721691D01*
X146437418Y-85721693D01*
X146441728Y-85723500D01*
X146446260Y-85724651D01*
X146446263Y-85724652D01*
X146571765Y-85756525D01*
X146694480Y-85787690D01*
X146911072Y-85809500D01*
X147066206Y-85809500D01*
X147068531Y-85809327D01*
X147068537Y-85809327D01*
X147255407Y-85795440D01*
X147255411Y-85795439D01*
X147260059Y-85795094D01*
X147514405Y-85737542D01*
X147757450Y-85643027D01*
X147761504Y-85640710D01*
X147761508Y-85640708D01*
X147852295Y-85588818D01*
X147983855Y-85513625D01*
X148188647Y-85352180D01*
X148367326Y-85162239D01*
X148515968Y-84947973D01*
X148533760Y-84911894D01*
X148629241Y-84718278D01*
X148629242Y-84718275D01*
X148631306Y-84714090D01*
X148646488Y-84666663D01*
X148709382Y-84470179D01*
X148710807Y-84465728D01*
X148717393Y-84425292D01*
X148751974Y-84212955D01*
X148752725Y-84208344D01*
X148753326Y-84162410D01*
X154743862Y-84162410D01*
X154779028Y-84420804D01*
X154852000Y-84671162D01*
X154961177Y-84907984D01*
X154963737Y-84911889D01*
X154963740Y-84911894D01*
X155101592Y-85122154D01*
X155101596Y-85122159D01*
X155104158Y-85126067D01*
X155277804Y-85320621D01*
X155478300Y-85487371D01*
X155701240Y-85622655D01*
X155705548Y-85624462D01*
X155705549Y-85624462D01*
X155937413Y-85721691D01*
X155937418Y-85721693D01*
X155941728Y-85723500D01*
X155946260Y-85724651D01*
X155946263Y-85724652D01*
X156071765Y-85756525D01*
X156194480Y-85787690D01*
X156411072Y-85809500D01*
X156566206Y-85809500D01*
X156568531Y-85809327D01*
X156568537Y-85809327D01*
X156755407Y-85795440D01*
X156755411Y-85795439D01*
X156760059Y-85795094D01*
X157014405Y-85737542D01*
X157257450Y-85643027D01*
X157261504Y-85640710D01*
X157261508Y-85640708D01*
X157352295Y-85588818D01*
X157483855Y-85513625D01*
X157688647Y-85352180D01*
X157867326Y-85162239D01*
X158015968Y-84947973D01*
X158033760Y-84911894D01*
X158129241Y-84718278D01*
X158129242Y-84718275D01*
X158131306Y-84714090D01*
X158146488Y-84666663D01*
X158209382Y-84470179D01*
X158210807Y-84465728D01*
X158217393Y-84425292D01*
X158251974Y-84212955D01*
X158252725Y-84208344D01*
X158256138Y-83947590D01*
X158220972Y-83689196D01*
X158148000Y-83438838D01*
X158038823Y-83202016D01*
X158036260Y-83198106D01*
X157898408Y-82987846D01*
X157898404Y-82987841D01*
X157895842Y-82983933D01*
X157722196Y-82789379D01*
X157521700Y-82622629D01*
X157298760Y-82487345D01*
X157294451Y-82485538D01*
X157062587Y-82388309D01*
X157062582Y-82388307D01*
X157058272Y-82386500D01*
X157051105Y-82384680D01*
X157050279Y-82384191D01*
X157049307Y-82383866D01*
X157049377Y-82383657D01*
X156990004Y-82348525D01*
X156958149Y-82285075D01*
X156965655Y-82214476D01*
X157010138Y-82159143D01*
X157026689Y-82149406D01*
X157200074Y-82064466D01*
X157208940Y-82059181D01*
X157258998Y-82023474D01*
X157267399Y-82012774D01*
X157260411Y-81999621D01*
X156512812Y-81252022D01*
X156498868Y-81244408D01*
X156497035Y-81244539D01*
X156490420Y-81248790D01*
X155736794Y-82002416D01*
X155730034Y-82014796D01*
X155735315Y-82021850D01*
X155900859Y-82118586D01*
X155910146Y-82123036D01*
X155966378Y-82144509D01*
X156022881Y-82187497D01*
X156047174Y-82254208D01*
X156031544Y-82323463D01*
X155980952Y-82373273D01*
X155967098Y-82379651D01*
X155955424Y-82384191D01*
X155746908Y-82465278D01*
X155746905Y-82465279D01*
X155742550Y-82466973D01*
X155738496Y-82469290D01*
X155738492Y-82469292D01*
X155702669Y-82489767D01*
X155516145Y-82596375D01*
X155311353Y-82757820D01*
X155132674Y-82947761D01*
X154984032Y-83162027D01*
X154981966Y-83166217D01*
X154981964Y-83166220D01*
X154964312Y-83202016D01*
X154868694Y-83395910D01*
X154867272Y-83400353D01*
X154867271Y-83400355D01*
X154836977Y-83494993D01*
X154789193Y-83644272D01*
X154788443Y-83648879D01*
X154788442Y-83648882D01*
X154781122Y-83693827D01*
X154747275Y-83901656D01*
X154743862Y-84162410D01*
X148753326Y-84162410D01*
X148756138Y-83947590D01*
X148720972Y-83689196D01*
X148648000Y-83438838D01*
X148538823Y-83202016D01*
X148536260Y-83198106D01*
X148398408Y-82987846D01*
X148398404Y-82987841D01*
X148395842Y-82983933D01*
X148222196Y-82789379D01*
X148021700Y-82622629D01*
X147798760Y-82487345D01*
X147794451Y-82485538D01*
X147562587Y-82388309D01*
X147562582Y-82388307D01*
X147558272Y-82386500D01*
X147551105Y-82384680D01*
X147550279Y-82384191D01*
X147549307Y-82383866D01*
X147549377Y-82383657D01*
X147490004Y-82348525D01*
X147458149Y-82285075D01*
X147465655Y-82214476D01*
X147510138Y-82159143D01*
X147526689Y-82149406D01*
X147700074Y-82064466D01*
X147708940Y-82059181D01*
X147758998Y-82023474D01*
X147767399Y-82012774D01*
X147760411Y-81999621D01*
X147012812Y-81252022D01*
X146998868Y-81244408D01*
X146997035Y-81244539D01*
X146990420Y-81248790D01*
X146236794Y-82002416D01*
X146230034Y-82014796D01*
X146235315Y-82021850D01*
X146400859Y-82118586D01*
X146410146Y-82123036D01*
X146466378Y-82144509D01*
X146522881Y-82187497D01*
X146547174Y-82254208D01*
X146531544Y-82323463D01*
X146480952Y-82373273D01*
X146467098Y-82379651D01*
X146455424Y-82384191D01*
X146246908Y-82465278D01*
X146246905Y-82465279D01*
X146242550Y-82466973D01*
X146238496Y-82469290D01*
X146238492Y-82469292D01*
X146202669Y-82489767D01*
X146016145Y-82596375D01*
X145811353Y-82757820D01*
X145632674Y-82947761D01*
X145484032Y-83162027D01*
X145481966Y-83166217D01*
X145481964Y-83166220D01*
X145464312Y-83202016D01*
X145368694Y-83395910D01*
X145367272Y-83400353D01*
X145367271Y-83400355D01*
X145336977Y-83494993D01*
X145289193Y-83644272D01*
X145288443Y-83648879D01*
X145288442Y-83648882D01*
X145281122Y-83693827D01*
X145247275Y-83901656D01*
X145243862Y-84162410D01*
X142754000Y-84162410D01*
X142754000Y-80851530D01*
X145624407Y-80851530D01*
X145636795Y-81066375D01*
X145638231Y-81076596D01*
X145685542Y-81286528D01*
X145688621Y-81296356D01*
X145769586Y-81495748D01*
X145774239Y-81504959D01*
X145856569Y-81639308D01*
X145867027Y-81648770D01*
X145875803Y-81644987D01*
X146627978Y-80892812D01*
X146634356Y-80881132D01*
X147364408Y-80881132D01*
X147364539Y-80882965D01*
X147368790Y-80889580D01*
X148120219Y-81641009D01*
X148132230Y-81647568D01*
X148143969Y-81638600D01*
X148176699Y-81593050D01*
X148182014Y-81584205D01*
X148277358Y-81391292D01*
X148281156Y-81381699D01*
X148343715Y-81175793D01*
X148345893Y-81165720D01*
X148374221Y-80950550D01*
X148374740Y-80943882D01*
X148376219Y-80883365D01*
X148376025Y-80876646D01*
X148373960Y-80851530D01*
X155124407Y-80851530D01*
X155136795Y-81066375D01*
X155138231Y-81076596D01*
X155185542Y-81286528D01*
X155188621Y-81296356D01*
X155269586Y-81495748D01*
X155274239Y-81504959D01*
X155356569Y-81639308D01*
X155367027Y-81648770D01*
X155375803Y-81644987D01*
X156127978Y-80892812D01*
X156134356Y-80881132D01*
X156864408Y-80881132D01*
X156864539Y-80882965D01*
X156868790Y-80889580D01*
X157620219Y-81641009D01*
X157632230Y-81647568D01*
X157643969Y-81638600D01*
X157676699Y-81593050D01*
X157682014Y-81584205D01*
X157777358Y-81391292D01*
X157781156Y-81381699D01*
X157843715Y-81175793D01*
X157845893Y-81165720D01*
X157874221Y-80950550D01*
X157874740Y-80943882D01*
X157876219Y-80883365D01*
X157876025Y-80876646D01*
X157858244Y-80660375D01*
X157856559Y-80650195D01*
X157804133Y-80441477D01*
X157800813Y-80431726D01*
X157714999Y-80234365D01*
X157710133Y-80225290D01*
X157642899Y-80121364D01*
X157632212Y-80112160D01*
X157622647Y-80116563D01*
X156872022Y-80867188D01*
X156864408Y-80881132D01*
X156134356Y-80881132D01*
X156135592Y-80878868D01*
X156135461Y-80877035D01*
X156131210Y-80870420D01*
X155380062Y-80119272D01*
X155368526Y-80112972D01*
X155356243Y-80122595D01*
X155306225Y-80195918D01*
X155301137Y-80204874D01*
X155210530Y-80400071D01*
X155206967Y-80409758D01*
X155149459Y-80617124D01*
X155147528Y-80627244D01*
X155124659Y-80841241D01*
X155124407Y-80851530D01*
X148373960Y-80851530D01*
X148358244Y-80660375D01*
X148356559Y-80650195D01*
X148304133Y-80441477D01*
X148300813Y-80431726D01*
X148214999Y-80234365D01*
X148210133Y-80225290D01*
X148142899Y-80121364D01*
X148132212Y-80112160D01*
X148122647Y-80116563D01*
X147372022Y-80867188D01*
X147364408Y-80881132D01*
X146634356Y-80881132D01*
X146635592Y-80878868D01*
X146635461Y-80877035D01*
X146631210Y-80870420D01*
X145880062Y-80119272D01*
X145868526Y-80112972D01*
X145856243Y-80122595D01*
X145806225Y-80195918D01*
X145801137Y-80204874D01*
X145710530Y-80400071D01*
X145706967Y-80409758D01*
X145649459Y-80617124D01*
X145647528Y-80627244D01*
X145624659Y-80841241D01*
X145624407Y-80851530D01*
X142754000Y-80851530D01*
X142754000Y-79474796D01*
X146230034Y-79474796D01*
X146235315Y-79481850D01*
X146265031Y-79499215D01*
X146313755Y-79550853D01*
X146326826Y-79620636D01*
X146300095Y-79686408D01*
X146268602Y-79714624D01*
X146262469Y-79718486D01*
X146239960Y-79735386D01*
X146231507Y-79746711D01*
X146238251Y-79759041D01*
X146987188Y-80507978D01*
X147001132Y-80515592D01*
X147002965Y-80515461D01*
X147009580Y-80511210D01*
X147763073Y-79757717D01*
X147770093Y-79744861D01*
X147762916Y-79735011D01*
X147757110Y-79731154D01*
X147737596Y-79720381D01*
X147687626Y-79669947D01*
X147672855Y-79600504D01*
X147697972Y-79534099D01*
X147725322Y-79507495D01*
X147758998Y-79483474D01*
X147765811Y-79474796D01*
X155730034Y-79474796D01*
X155735315Y-79481850D01*
X155765031Y-79499215D01*
X155813755Y-79550853D01*
X155826826Y-79620636D01*
X155800095Y-79686408D01*
X155768602Y-79714624D01*
X155762469Y-79718486D01*
X155739960Y-79735386D01*
X155731507Y-79746711D01*
X155738251Y-79759041D01*
X156487188Y-80507978D01*
X156501132Y-80515592D01*
X156502965Y-80515461D01*
X156509580Y-80511210D01*
X157263073Y-79757717D01*
X157270093Y-79744861D01*
X157262916Y-79735011D01*
X157257110Y-79731154D01*
X157237596Y-79720381D01*
X157187626Y-79669947D01*
X157172855Y-79600504D01*
X157197972Y-79534099D01*
X157225322Y-79507495D01*
X157258998Y-79483474D01*
X157267399Y-79472774D01*
X157260411Y-79459621D01*
X156512812Y-78712022D01*
X156498868Y-78704408D01*
X156497035Y-78704539D01*
X156490420Y-78708790D01*
X155736794Y-79462416D01*
X155730034Y-79474796D01*
X147765811Y-79474796D01*
X147767399Y-79472774D01*
X147760411Y-79459621D01*
X147012812Y-78712022D01*
X146998868Y-78704408D01*
X146997035Y-78704539D01*
X146990420Y-78708790D01*
X146236794Y-79462416D01*
X146230034Y-79474796D01*
X142754000Y-79474796D01*
X142754000Y-78311530D01*
X145624407Y-78311530D01*
X145636795Y-78526375D01*
X145638231Y-78536596D01*
X145685542Y-78746528D01*
X145688621Y-78756356D01*
X145769586Y-78955748D01*
X145774239Y-78964959D01*
X145856569Y-79099308D01*
X145867027Y-79108770D01*
X145875803Y-79104987D01*
X146627978Y-78352812D01*
X146634356Y-78341132D01*
X147364408Y-78341132D01*
X147364539Y-78342965D01*
X147368790Y-78349580D01*
X148120219Y-79101009D01*
X148132230Y-79107568D01*
X148143969Y-79098600D01*
X148176699Y-79053050D01*
X148182014Y-79044205D01*
X148277358Y-78851292D01*
X148281156Y-78841699D01*
X148343715Y-78635793D01*
X148345893Y-78625720D01*
X148374221Y-78410550D01*
X148374740Y-78403882D01*
X148376219Y-78343365D01*
X148376025Y-78336646D01*
X148373960Y-78311530D01*
X155124407Y-78311530D01*
X155136795Y-78526375D01*
X155138231Y-78536596D01*
X155185542Y-78746528D01*
X155188621Y-78756356D01*
X155269586Y-78955748D01*
X155274239Y-78964959D01*
X155356569Y-79099308D01*
X155367027Y-79108770D01*
X155375803Y-79104987D01*
X156127978Y-78352812D01*
X156134356Y-78341132D01*
X156864408Y-78341132D01*
X156864539Y-78342965D01*
X156868790Y-78349580D01*
X157620219Y-79101009D01*
X157632230Y-79107568D01*
X157643969Y-79098600D01*
X157676699Y-79053050D01*
X157682014Y-79044205D01*
X157777358Y-78851292D01*
X157781156Y-78841699D01*
X157843715Y-78635793D01*
X157845893Y-78625720D01*
X157874221Y-78410550D01*
X157874740Y-78403882D01*
X157876219Y-78343365D01*
X157876025Y-78336646D01*
X157858244Y-78120375D01*
X157856559Y-78110195D01*
X157804133Y-77901477D01*
X157800813Y-77891726D01*
X157714999Y-77694365D01*
X157710133Y-77685290D01*
X157642899Y-77581364D01*
X157632212Y-77572160D01*
X157622647Y-77576563D01*
X156872022Y-78327188D01*
X156864408Y-78341132D01*
X156134356Y-78341132D01*
X156135592Y-78338868D01*
X156135461Y-78337035D01*
X156131210Y-78330420D01*
X155380062Y-77579272D01*
X155368526Y-77572972D01*
X155356243Y-77582595D01*
X155306225Y-77655918D01*
X155301137Y-77664874D01*
X155210530Y-77860071D01*
X155206967Y-77869758D01*
X155149459Y-78077124D01*
X155147528Y-78087244D01*
X155124659Y-78301241D01*
X155124407Y-78311530D01*
X148373960Y-78311530D01*
X148358244Y-78120375D01*
X148356559Y-78110195D01*
X148304133Y-77901477D01*
X148300813Y-77891726D01*
X148214999Y-77694365D01*
X148210133Y-77685290D01*
X148142899Y-77581364D01*
X148132212Y-77572160D01*
X148122647Y-77576563D01*
X147372022Y-78327188D01*
X147364408Y-78341132D01*
X146634356Y-78341132D01*
X146635592Y-78338868D01*
X146635461Y-78337035D01*
X146631210Y-78330420D01*
X145880062Y-77579272D01*
X145868526Y-77572972D01*
X145856243Y-77582595D01*
X145806225Y-77655918D01*
X145801137Y-77664874D01*
X145710530Y-77860071D01*
X145706967Y-77869758D01*
X145649459Y-78077124D01*
X145647528Y-78087244D01*
X145624659Y-78301241D01*
X145624407Y-78311530D01*
X142754000Y-78311530D01*
X142754000Y-77206711D01*
X146231507Y-77206711D01*
X146238251Y-77219041D01*
X146987188Y-77967978D01*
X147001132Y-77975592D01*
X147002965Y-77975461D01*
X147009580Y-77971210D01*
X147763073Y-77217717D01*
X147769083Y-77206711D01*
X155731507Y-77206711D01*
X155738251Y-77219041D01*
X156487188Y-77967978D01*
X156501132Y-77975592D01*
X156502965Y-77975461D01*
X156509580Y-77971210D01*
X157263073Y-77217717D01*
X157270093Y-77204861D01*
X157262916Y-77195011D01*
X157257106Y-77191151D01*
X157068711Y-77087151D01*
X157059299Y-77082921D01*
X156856445Y-77011086D01*
X156846474Y-77008452D01*
X156634610Y-76970713D01*
X156624358Y-76969744D01*
X156409164Y-76967115D01*
X156398880Y-76967835D01*
X156186158Y-77000386D01*
X156176130Y-77002775D01*
X155971576Y-77069633D01*
X155962079Y-77073625D01*
X155771191Y-77172994D01*
X155762463Y-77178491D01*
X155739960Y-77195386D01*
X155731507Y-77206711D01*
X147769083Y-77206711D01*
X147770093Y-77204861D01*
X147762916Y-77195011D01*
X147757106Y-77191151D01*
X147568711Y-77087151D01*
X147559299Y-77082921D01*
X147356445Y-77011086D01*
X147346474Y-77008452D01*
X147134610Y-76970713D01*
X147124358Y-76969744D01*
X146909164Y-76967115D01*
X146898880Y-76967835D01*
X146686158Y-77000386D01*
X146676130Y-77002775D01*
X146471576Y-77069633D01*
X146462079Y-77073625D01*
X146271191Y-77172994D01*
X146262463Y-77178491D01*
X146239960Y-77195386D01*
X146231507Y-77206711D01*
X142754000Y-77206711D01*
X142754000Y-75470606D01*
X145877495Y-75470606D01*
X145890935Y-75675659D01*
X145941517Y-75874828D01*
X146027549Y-76061445D01*
X146146148Y-76229259D01*
X146293342Y-76372649D01*
X146298138Y-76375854D01*
X146298141Y-76375856D01*
X146376523Y-76428229D01*
X146464203Y-76486815D01*
X146469506Y-76489093D01*
X146469509Y-76489095D01*
X146559293Y-76527669D01*
X146653008Y-76567932D01*
X146853433Y-76613284D01*
X146859202Y-76613511D01*
X146859205Y-76613511D01*
X146936697Y-76616555D01*
X147058768Y-76621351D01*
X147160450Y-76606608D01*
X147256419Y-76592693D01*
X147256424Y-76592692D01*
X147262133Y-76591864D01*
X147267597Y-76590009D01*
X147267602Y-76590008D01*
X147451249Y-76527669D01*
X147451254Y-76527667D01*
X147456721Y-76525811D01*
X147636012Y-76425403D01*
X147794003Y-76294003D01*
X147925403Y-76136012D01*
X148025811Y-75956721D01*
X148027667Y-75951254D01*
X148027669Y-75951249D01*
X148090008Y-75767602D01*
X148090009Y-75767597D01*
X148091864Y-75762133D01*
X148104403Y-75675659D01*
X148120818Y-75562442D01*
X148121351Y-75558768D01*
X148122890Y-75500000D01*
X148120189Y-75470606D01*
X155377495Y-75470606D01*
X155390935Y-75675659D01*
X155441517Y-75874828D01*
X155527549Y-76061445D01*
X155646148Y-76229259D01*
X155793342Y-76372649D01*
X155798138Y-76375854D01*
X155798141Y-76375856D01*
X155876523Y-76428229D01*
X155964203Y-76486815D01*
X155969506Y-76489093D01*
X155969509Y-76489095D01*
X156059293Y-76527669D01*
X156153008Y-76567932D01*
X156353433Y-76613284D01*
X156359202Y-76613511D01*
X156359205Y-76613511D01*
X156436697Y-76616555D01*
X156558768Y-76621351D01*
X156660450Y-76606608D01*
X156756419Y-76592693D01*
X156756424Y-76592692D01*
X156762133Y-76591864D01*
X156767597Y-76590009D01*
X156767602Y-76590008D01*
X156951249Y-76527669D01*
X156951254Y-76527667D01*
X156956721Y-76525811D01*
X157136012Y-76425403D01*
X157294003Y-76294003D01*
X157425403Y-76136012D01*
X157525811Y-75956721D01*
X157527667Y-75951254D01*
X157527669Y-75951249D01*
X157590008Y-75767602D01*
X157590009Y-75767597D01*
X157591864Y-75762133D01*
X157604403Y-75675659D01*
X157620818Y-75562442D01*
X157621351Y-75558768D01*
X157622890Y-75500000D01*
X157604087Y-75295370D01*
X157594400Y-75261021D01*
X157549878Y-75103157D01*
X157549876Y-75103152D01*
X157548308Y-75097592D01*
X157457421Y-74913292D01*
X157334470Y-74748640D01*
X157183572Y-74609151D01*
X157138348Y-74580617D01*
X157014665Y-74502579D01*
X157014660Y-74502577D01*
X157009781Y-74499498D01*
X156818918Y-74423351D01*
X156617374Y-74383261D01*
X156611599Y-74383185D01*
X156611595Y-74383185D01*
X156510796Y-74381866D01*
X156411899Y-74380571D01*
X156209375Y-74415372D01*
X156203958Y-74417370D01*
X156203952Y-74417372D01*
X156057800Y-74471290D01*
X156016583Y-74486496D01*
X155998326Y-74497358D01*
X155844950Y-74588607D01*
X155844947Y-74588609D01*
X155839982Y-74591563D01*
X155685484Y-74727054D01*
X155558265Y-74888430D01*
X155462585Y-75070289D01*
X155401648Y-75266538D01*
X155377495Y-75470606D01*
X148120189Y-75470606D01*
X148104087Y-75295370D01*
X148094400Y-75261021D01*
X148049878Y-75103157D01*
X148049876Y-75103152D01*
X148048308Y-75097592D01*
X147957421Y-74913292D01*
X147834470Y-74748640D01*
X147683572Y-74609151D01*
X147638348Y-74580617D01*
X147514665Y-74502579D01*
X147514660Y-74502577D01*
X147509781Y-74499498D01*
X147318918Y-74423351D01*
X147117374Y-74383261D01*
X147111599Y-74383185D01*
X147111595Y-74383185D01*
X147010796Y-74381866D01*
X146911899Y-74380571D01*
X146709375Y-74415372D01*
X146703958Y-74417370D01*
X146703952Y-74417372D01*
X146557800Y-74471290D01*
X146516583Y-74486496D01*
X146498326Y-74497358D01*
X146344950Y-74588607D01*
X146344947Y-74588609D01*
X146339982Y-74591563D01*
X146185484Y-74727054D01*
X146058265Y-74888430D01*
X145962585Y-75070289D01*
X145901648Y-75266538D01*
X145877495Y-75470606D01*
X142754000Y-75470606D01*
X142754000Y-71162410D01*
X145243862Y-71162410D01*
X145279028Y-71420804D01*
X145352000Y-71671162D01*
X145461177Y-71907984D01*
X145463737Y-71911889D01*
X145463740Y-71911894D01*
X145601592Y-72122154D01*
X145601596Y-72122159D01*
X145604158Y-72126067D01*
X145777804Y-72320621D01*
X145978300Y-72487371D01*
X146201240Y-72622655D01*
X146205548Y-72624462D01*
X146205549Y-72624462D01*
X146437413Y-72721691D01*
X146437418Y-72721693D01*
X146441728Y-72723500D01*
X146446260Y-72724651D01*
X146446263Y-72724652D01*
X146571765Y-72756525D01*
X146694480Y-72787690D01*
X146911072Y-72809500D01*
X147066206Y-72809500D01*
X147068531Y-72809327D01*
X147068537Y-72809327D01*
X147255407Y-72795440D01*
X147255411Y-72795439D01*
X147260059Y-72795094D01*
X147514405Y-72737542D01*
X147757450Y-72643027D01*
X147761504Y-72640710D01*
X147761508Y-72640708D01*
X147852295Y-72588818D01*
X147983855Y-72513625D01*
X148188647Y-72352180D01*
X148367326Y-72162239D01*
X148515968Y-71947973D01*
X148533760Y-71911894D01*
X148629241Y-71718278D01*
X148629242Y-71718275D01*
X148631306Y-71714090D01*
X148646488Y-71666663D01*
X148709382Y-71470179D01*
X148710807Y-71465728D01*
X148717393Y-71425292D01*
X148751974Y-71212955D01*
X148752725Y-71208344D01*
X148753326Y-71162410D01*
X154743862Y-71162410D01*
X154779028Y-71420804D01*
X154852000Y-71671162D01*
X154961177Y-71907984D01*
X154963737Y-71911889D01*
X154963740Y-71911894D01*
X155101592Y-72122154D01*
X155101596Y-72122159D01*
X155104158Y-72126067D01*
X155277804Y-72320621D01*
X155478300Y-72487371D01*
X155701240Y-72622655D01*
X155705548Y-72624462D01*
X155705549Y-72624462D01*
X155937413Y-72721691D01*
X155937418Y-72721693D01*
X155941728Y-72723500D01*
X155946260Y-72724651D01*
X155946263Y-72724652D01*
X156071765Y-72756525D01*
X156194480Y-72787690D01*
X156411072Y-72809500D01*
X156566206Y-72809500D01*
X156568531Y-72809327D01*
X156568537Y-72809327D01*
X156755407Y-72795440D01*
X156755411Y-72795439D01*
X156760059Y-72795094D01*
X157014405Y-72737542D01*
X157257450Y-72643027D01*
X157261504Y-72640710D01*
X157261508Y-72640708D01*
X157352295Y-72588818D01*
X157483855Y-72513625D01*
X157688647Y-72352180D01*
X157867326Y-72162239D01*
X158015968Y-71947973D01*
X158033760Y-71911894D01*
X158129241Y-71718278D01*
X158129242Y-71718275D01*
X158131306Y-71714090D01*
X158146488Y-71666663D01*
X158209382Y-71470179D01*
X158210807Y-71465728D01*
X158217393Y-71425292D01*
X158251974Y-71212955D01*
X158252725Y-71208344D01*
X158256138Y-70947590D01*
X158220972Y-70689196D01*
X158148000Y-70438838D01*
X158038823Y-70202016D01*
X158036260Y-70198106D01*
X157898408Y-69987846D01*
X157898404Y-69987841D01*
X157895842Y-69983933D01*
X157722196Y-69789379D01*
X157521700Y-69622629D01*
X157298760Y-69487345D01*
X157294451Y-69485538D01*
X157062587Y-69388309D01*
X157062582Y-69388307D01*
X157058272Y-69386500D01*
X157051105Y-69384680D01*
X157050279Y-69384191D01*
X157049307Y-69383866D01*
X157049377Y-69383657D01*
X156990004Y-69348525D01*
X156958149Y-69285075D01*
X156965655Y-69214476D01*
X157010138Y-69159143D01*
X157026689Y-69149406D01*
X157200074Y-69064466D01*
X157208940Y-69059181D01*
X157258998Y-69023474D01*
X157267399Y-69012774D01*
X157260411Y-68999621D01*
X156512812Y-68252022D01*
X156498868Y-68244408D01*
X156497035Y-68244539D01*
X156490420Y-68248790D01*
X155736794Y-69002416D01*
X155730034Y-69014796D01*
X155735315Y-69021850D01*
X155900859Y-69118586D01*
X155910146Y-69123036D01*
X155966378Y-69144509D01*
X156022881Y-69187497D01*
X156047174Y-69254208D01*
X156031544Y-69323463D01*
X155980952Y-69373273D01*
X155967098Y-69379651D01*
X155955424Y-69384191D01*
X155746908Y-69465278D01*
X155746905Y-69465279D01*
X155742550Y-69466973D01*
X155738496Y-69469290D01*
X155738492Y-69469292D01*
X155702669Y-69489767D01*
X155516145Y-69596375D01*
X155311353Y-69757820D01*
X155132674Y-69947761D01*
X154984032Y-70162027D01*
X154981966Y-70166217D01*
X154981964Y-70166220D01*
X154964312Y-70202016D01*
X154868694Y-70395910D01*
X154867272Y-70400353D01*
X154867271Y-70400355D01*
X154836977Y-70494993D01*
X154789193Y-70644272D01*
X154788443Y-70648879D01*
X154788442Y-70648882D01*
X154781122Y-70693827D01*
X154747275Y-70901656D01*
X154743862Y-71162410D01*
X148753326Y-71162410D01*
X148756138Y-70947590D01*
X148720972Y-70689196D01*
X148648000Y-70438838D01*
X148538823Y-70202016D01*
X148536260Y-70198106D01*
X148398408Y-69987846D01*
X148398404Y-69987841D01*
X148395842Y-69983933D01*
X148222196Y-69789379D01*
X148021700Y-69622629D01*
X147798760Y-69487345D01*
X147794451Y-69485538D01*
X147562587Y-69388309D01*
X147562582Y-69388307D01*
X147558272Y-69386500D01*
X147551105Y-69384680D01*
X147550279Y-69384191D01*
X147549307Y-69383866D01*
X147549377Y-69383657D01*
X147490004Y-69348525D01*
X147458149Y-69285075D01*
X147465655Y-69214476D01*
X147510138Y-69159143D01*
X147526689Y-69149406D01*
X147700074Y-69064466D01*
X147708940Y-69059181D01*
X147758998Y-69023474D01*
X147767399Y-69012774D01*
X147760411Y-68999621D01*
X147012812Y-68252022D01*
X146998868Y-68244408D01*
X146997035Y-68244539D01*
X146990420Y-68248790D01*
X146236794Y-69002416D01*
X146230034Y-69014796D01*
X146235315Y-69021850D01*
X146400859Y-69118586D01*
X146410146Y-69123036D01*
X146466378Y-69144509D01*
X146522881Y-69187497D01*
X146547174Y-69254208D01*
X146531544Y-69323463D01*
X146480952Y-69373273D01*
X146467098Y-69379651D01*
X146455424Y-69384191D01*
X146246908Y-69465278D01*
X146246905Y-69465279D01*
X146242550Y-69466973D01*
X146238496Y-69469290D01*
X146238492Y-69469292D01*
X146202669Y-69489767D01*
X146016145Y-69596375D01*
X145811353Y-69757820D01*
X145632674Y-69947761D01*
X145484032Y-70162027D01*
X145481966Y-70166217D01*
X145481964Y-70166220D01*
X145464312Y-70202016D01*
X145368694Y-70395910D01*
X145367272Y-70400353D01*
X145367271Y-70400355D01*
X145336977Y-70494993D01*
X145289193Y-70644272D01*
X145288443Y-70648879D01*
X145288442Y-70648882D01*
X145281122Y-70693827D01*
X145247275Y-70901656D01*
X145243862Y-71162410D01*
X142754000Y-71162410D01*
X142754000Y-67851530D01*
X145624407Y-67851530D01*
X145636795Y-68066375D01*
X145638231Y-68076596D01*
X145685542Y-68286528D01*
X145688621Y-68296356D01*
X145769586Y-68495748D01*
X145774239Y-68504959D01*
X145856569Y-68639308D01*
X145867027Y-68648770D01*
X145875803Y-68644987D01*
X146627978Y-67892812D01*
X146634356Y-67881132D01*
X147364408Y-67881132D01*
X147364539Y-67882965D01*
X147368790Y-67889580D01*
X148120219Y-68641009D01*
X148132230Y-68647568D01*
X148143969Y-68638600D01*
X148176699Y-68593050D01*
X148182014Y-68584205D01*
X148277358Y-68391292D01*
X148281156Y-68381699D01*
X148343715Y-68175793D01*
X148345893Y-68165720D01*
X148374221Y-67950550D01*
X148374740Y-67943882D01*
X148376219Y-67883365D01*
X148376025Y-67876646D01*
X148373960Y-67851530D01*
X155124407Y-67851530D01*
X155136795Y-68066375D01*
X155138231Y-68076596D01*
X155185542Y-68286528D01*
X155188621Y-68296356D01*
X155269586Y-68495748D01*
X155274239Y-68504959D01*
X155356569Y-68639308D01*
X155367027Y-68648770D01*
X155375803Y-68644987D01*
X156127978Y-67892812D01*
X156134356Y-67881132D01*
X156864408Y-67881132D01*
X156864539Y-67882965D01*
X156868790Y-67889580D01*
X157620219Y-68641009D01*
X157632230Y-68647568D01*
X157643969Y-68638600D01*
X157676699Y-68593050D01*
X157682014Y-68584205D01*
X157777358Y-68391292D01*
X157781156Y-68381699D01*
X157843715Y-68175793D01*
X157845893Y-68165720D01*
X157874221Y-67950550D01*
X157874740Y-67943882D01*
X157876219Y-67883365D01*
X157876025Y-67876646D01*
X157858244Y-67660375D01*
X157856559Y-67650195D01*
X157804133Y-67441477D01*
X157800813Y-67431726D01*
X157714999Y-67234365D01*
X157710133Y-67225290D01*
X157642899Y-67121364D01*
X157632212Y-67112160D01*
X157622647Y-67116563D01*
X156872022Y-67867188D01*
X156864408Y-67881132D01*
X156134356Y-67881132D01*
X156135592Y-67878868D01*
X156135461Y-67877035D01*
X156131210Y-67870420D01*
X155380062Y-67119272D01*
X155368526Y-67112972D01*
X155356243Y-67122595D01*
X155306225Y-67195918D01*
X155301137Y-67204874D01*
X155210530Y-67400071D01*
X155206967Y-67409758D01*
X155149459Y-67617124D01*
X155147528Y-67627244D01*
X155124659Y-67841241D01*
X155124407Y-67851530D01*
X148373960Y-67851530D01*
X148358244Y-67660375D01*
X148356559Y-67650195D01*
X148304133Y-67441477D01*
X148300813Y-67431726D01*
X148214999Y-67234365D01*
X148210133Y-67225290D01*
X148142899Y-67121364D01*
X148132212Y-67112160D01*
X148122647Y-67116563D01*
X147372022Y-67867188D01*
X147364408Y-67881132D01*
X146634356Y-67881132D01*
X146635592Y-67878868D01*
X146635461Y-67877035D01*
X146631210Y-67870420D01*
X145880062Y-67119272D01*
X145868526Y-67112972D01*
X145856243Y-67122595D01*
X145806225Y-67195918D01*
X145801137Y-67204874D01*
X145710530Y-67400071D01*
X145706967Y-67409758D01*
X145649459Y-67617124D01*
X145647528Y-67627244D01*
X145624659Y-67841241D01*
X145624407Y-67851530D01*
X142754000Y-67851530D01*
X142754000Y-66474796D01*
X146230034Y-66474796D01*
X146235315Y-66481850D01*
X146265031Y-66499215D01*
X146313755Y-66550853D01*
X146326826Y-66620636D01*
X146300095Y-66686408D01*
X146268602Y-66714624D01*
X146262469Y-66718486D01*
X146239960Y-66735386D01*
X146231507Y-66746711D01*
X146238251Y-66759041D01*
X146987188Y-67507978D01*
X147001132Y-67515592D01*
X147002965Y-67515461D01*
X147009580Y-67511210D01*
X147763073Y-66757717D01*
X147770093Y-66744861D01*
X147762916Y-66735011D01*
X147757110Y-66731154D01*
X147737596Y-66720381D01*
X147687626Y-66669947D01*
X147672855Y-66600504D01*
X147697972Y-66534099D01*
X147725322Y-66507495D01*
X147758998Y-66483474D01*
X147765811Y-66474796D01*
X155730034Y-66474796D01*
X155735315Y-66481850D01*
X155765031Y-66499215D01*
X155813755Y-66550853D01*
X155826826Y-66620636D01*
X155800095Y-66686408D01*
X155768602Y-66714624D01*
X155762469Y-66718486D01*
X155739960Y-66735386D01*
X155731507Y-66746711D01*
X155738251Y-66759041D01*
X156487188Y-67507978D01*
X156501132Y-67515592D01*
X156502965Y-67515461D01*
X156509580Y-67511210D01*
X157263073Y-66757717D01*
X157270093Y-66744861D01*
X157262916Y-66735011D01*
X157257110Y-66731154D01*
X157237596Y-66720381D01*
X157187626Y-66669947D01*
X157172855Y-66600504D01*
X157197972Y-66534099D01*
X157225322Y-66507495D01*
X157258998Y-66483474D01*
X157267399Y-66472774D01*
X157260411Y-66459621D01*
X156512812Y-65712022D01*
X156498868Y-65704408D01*
X156497035Y-65704539D01*
X156490420Y-65708790D01*
X155736794Y-66462416D01*
X155730034Y-66474796D01*
X147765811Y-66474796D01*
X147767399Y-66472774D01*
X147760411Y-66459621D01*
X147012812Y-65712022D01*
X146998868Y-65704408D01*
X146997035Y-65704539D01*
X146990420Y-65708790D01*
X146236794Y-66462416D01*
X146230034Y-66474796D01*
X142754000Y-66474796D01*
X142754000Y-65311530D01*
X145624407Y-65311530D01*
X145636795Y-65526375D01*
X145638231Y-65536596D01*
X145685542Y-65746528D01*
X145688621Y-65756356D01*
X145769586Y-65955748D01*
X145774239Y-65964959D01*
X145856569Y-66099308D01*
X145867027Y-66108770D01*
X145875803Y-66104987D01*
X146627978Y-65352812D01*
X146634356Y-65341132D01*
X147364408Y-65341132D01*
X147364539Y-65342965D01*
X147368790Y-65349580D01*
X148120219Y-66101009D01*
X148132230Y-66107568D01*
X148143969Y-66098600D01*
X148176699Y-66053050D01*
X148182014Y-66044205D01*
X148277358Y-65851292D01*
X148281156Y-65841699D01*
X148343715Y-65635793D01*
X148345893Y-65625720D01*
X148374221Y-65410550D01*
X148374740Y-65403882D01*
X148376219Y-65343365D01*
X148376025Y-65336646D01*
X148373960Y-65311530D01*
X155124407Y-65311530D01*
X155136795Y-65526375D01*
X155138231Y-65536596D01*
X155185542Y-65746528D01*
X155188621Y-65756356D01*
X155269586Y-65955748D01*
X155274239Y-65964959D01*
X155356569Y-66099308D01*
X155367027Y-66108770D01*
X155375803Y-66104987D01*
X156127978Y-65352812D01*
X156134356Y-65341132D01*
X156864408Y-65341132D01*
X156864539Y-65342965D01*
X156868790Y-65349580D01*
X157620219Y-66101009D01*
X157632230Y-66107568D01*
X157643969Y-66098600D01*
X157676699Y-66053050D01*
X157682014Y-66044205D01*
X157777358Y-65851292D01*
X157781156Y-65841699D01*
X157843715Y-65635793D01*
X157845893Y-65625720D01*
X157874221Y-65410550D01*
X157874740Y-65403882D01*
X157876219Y-65343365D01*
X157876025Y-65336646D01*
X157858244Y-65120375D01*
X157856559Y-65110195D01*
X157804133Y-64901477D01*
X157800813Y-64891726D01*
X157714999Y-64694365D01*
X157710133Y-64685290D01*
X157642899Y-64581364D01*
X157632212Y-64572160D01*
X157622647Y-64576563D01*
X156872022Y-65327188D01*
X156864408Y-65341132D01*
X156134356Y-65341132D01*
X156135592Y-65338868D01*
X156135461Y-65337035D01*
X156131210Y-65330420D01*
X155380062Y-64579272D01*
X155368526Y-64572972D01*
X155356243Y-64582595D01*
X155306225Y-64655918D01*
X155301137Y-64664874D01*
X155210530Y-64860071D01*
X155206967Y-64869758D01*
X155149459Y-65077124D01*
X155147528Y-65087244D01*
X155124659Y-65301241D01*
X155124407Y-65311530D01*
X148373960Y-65311530D01*
X148358244Y-65120375D01*
X148356559Y-65110195D01*
X148304133Y-64901477D01*
X148300813Y-64891726D01*
X148214999Y-64694365D01*
X148210133Y-64685290D01*
X148142899Y-64581364D01*
X148132212Y-64572160D01*
X148122647Y-64576563D01*
X147372022Y-65327188D01*
X147364408Y-65341132D01*
X146634356Y-65341132D01*
X146635592Y-65338868D01*
X146635461Y-65337035D01*
X146631210Y-65330420D01*
X145880062Y-64579272D01*
X145868526Y-64572972D01*
X145856243Y-64582595D01*
X145806225Y-64655918D01*
X145801137Y-64664874D01*
X145710530Y-64860071D01*
X145706967Y-64869758D01*
X145649459Y-65077124D01*
X145647528Y-65087244D01*
X145624659Y-65301241D01*
X145624407Y-65311530D01*
X142754000Y-65311530D01*
X142754000Y-64206711D01*
X146231507Y-64206711D01*
X146238251Y-64219041D01*
X146987188Y-64967978D01*
X147001132Y-64975592D01*
X147002965Y-64975461D01*
X147009580Y-64971210D01*
X147763073Y-64217717D01*
X147769083Y-64206711D01*
X155731507Y-64206711D01*
X155738251Y-64219041D01*
X156487188Y-64967978D01*
X156501132Y-64975592D01*
X156502965Y-64975461D01*
X156509580Y-64971210D01*
X157263073Y-64217717D01*
X157270093Y-64204861D01*
X157262916Y-64195011D01*
X157257106Y-64191151D01*
X157068711Y-64087151D01*
X157059299Y-64082921D01*
X156856445Y-64011086D01*
X156846474Y-64008452D01*
X156634610Y-63970713D01*
X156624358Y-63969744D01*
X156409164Y-63967115D01*
X156398880Y-63967835D01*
X156186158Y-64000386D01*
X156176130Y-64002775D01*
X155971576Y-64069633D01*
X155962079Y-64073625D01*
X155771191Y-64172994D01*
X155762463Y-64178491D01*
X155739960Y-64195386D01*
X155731507Y-64206711D01*
X147769083Y-64206711D01*
X147770093Y-64204861D01*
X147762916Y-64195011D01*
X147757106Y-64191151D01*
X147568711Y-64087151D01*
X147559299Y-64082921D01*
X147356445Y-64011086D01*
X147346474Y-64008452D01*
X147134610Y-63970713D01*
X147124358Y-63969744D01*
X146909164Y-63967115D01*
X146898880Y-63967835D01*
X146686158Y-64000386D01*
X146676130Y-64002775D01*
X146471576Y-64069633D01*
X146462079Y-64073625D01*
X146271191Y-64172994D01*
X146262463Y-64178491D01*
X146239960Y-64195386D01*
X146231507Y-64206711D01*
X142754000Y-64206711D01*
X142754000Y-62470606D01*
X145877495Y-62470606D01*
X145890935Y-62675659D01*
X145941517Y-62874828D01*
X146027549Y-63061445D01*
X146146148Y-63229259D01*
X146293342Y-63372649D01*
X146298138Y-63375854D01*
X146298141Y-63375856D01*
X146376523Y-63428229D01*
X146464203Y-63486815D01*
X146469506Y-63489093D01*
X146469509Y-63489095D01*
X146559293Y-63527669D01*
X146653008Y-63567932D01*
X146853433Y-63613284D01*
X146859202Y-63613511D01*
X146859205Y-63613511D01*
X146936697Y-63616555D01*
X147058768Y-63621351D01*
X147160451Y-63606607D01*
X147256419Y-63592693D01*
X147256424Y-63592692D01*
X147262133Y-63591864D01*
X147267597Y-63590009D01*
X147267602Y-63590008D01*
X147451249Y-63527669D01*
X147451254Y-63527667D01*
X147456721Y-63525811D01*
X147636012Y-63425403D01*
X147794003Y-63294003D01*
X147925403Y-63136012D01*
X148025811Y-62956721D01*
X148027667Y-62951254D01*
X148027669Y-62951249D01*
X148090008Y-62767602D01*
X148090009Y-62767597D01*
X148091864Y-62762133D01*
X148104403Y-62675659D01*
X148120818Y-62562442D01*
X148121351Y-62558768D01*
X148122890Y-62500000D01*
X148120189Y-62470606D01*
X155377495Y-62470606D01*
X155390935Y-62675659D01*
X155441517Y-62874828D01*
X155527549Y-63061445D01*
X155646148Y-63229259D01*
X155793342Y-63372649D01*
X155798138Y-63375854D01*
X155798141Y-63375856D01*
X155876523Y-63428229D01*
X155964203Y-63486815D01*
X155969506Y-63489093D01*
X155969509Y-63489095D01*
X156059293Y-63527669D01*
X156153008Y-63567932D01*
X156353433Y-63613284D01*
X156359202Y-63613511D01*
X156359205Y-63613511D01*
X156436697Y-63616555D01*
X156558768Y-63621351D01*
X156660451Y-63606607D01*
X156756419Y-63592693D01*
X156756424Y-63592692D01*
X156762133Y-63591864D01*
X156767597Y-63590009D01*
X156767602Y-63590008D01*
X156951249Y-63527669D01*
X156951254Y-63527667D01*
X156956721Y-63525811D01*
X157136012Y-63425403D01*
X157294003Y-63294003D01*
X157425403Y-63136012D01*
X157525811Y-62956721D01*
X157527667Y-62951254D01*
X157527669Y-62951249D01*
X157590008Y-62767602D01*
X157590009Y-62767597D01*
X157591864Y-62762133D01*
X157604403Y-62675659D01*
X157620818Y-62562442D01*
X157621351Y-62558768D01*
X157622890Y-62500000D01*
X157604087Y-62295370D01*
X157594400Y-62261021D01*
X157549878Y-62103157D01*
X157549876Y-62103152D01*
X157548308Y-62097592D01*
X157457421Y-61913292D01*
X157334470Y-61748640D01*
X157183572Y-61609151D01*
X157138348Y-61580617D01*
X157014665Y-61502579D01*
X157014660Y-61502577D01*
X157009781Y-61499498D01*
X156818918Y-61423351D01*
X156617374Y-61383261D01*
X156611599Y-61383185D01*
X156611595Y-61383185D01*
X156510796Y-61381866D01*
X156411899Y-61380571D01*
X156209375Y-61415372D01*
X156203958Y-61417370D01*
X156203952Y-61417372D01*
X156057800Y-61471290D01*
X156016583Y-61486496D01*
X155998326Y-61497358D01*
X155844950Y-61588607D01*
X155844947Y-61588609D01*
X155839982Y-61591563D01*
X155685484Y-61727054D01*
X155558265Y-61888430D01*
X155462585Y-62070289D01*
X155401648Y-62266538D01*
X155377495Y-62470606D01*
X148120189Y-62470606D01*
X148104087Y-62295370D01*
X148094400Y-62261021D01*
X148049878Y-62103157D01*
X148049876Y-62103152D01*
X148048308Y-62097592D01*
X147957421Y-61913292D01*
X147834470Y-61748640D01*
X147683572Y-61609151D01*
X147638348Y-61580617D01*
X147514665Y-61502579D01*
X147514660Y-61502577D01*
X147509781Y-61499498D01*
X147318918Y-61423351D01*
X147117374Y-61383261D01*
X147111599Y-61383185D01*
X147111595Y-61383185D01*
X147010796Y-61381866D01*
X146911899Y-61380571D01*
X146709375Y-61415372D01*
X146703958Y-61417370D01*
X146703952Y-61417372D01*
X146557800Y-61471290D01*
X146516583Y-61486496D01*
X146498326Y-61497358D01*
X146344950Y-61588607D01*
X146344947Y-61588609D01*
X146339982Y-61591563D01*
X146185484Y-61727054D01*
X146058265Y-61888430D01*
X145962585Y-62070289D01*
X145901648Y-62266538D01*
X145877495Y-62470606D01*
X142754000Y-62470606D01*
X142754000Y-58162410D01*
X145243862Y-58162410D01*
X145279028Y-58420804D01*
X145352000Y-58671162D01*
X145461177Y-58907984D01*
X145463737Y-58911889D01*
X145463740Y-58911894D01*
X145601592Y-59122154D01*
X145601596Y-59122159D01*
X145604158Y-59126067D01*
X145777804Y-59320621D01*
X145978300Y-59487371D01*
X146201240Y-59622655D01*
X146205548Y-59624462D01*
X146205549Y-59624462D01*
X146437413Y-59721691D01*
X146437418Y-59721693D01*
X146441728Y-59723500D01*
X146446260Y-59724651D01*
X146446263Y-59724652D01*
X146571765Y-59756525D01*
X146694480Y-59787690D01*
X146911072Y-59809500D01*
X147066206Y-59809500D01*
X147068531Y-59809327D01*
X147068537Y-59809327D01*
X147255407Y-59795440D01*
X147255411Y-59795439D01*
X147260059Y-59795094D01*
X147514405Y-59737542D01*
X147757450Y-59643027D01*
X147761504Y-59640710D01*
X147761508Y-59640708D01*
X147852295Y-59588818D01*
X147983855Y-59513625D01*
X148188647Y-59352180D01*
X148367326Y-59162239D01*
X148515968Y-58947973D01*
X148533760Y-58911894D01*
X148629241Y-58718278D01*
X148629242Y-58718275D01*
X148631306Y-58714090D01*
X148646488Y-58666663D01*
X148709382Y-58470179D01*
X148710807Y-58465728D01*
X148717393Y-58425292D01*
X148751974Y-58212955D01*
X148752725Y-58208344D01*
X148753326Y-58162410D01*
X154743862Y-58162410D01*
X154779028Y-58420804D01*
X154852000Y-58671162D01*
X154961177Y-58907984D01*
X154963737Y-58911889D01*
X154963740Y-58911894D01*
X155101592Y-59122154D01*
X155101596Y-59122159D01*
X155104158Y-59126067D01*
X155277804Y-59320621D01*
X155478300Y-59487371D01*
X155701240Y-59622655D01*
X155705548Y-59624462D01*
X155705549Y-59624462D01*
X155937413Y-59721691D01*
X155937418Y-59721693D01*
X155941728Y-59723500D01*
X155946260Y-59724651D01*
X155946263Y-59724652D01*
X156071765Y-59756525D01*
X156194480Y-59787690D01*
X156411072Y-59809500D01*
X156566206Y-59809500D01*
X156568531Y-59809327D01*
X156568537Y-59809327D01*
X156755407Y-59795440D01*
X156755411Y-59795439D01*
X156760059Y-59795094D01*
X157014405Y-59737542D01*
X157257450Y-59643027D01*
X157261504Y-59640710D01*
X157261508Y-59640708D01*
X157352295Y-59588818D01*
X157483855Y-59513625D01*
X157688647Y-59352180D01*
X157867326Y-59162239D01*
X158015968Y-58947973D01*
X158033760Y-58911894D01*
X158129241Y-58718278D01*
X158129242Y-58718275D01*
X158131306Y-58714090D01*
X158146488Y-58666663D01*
X158209382Y-58470179D01*
X158210807Y-58465728D01*
X158217393Y-58425292D01*
X158251974Y-58212955D01*
X158252725Y-58208344D01*
X158256138Y-57947590D01*
X158220972Y-57689196D01*
X158148000Y-57438838D01*
X158038823Y-57202016D01*
X158036260Y-57198106D01*
X157898408Y-56987846D01*
X157898404Y-56987841D01*
X157895842Y-56983933D01*
X157722196Y-56789379D01*
X157521700Y-56622629D01*
X157298760Y-56487345D01*
X157294451Y-56485538D01*
X157062587Y-56388309D01*
X157062582Y-56388307D01*
X157058272Y-56386500D01*
X157051105Y-56384680D01*
X157050279Y-56384191D01*
X157049307Y-56383866D01*
X157049377Y-56383657D01*
X156990004Y-56348525D01*
X156958149Y-56285075D01*
X156965655Y-56214476D01*
X157010138Y-56159143D01*
X157026689Y-56149406D01*
X157200074Y-56064466D01*
X157208940Y-56059181D01*
X157258998Y-56023474D01*
X157267399Y-56012774D01*
X157260411Y-55999621D01*
X156512812Y-55252022D01*
X156498868Y-55244408D01*
X156497035Y-55244539D01*
X156490420Y-55248790D01*
X155736794Y-56002416D01*
X155730034Y-56014796D01*
X155735315Y-56021850D01*
X155900859Y-56118586D01*
X155910146Y-56123036D01*
X155966378Y-56144509D01*
X156022881Y-56187497D01*
X156047174Y-56254208D01*
X156031544Y-56323463D01*
X155980952Y-56373273D01*
X155967098Y-56379651D01*
X155955424Y-56384191D01*
X155746908Y-56465278D01*
X155746905Y-56465279D01*
X155742550Y-56466973D01*
X155738496Y-56469290D01*
X155738492Y-56469292D01*
X155702669Y-56489767D01*
X155516145Y-56596375D01*
X155311353Y-56757820D01*
X155132674Y-56947761D01*
X154984032Y-57162027D01*
X154981966Y-57166217D01*
X154981964Y-57166220D01*
X154964312Y-57202016D01*
X154868694Y-57395910D01*
X154867272Y-57400353D01*
X154867271Y-57400355D01*
X154836977Y-57494993D01*
X154789193Y-57644272D01*
X154788443Y-57648879D01*
X154788442Y-57648882D01*
X154781122Y-57693827D01*
X154747275Y-57901656D01*
X154743862Y-58162410D01*
X148753326Y-58162410D01*
X148756138Y-57947590D01*
X148720972Y-57689196D01*
X148648000Y-57438838D01*
X148538823Y-57202016D01*
X148536260Y-57198106D01*
X148398408Y-56987846D01*
X148398404Y-56987841D01*
X148395842Y-56983933D01*
X148222196Y-56789379D01*
X148021700Y-56622629D01*
X147798760Y-56487345D01*
X147794451Y-56485538D01*
X147562587Y-56388309D01*
X147562582Y-56388307D01*
X147558272Y-56386500D01*
X147551105Y-56384680D01*
X147550279Y-56384191D01*
X147549307Y-56383866D01*
X147549377Y-56383657D01*
X147490004Y-56348525D01*
X147458149Y-56285075D01*
X147465655Y-56214476D01*
X147510138Y-56159143D01*
X147526689Y-56149406D01*
X147700074Y-56064466D01*
X147708940Y-56059181D01*
X147758998Y-56023474D01*
X147767399Y-56012774D01*
X147760411Y-55999621D01*
X147012812Y-55252022D01*
X146998868Y-55244408D01*
X146997035Y-55244539D01*
X146990420Y-55248790D01*
X146236794Y-56002416D01*
X146230034Y-56014796D01*
X146235315Y-56021850D01*
X146400859Y-56118586D01*
X146410146Y-56123036D01*
X146466378Y-56144509D01*
X146522881Y-56187497D01*
X146547174Y-56254208D01*
X146531544Y-56323463D01*
X146480952Y-56373273D01*
X146467098Y-56379651D01*
X146455424Y-56384191D01*
X146246908Y-56465278D01*
X146246905Y-56465279D01*
X146242550Y-56466973D01*
X146238496Y-56469290D01*
X146238492Y-56469292D01*
X146202669Y-56489767D01*
X146016145Y-56596375D01*
X145811353Y-56757820D01*
X145632674Y-56947761D01*
X145484032Y-57162027D01*
X145481966Y-57166217D01*
X145481964Y-57166220D01*
X145464312Y-57202016D01*
X145368694Y-57395910D01*
X145367272Y-57400353D01*
X145367271Y-57400355D01*
X145336977Y-57494993D01*
X145289193Y-57644272D01*
X145288443Y-57648879D01*
X145288442Y-57648882D01*
X145281122Y-57693827D01*
X145247275Y-57901656D01*
X145243862Y-58162410D01*
X142754000Y-58162410D01*
X142754000Y-54851530D01*
X145624407Y-54851530D01*
X145636795Y-55066375D01*
X145638231Y-55076596D01*
X145685542Y-55286528D01*
X145688621Y-55296356D01*
X145769586Y-55495748D01*
X145774239Y-55504959D01*
X145856569Y-55639308D01*
X145867027Y-55648770D01*
X145875803Y-55644987D01*
X146627978Y-54892812D01*
X146634356Y-54881132D01*
X147364408Y-54881132D01*
X147364539Y-54882965D01*
X147368790Y-54889580D01*
X148120219Y-55641009D01*
X148132230Y-55647568D01*
X148143969Y-55638600D01*
X148176699Y-55593050D01*
X148182014Y-55584205D01*
X148277358Y-55391292D01*
X148281156Y-55381699D01*
X148343715Y-55175793D01*
X148345893Y-55165720D01*
X148374221Y-54950550D01*
X148374740Y-54943882D01*
X148376219Y-54883365D01*
X148376025Y-54876646D01*
X148373960Y-54851530D01*
X155124407Y-54851530D01*
X155136795Y-55066375D01*
X155138231Y-55076596D01*
X155185542Y-55286528D01*
X155188621Y-55296356D01*
X155269586Y-55495748D01*
X155274239Y-55504959D01*
X155356569Y-55639308D01*
X155367027Y-55648770D01*
X155375803Y-55644987D01*
X156127978Y-54892812D01*
X156134356Y-54881132D01*
X156864408Y-54881132D01*
X156864539Y-54882965D01*
X156868790Y-54889580D01*
X157620219Y-55641009D01*
X157632230Y-55647568D01*
X157643969Y-55638600D01*
X157676699Y-55593050D01*
X157682014Y-55584205D01*
X157777358Y-55391292D01*
X157781156Y-55381699D01*
X157843715Y-55175793D01*
X157845893Y-55165720D01*
X157874221Y-54950550D01*
X157874740Y-54943882D01*
X157876219Y-54883365D01*
X157876025Y-54876646D01*
X157858244Y-54660375D01*
X157856559Y-54650195D01*
X157804133Y-54441477D01*
X157800813Y-54431726D01*
X157714999Y-54234365D01*
X157710133Y-54225290D01*
X157642899Y-54121364D01*
X157632212Y-54112160D01*
X157622647Y-54116563D01*
X156872022Y-54867188D01*
X156864408Y-54881132D01*
X156134356Y-54881132D01*
X156135592Y-54878868D01*
X156135461Y-54877035D01*
X156131210Y-54870420D01*
X155380062Y-54119272D01*
X155368526Y-54112972D01*
X155356243Y-54122595D01*
X155306225Y-54195918D01*
X155301137Y-54204874D01*
X155210530Y-54400071D01*
X155206967Y-54409758D01*
X155149459Y-54617124D01*
X155147528Y-54627244D01*
X155124659Y-54841241D01*
X155124407Y-54851530D01*
X148373960Y-54851530D01*
X148358244Y-54660375D01*
X148356559Y-54650195D01*
X148304133Y-54441477D01*
X148300813Y-54431726D01*
X148214999Y-54234365D01*
X148210133Y-54225290D01*
X148142899Y-54121364D01*
X148132212Y-54112160D01*
X148122647Y-54116563D01*
X147372022Y-54867188D01*
X147364408Y-54881132D01*
X146634356Y-54881132D01*
X146635592Y-54878868D01*
X146635461Y-54877035D01*
X146631210Y-54870420D01*
X145880062Y-54119272D01*
X145868526Y-54112972D01*
X145856243Y-54122595D01*
X145806225Y-54195918D01*
X145801137Y-54204874D01*
X145710530Y-54400071D01*
X145706967Y-54409758D01*
X145649459Y-54617124D01*
X145647528Y-54627244D01*
X145624659Y-54841241D01*
X145624407Y-54851530D01*
X142754000Y-54851530D01*
X142754000Y-53474796D01*
X146230034Y-53474796D01*
X146235315Y-53481850D01*
X146265031Y-53499215D01*
X146313755Y-53550853D01*
X146326826Y-53620636D01*
X146300095Y-53686408D01*
X146268602Y-53714624D01*
X146262469Y-53718486D01*
X146239960Y-53735386D01*
X146231507Y-53746711D01*
X146238251Y-53759041D01*
X146987188Y-54507978D01*
X147001132Y-54515592D01*
X147002965Y-54515461D01*
X147009580Y-54511210D01*
X147763073Y-53757717D01*
X147770093Y-53744861D01*
X147762916Y-53735011D01*
X147757110Y-53731154D01*
X147737596Y-53720381D01*
X147687626Y-53669947D01*
X147672855Y-53600504D01*
X147693926Y-53544796D01*
X150980034Y-53544796D01*
X150985315Y-53551850D01*
X151150859Y-53648586D01*
X151160146Y-53653036D01*
X151361193Y-53729808D01*
X151371091Y-53732684D01*
X151581979Y-53775589D01*
X151592208Y-53776808D01*
X151807269Y-53784695D01*
X151817555Y-53784228D01*
X152031022Y-53756883D01*
X152041099Y-53754741D01*
X152247225Y-53692900D01*
X152256832Y-53689134D01*
X152450074Y-53594466D01*
X152458940Y-53589181D01*
X152508998Y-53553474D01*
X152517399Y-53542774D01*
X152510411Y-53529621D01*
X152455586Y-53474796D01*
X155730034Y-53474796D01*
X155735315Y-53481850D01*
X155765031Y-53499215D01*
X155813755Y-53550853D01*
X155826826Y-53620636D01*
X155800095Y-53686408D01*
X155768602Y-53714624D01*
X155762469Y-53718486D01*
X155739960Y-53735386D01*
X155731507Y-53746711D01*
X155738251Y-53759041D01*
X156487188Y-54507978D01*
X156501132Y-54515592D01*
X156502965Y-54515461D01*
X156509580Y-54511210D01*
X157263073Y-53757717D01*
X157270093Y-53744861D01*
X157262916Y-53735011D01*
X157257110Y-53731154D01*
X157237596Y-53720381D01*
X157187626Y-53669947D01*
X157172855Y-53600504D01*
X157197972Y-53534099D01*
X157225322Y-53507495D01*
X157258998Y-53483474D01*
X157267399Y-53472774D01*
X157260411Y-53459621D01*
X156512812Y-52712022D01*
X156498868Y-52704408D01*
X156497035Y-52704539D01*
X156490420Y-52708790D01*
X155736794Y-53462416D01*
X155730034Y-53474796D01*
X152455586Y-53474796D01*
X151762812Y-52782022D01*
X151748868Y-52774408D01*
X151747035Y-52774539D01*
X151740420Y-52778790D01*
X150986794Y-53532416D01*
X150980034Y-53544796D01*
X147693926Y-53544796D01*
X147697972Y-53534099D01*
X147725322Y-53507495D01*
X147758998Y-53483474D01*
X147767399Y-53472774D01*
X147760411Y-53459621D01*
X147012812Y-52712022D01*
X146998868Y-52704408D01*
X146997035Y-52704539D01*
X146990420Y-52708790D01*
X146236794Y-53462416D01*
X146230034Y-53474796D01*
X142754000Y-53474796D01*
X142754000Y-52311530D01*
X145624407Y-52311530D01*
X145636795Y-52526375D01*
X145638231Y-52536596D01*
X145685542Y-52746528D01*
X145688621Y-52756356D01*
X145769586Y-52955748D01*
X145774239Y-52964959D01*
X145856569Y-53099308D01*
X145867027Y-53108770D01*
X145875803Y-53104987D01*
X146627978Y-52352812D01*
X146634356Y-52341132D01*
X147364408Y-52341132D01*
X147364539Y-52342965D01*
X147368790Y-52349580D01*
X148120219Y-53101009D01*
X148132230Y-53107568D01*
X148143969Y-53098600D01*
X148176699Y-53053050D01*
X148182014Y-53044205D01*
X148277358Y-52851292D01*
X148281156Y-52841699D01*
X148343715Y-52635793D01*
X148345893Y-52625720D01*
X148374221Y-52410550D01*
X148374740Y-52403882D01*
X148375286Y-52381530D01*
X150374407Y-52381530D01*
X150386795Y-52596375D01*
X150388231Y-52606596D01*
X150435542Y-52816528D01*
X150438621Y-52826356D01*
X150519586Y-53025748D01*
X150524239Y-53034959D01*
X150606569Y-53169308D01*
X150617027Y-53178770D01*
X150625803Y-53174987D01*
X151377978Y-52422812D01*
X151384356Y-52411132D01*
X152114408Y-52411132D01*
X152114539Y-52412965D01*
X152118790Y-52419580D01*
X152870219Y-53171009D01*
X152882230Y-53177568D01*
X152893969Y-53168600D01*
X152926699Y-53123050D01*
X152932014Y-53114205D01*
X153027358Y-52921292D01*
X153031156Y-52911699D01*
X153093715Y-52705793D01*
X153095893Y-52695720D01*
X153124221Y-52480550D01*
X153124740Y-52473882D01*
X153126219Y-52413365D01*
X153126025Y-52406646D01*
X153118205Y-52311530D01*
X155124407Y-52311530D01*
X155136795Y-52526375D01*
X155138231Y-52536596D01*
X155185542Y-52746528D01*
X155188621Y-52756356D01*
X155269586Y-52955748D01*
X155274239Y-52964959D01*
X155356569Y-53099308D01*
X155367027Y-53108770D01*
X155375803Y-53104987D01*
X156127978Y-52352812D01*
X156134356Y-52341132D01*
X156864408Y-52341132D01*
X156864539Y-52342965D01*
X156868790Y-52349580D01*
X157620219Y-53101009D01*
X157632230Y-53107568D01*
X157643969Y-53098600D01*
X157676699Y-53053050D01*
X157682014Y-53044205D01*
X157777358Y-52851292D01*
X157781156Y-52841699D01*
X157843715Y-52635793D01*
X157845893Y-52625720D01*
X157874221Y-52410550D01*
X157874740Y-52403882D01*
X157876219Y-52343365D01*
X157876025Y-52336646D01*
X157858244Y-52120375D01*
X157856559Y-52110195D01*
X157804133Y-51901477D01*
X157800813Y-51891726D01*
X157714999Y-51694365D01*
X157710133Y-51685290D01*
X157642899Y-51581364D01*
X157632212Y-51572160D01*
X157622647Y-51576563D01*
X156872022Y-52327188D01*
X156864408Y-52341132D01*
X156134356Y-52341132D01*
X156135592Y-52338868D01*
X156135461Y-52337035D01*
X156131210Y-52330420D01*
X155380062Y-51579272D01*
X155368526Y-51572972D01*
X155356243Y-51582595D01*
X155306225Y-51655918D01*
X155301137Y-51664874D01*
X155210530Y-51860071D01*
X155206967Y-51869758D01*
X155149459Y-52077124D01*
X155147528Y-52087244D01*
X155124659Y-52301241D01*
X155124407Y-52311530D01*
X153118205Y-52311530D01*
X153108244Y-52190375D01*
X153106559Y-52180195D01*
X153054133Y-51971477D01*
X153050813Y-51961726D01*
X152964999Y-51764365D01*
X152960133Y-51755290D01*
X152892899Y-51651364D01*
X152882212Y-51642160D01*
X152872647Y-51646563D01*
X152122022Y-52397188D01*
X152114408Y-52411132D01*
X151384356Y-52411132D01*
X151385592Y-52408868D01*
X151385461Y-52407035D01*
X151381210Y-52400420D01*
X150630062Y-51649272D01*
X150618526Y-51642972D01*
X150606243Y-51652595D01*
X150556225Y-51725918D01*
X150551137Y-51734874D01*
X150460530Y-51930071D01*
X150456967Y-51939758D01*
X150399459Y-52147124D01*
X150397528Y-52157244D01*
X150374659Y-52371241D01*
X150374407Y-52381530D01*
X148375286Y-52381530D01*
X148376219Y-52343365D01*
X148376025Y-52336646D01*
X148358244Y-52120375D01*
X148356559Y-52110195D01*
X148304133Y-51901477D01*
X148300813Y-51891726D01*
X148214999Y-51694365D01*
X148210133Y-51685290D01*
X148142899Y-51581364D01*
X148132212Y-51572160D01*
X148122647Y-51576563D01*
X147372022Y-52327188D01*
X147364408Y-52341132D01*
X146634356Y-52341132D01*
X146635592Y-52338868D01*
X146635461Y-52337035D01*
X146631210Y-52330420D01*
X145880062Y-51579272D01*
X145868526Y-51572972D01*
X145856243Y-51582595D01*
X145806225Y-51655918D01*
X145801137Y-51664874D01*
X145710530Y-51860071D01*
X145706967Y-51869758D01*
X145649459Y-52077124D01*
X145647528Y-52087244D01*
X145624659Y-52301241D01*
X145624407Y-52311530D01*
X142754000Y-52311530D01*
X142754000Y-51206711D01*
X146231507Y-51206711D01*
X146238251Y-51219041D01*
X146987188Y-51967978D01*
X147001132Y-51975592D01*
X147002965Y-51975461D01*
X147009580Y-51971210D01*
X147763073Y-51217717D01*
X147770093Y-51204861D01*
X147762916Y-51195011D01*
X147757106Y-51191151D01*
X147568711Y-51087151D01*
X147559299Y-51082921D01*
X147356445Y-51011086D01*
X147346474Y-51008452D01*
X147325949Y-51004796D01*
X150980034Y-51004796D01*
X150985315Y-51011850D01*
X151015031Y-51029215D01*
X151063755Y-51080853D01*
X151076826Y-51150636D01*
X151050095Y-51216408D01*
X151018602Y-51244624D01*
X151012469Y-51248486D01*
X150989960Y-51265386D01*
X150981507Y-51276711D01*
X150988251Y-51289041D01*
X151737188Y-52037978D01*
X151751132Y-52045592D01*
X151752965Y-52045461D01*
X151759580Y-52041210D01*
X152513073Y-51287717D01*
X152520093Y-51274861D01*
X152512916Y-51265011D01*
X152507110Y-51261154D01*
X152487596Y-51250381D01*
X152444328Y-51206711D01*
X155731507Y-51206711D01*
X155738251Y-51219041D01*
X156487188Y-51967978D01*
X156501132Y-51975592D01*
X156502965Y-51975461D01*
X156509580Y-51971210D01*
X157263073Y-51217717D01*
X157270093Y-51204861D01*
X157262916Y-51195011D01*
X157257106Y-51191151D01*
X157068711Y-51087151D01*
X157059299Y-51082921D01*
X156856445Y-51011086D01*
X156846474Y-51008452D01*
X156634610Y-50970713D01*
X156624358Y-50969744D01*
X156409164Y-50967115D01*
X156398880Y-50967835D01*
X156186158Y-51000386D01*
X156176130Y-51002775D01*
X155971576Y-51069633D01*
X155962079Y-51073625D01*
X155771191Y-51172994D01*
X155762463Y-51178491D01*
X155739960Y-51195386D01*
X155731507Y-51206711D01*
X152444328Y-51206711D01*
X152437626Y-51199947D01*
X152422855Y-51130504D01*
X152447972Y-51064099D01*
X152475322Y-51037495D01*
X152508998Y-51013474D01*
X152517399Y-51002774D01*
X152510411Y-50989621D01*
X151762812Y-50242022D01*
X151748868Y-50234408D01*
X151747035Y-50234539D01*
X151740420Y-50238790D01*
X150986794Y-50992416D01*
X150980034Y-51004796D01*
X147325949Y-51004796D01*
X147134610Y-50970713D01*
X147124358Y-50969744D01*
X146909164Y-50967115D01*
X146898880Y-50967835D01*
X146686158Y-51000386D01*
X146676130Y-51002775D01*
X146471576Y-51069633D01*
X146462079Y-51073625D01*
X146271191Y-51172994D01*
X146262463Y-51178491D01*
X146239960Y-51195386D01*
X146231507Y-51206711D01*
X142754000Y-51206711D01*
X142754000Y-49841530D01*
X150374407Y-49841530D01*
X150386795Y-50056375D01*
X150388231Y-50066596D01*
X150435542Y-50276528D01*
X150438621Y-50286356D01*
X150519586Y-50485748D01*
X150524239Y-50494959D01*
X150606569Y-50629308D01*
X150617027Y-50638770D01*
X150625803Y-50634987D01*
X151377978Y-49882812D01*
X151384356Y-49871132D01*
X152114408Y-49871132D01*
X152114539Y-49872965D01*
X152118790Y-49879580D01*
X152870219Y-50631009D01*
X152882230Y-50637568D01*
X152893969Y-50628600D01*
X152926699Y-50583050D01*
X152932014Y-50574205D01*
X153027358Y-50381292D01*
X153031156Y-50371699D01*
X153093715Y-50165793D01*
X153095893Y-50155720D01*
X153124221Y-49940550D01*
X153124740Y-49933882D01*
X153126219Y-49873365D01*
X153126025Y-49866646D01*
X153108244Y-49650375D01*
X153106559Y-49640195D01*
X153054133Y-49431477D01*
X153050813Y-49421726D01*
X152964999Y-49224365D01*
X152960133Y-49215290D01*
X152892899Y-49111364D01*
X152882212Y-49102160D01*
X152872647Y-49106563D01*
X152122022Y-49857188D01*
X152114408Y-49871132D01*
X151384356Y-49871132D01*
X151385592Y-49868868D01*
X151385461Y-49867035D01*
X151381210Y-49860420D01*
X150630062Y-49109272D01*
X150618526Y-49102972D01*
X150606243Y-49112595D01*
X150556225Y-49185918D01*
X150551137Y-49194874D01*
X150460530Y-49390071D01*
X150456967Y-49399758D01*
X150399459Y-49607124D01*
X150397528Y-49617244D01*
X150374659Y-49831241D01*
X150374407Y-49841530D01*
X142754000Y-49841530D01*
X142754000Y-46802410D01*
X149993862Y-46802410D01*
X150029028Y-47060804D01*
X150102000Y-47311162D01*
X150211177Y-47547984D01*
X150213737Y-47551889D01*
X150213740Y-47551894D01*
X150351592Y-47762154D01*
X150351596Y-47762159D01*
X150354158Y-47766067D01*
X150527804Y-47960621D01*
X150728300Y-48127371D01*
X150951240Y-48262655D01*
X150955548Y-48264462D01*
X150955549Y-48264462D01*
X151187413Y-48361691D01*
X151187418Y-48361693D01*
X151191728Y-48363500D01*
X151196261Y-48364651D01*
X151200693Y-48366134D01*
X151200356Y-48367142D01*
X151257158Y-48400760D01*
X151289008Y-48464211D01*
X151281497Y-48534809D01*
X151237011Y-48590140D01*
X151213853Y-48602880D01*
X151212071Y-48603629D01*
X151021191Y-48702994D01*
X151012463Y-48708491D01*
X150989960Y-48725386D01*
X150981507Y-48736711D01*
X150988251Y-48749041D01*
X151737188Y-49497978D01*
X151751132Y-49505592D01*
X151752965Y-49505461D01*
X151759580Y-49501210D01*
X152513073Y-48747717D01*
X152520093Y-48734861D01*
X152512916Y-48725011D01*
X152507106Y-48721151D01*
X152318711Y-48617151D01*
X152309292Y-48612918D01*
X152288805Y-48605663D01*
X152231268Y-48564070D01*
X152205351Y-48497973D01*
X152219284Y-48428357D01*
X152268642Y-48377325D01*
X152285196Y-48369457D01*
X152503091Y-48284722D01*
X152507450Y-48283027D01*
X152511504Y-48280710D01*
X152511508Y-48280708D01*
X152637031Y-48208965D01*
X152733855Y-48153625D01*
X152938647Y-47992180D01*
X153117326Y-47802239D01*
X153248719Y-47612837D01*
X153259036Y-47597966D01*
X157418257Y-47597966D01*
X157448565Y-47732446D01*
X157451645Y-47742275D01*
X157531770Y-47939603D01*
X157536413Y-47948794D01*
X157647694Y-48130388D01*
X157653777Y-48138699D01*
X157793213Y-48299667D01*
X157800580Y-48306883D01*
X157964434Y-48442916D01*
X157972881Y-48448831D01*
X158156756Y-48556279D01*
X158166042Y-48560729D01*
X158315124Y-48617657D01*
X158371627Y-48660644D01*
X158395920Y-48727355D01*
X158380290Y-48796610D01*
X158329699Y-48846421D01*
X158313785Y-48853579D01*
X158272463Y-48868824D01*
X158098010Y-48972612D01*
X158093670Y-48976418D01*
X158093666Y-48976421D01*
X158073723Y-48993911D01*
X157945392Y-49106455D01*
X157819720Y-49265869D01*
X157817031Y-49270980D01*
X157817029Y-49270983D01*
X157804073Y-49295609D01*
X157725203Y-49445515D01*
X157665007Y-49639378D01*
X157641148Y-49840964D01*
X157654424Y-50043522D01*
X157655845Y-50049118D01*
X157655846Y-50049123D01*
X157676119Y-50128945D01*
X157704392Y-50240269D01*
X157706809Y-50245512D01*
X157744010Y-50326208D01*
X157789377Y-50424616D01*
X157906533Y-50590389D01*
X157910675Y-50594424D01*
X157954964Y-50637568D01*
X158051938Y-50732035D01*
X158220720Y-50844812D01*
X158226023Y-50847090D01*
X158226026Y-50847092D01*
X158314707Y-50885192D01*
X158407228Y-50924942D01*
X158480244Y-50941464D01*
X158599579Y-50968467D01*
X158599584Y-50968468D01*
X158605216Y-50969742D01*
X158610987Y-50969969D01*
X158610989Y-50969969D01*
X158670756Y-50972317D01*
X158808053Y-50977712D01*
X158908499Y-50963148D01*
X159003231Y-50949413D01*
X159003236Y-50949412D01*
X159008945Y-50948584D01*
X159014409Y-50946729D01*
X159014414Y-50946728D01*
X159195693Y-50885192D01*
X159195698Y-50885190D01*
X159201165Y-50883334D01*
X159378276Y-50784147D01*
X159440934Y-50732035D01*
X159529913Y-50658031D01*
X159534345Y-50654345D01*
X159664147Y-50498276D01*
X159763334Y-50321165D01*
X159765190Y-50315698D01*
X159765192Y-50315693D01*
X159826728Y-50134414D01*
X159826729Y-50134409D01*
X159828584Y-50128945D01*
X159829412Y-50123236D01*
X159829413Y-50123231D01*
X159857179Y-49931727D01*
X159857712Y-49928053D01*
X159859232Y-49870000D01*
X159840658Y-49667859D01*
X159835727Y-49650375D01*
X159787125Y-49478046D01*
X159787124Y-49478044D01*
X159785557Y-49472487D01*
X159774978Y-49451033D01*
X159698331Y-49295609D01*
X159695776Y-49290428D01*
X159574320Y-49127779D01*
X159425258Y-48989987D01*
X159420375Y-48986906D01*
X159420371Y-48986903D01*
X159258464Y-48884748D01*
X159253581Y-48881667D01*
X159181614Y-48852955D01*
X159125755Y-48809134D01*
X159102455Y-48742069D01*
X159119111Y-48673054D01*
X159170436Y-48624000D01*
X159192098Y-48615239D01*
X159242252Y-48600192D01*
X159251842Y-48596433D01*
X159443095Y-48502739D01*
X159451945Y-48497464D01*
X159625328Y-48373792D01*
X159633200Y-48367139D01*
X159784052Y-48216812D01*
X159790730Y-48208965D01*
X159915003Y-48036020D01*
X159920313Y-48027183D01*
X160014670Y-47836267D01*
X160018469Y-47826672D01*
X160080377Y-47622910D01*
X160082555Y-47612837D01*
X160083986Y-47601962D01*
X160081775Y-47587778D01*
X160068617Y-47584000D01*
X157433225Y-47584000D01*
X157419694Y-47587973D01*
X157418257Y-47597966D01*
X153259036Y-47597966D01*
X153263303Y-47591815D01*
X153263305Y-47591812D01*
X153265968Y-47587973D01*
X153283760Y-47551894D01*
X153379241Y-47358278D01*
X153379242Y-47358275D01*
X153381306Y-47354090D01*
X153396488Y-47306663D01*
X153459382Y-47110179D01*
X153460807Y-47105728D01*
X153466378Y-47071525D01*
X153467574Y-47064183D01*
X157414389Y-47064183D01*
X157415912Y-47072607D01*
X157428292Y-47076000D01*
X158477885Y-47076000D01*
X158493124Y-47071525D01*
X158494329Y-47070135D01*
X158496000Y-47062452D01*
X158496000Y-47057885D01*
X159004000Y-47057885D01*
X159008475Y-47073124D01*
X159009865Y-47074329D01*
X159017548Y-47076000D01*
X160068344Y-47076000D01*
X160081875Y-47072027D01*
X160083180Y-47062947D01*
X160041214Y-46895875D01*
X160037894Y-46886124D01*
X159952972Y-46690814D01*
X159948105Y-46681739D01*
X159832426Y-46502926D01*
X159826136Y-46494757D01*
X159682806Y-46337240D01*
X159675273Y-46330215D01*
X159508139Y-46198222D01*
X159499552Y-46192517D01*
X159462116Y-46171851D01*
X159412146Y-46121419D01*
X159397374Y-46051976D01*
X159422490Y-45985571D01*
X159449842Y-45958964D01*
X159625327Y-45833792D01*
X159633200Y-45827139D01*
X159784052Y-45676812D01*
X159790730Y-45668965D01*
X159915003Y-45496020D01*
X159920313Y-45487183D01*
X160014670Y-45296267D01*
X160018469Y-45286672D01*
X160080377Y-45082910D01*
X160082555Y-45072837D01*
X160083986Y-45061962D01*
X160081775Y-45047778D01*
X160068617Y-45044000D01*
X159022115Y-45044000D01*
X159006876Y-45048475D01*
X159005671Y-45049865D01*
X159004000Y-45057548D01*
X159004000Y-47057885D01*
X158496000Y-47057885D01*
X158496000Y-45062115D01*
X158491525Y-45046876D01*
X158490135Y-45045671D01*
X158482452Y-45044000D01*
X157433225Y-45044000D01*
X157419694Y-45047973D01*
X157418257Y-45057966D01*
X157448565Y-45192446D01*
X157451645Y-45202275D01*
X157531770Y-45399603D01*
X157536413Y-45408794D01*
X157647694Y-45590388D01*
X157653777Y-45598699D01*
X157793213Y-45759667D01*
X157800580Y-45766883D01*
X157964434Y-45902916D01*
X157972881Y-45908831D01*
X158042479Y-45949501D01*
X158091203Y-46001140D01*
X158104274Y-46070923D01*
X158077543Y-46136694D01*
X158037087Y-46170053D01*
X158028462Y-46174542D01*
X158019738Y-46180036D01*
X157849433Y-46307905D01*
X157841726Y-46314748D01*
X157694590Y-46468717D01*
X157688104Y-46476727D01*
X157568098Y-46652649D01*
X157563000Y-46661623D01*
X157473338Y-46854783D01*
X157469775Y-46864470D01*
X157414389Y-47064183D01*
X153467574Y-47064183D01*
X153501974Y-46852955D01*
X153502725Y-46848344D01*
X153505169Y-46661623D01*
X153506077Y-46592267D01*
X153506077Y-46592264D01*
X153506138Y-46587590D01*
X153470972Y-46329196D01*
X153398000Y-46078838D01*
X153288823Y-45842016D01*
X153286260Y-45838106D01*
X153148408Y-45627846D01*
X153148404Y-45627841D01*
X153145842Y-45623933D01*
X152972196Y-45429379D01*
X152771700Y-45262629D01*
X152548760Y-45127345D01*
X152544451Y-45125538D01*
X152312587Y-45028309D01*
X152312582Y-45028307D01*
X152308272Y-45026500D01*
X152303740Y-45025349D01*
X152303737Y-45025348D01*
X152178235Y-44993475D01*
X152055520Y-44962310D01*
X151838928Y-44940500D01*
X151683794Y-44940500D01*
X151681469Y-44940673D01*
X151681463Y-44940673D01*
X151494593Y-44954560D01*
X151494589Y-44954561D01*
X151489941Y-44954906D01*
X151235595Y-45012458D01*
X150992550Y-45106973D01*
X150988496Y-45109290D01*
X150988492Y-45109292D01*
X150952669Y-45129767D01*
X150766145Y-45236375D01*
X150561353Y-45397820D01*
X150382674Y-45587761D01*
X150234032Y-45802027D01*
X150231966Y-45806217D01*
X150231964Y-45806220D01*
X150135841Y-46001140D01*
X150118694Y-46035910D01*
X150117272Y-46040353D01*
X150117271Y-46040355D01*
X150091322Y-46121419D01*
X150039193Y-46284272D01*
X150038443Y-46288879D01*
X150038442Y-46288882D01*
X150009154Y-46468717D01*
X149997275Y-46541656D01*
X149993862Y-46802410D01*
X142754000Y-46802410D01*
X142754000Y-44524183D01*
X157414389Y-44524183D01*
X157415912Y-44532607D01*
X157428292Y-44536000D01*
X160068344Y-44536000D01*
X160081875Y-44532027D01*
X160083180Y-44522947D01*
X160041214Y-44355875D01*
X160037894Y-44346124D01*
X159952972Y-44150814D01*
X159948105Y-44141739D01*
X159832426Y-43962926D01*
X159826136Y-43954757D01*
X159682806Y-43797240D01*
X159675273Y-43790215D01*
X159508139Y-43658222D01*
X159499552Y-43652517D01*
X159387765Y-43590807D01*
X159337795Y-43540375D01*
X159323023Y-43470932D01*
X159348139Y-43404527D01*
X159405170Y-43362242D01*
X159448658Y-43354499D01*
X159625066Y-43354499D01*
X159660818Y-43347388D01*
X159687126Y-43342156D01*
X159687128Y-43342155D01*
X159699301Y-43339734D01*
X159709621Y-43332839D01*
X159709622Y-43332838D01*
X159773168Y-43290377D01*
X159783484Y-43283484D01*
X159839734Y-43199301D01*
X159854500Y-43125067D01*
X159854499Y-41374934D01*
X159839734Y-41300699D01*
X159783484Y-41216516D01*
X159699301Y-41160266D01*
X159625067Y-41145500D01*
X158750142Y-41145500D01*
X157874934Y-41145501D01*
X157839182Y-41152612D01*
X157812874Y-41157844D01*
X157812872Y-41157845D01*
X157800699Y-41160266D01*
X157790379Y-41167161D01*
X157790378Y-41167162D01*
X157781116Y-41173351D01*
X157716516Y-41216516D01*
X157660266Y-41300699D01*
X157645500Y-41374933D01*
X157645501Y-43125066D01*
X157660266Y-43199301D01*
X157716516Y-43283484D01*
X157800699Y-43339734D01*
X157874933Y-43354500D01*
X158051500Y-43354500D01*
X158119621Y-43374502D01*
X158166114Y-43428158D01*
X158176218Y-43498432D01*
X158146724Y-43563012D01*
X158109681Y-43592263D01*
X158028458Y-43634545D01*
X158019738Y-43640036D01*
X157849433Y-43767905D01*
X157841726Y-43774748D01*
X157694590Y-43928717D01*
X157688104Y-43936727D01*
X157568098Y-44112649D01*
X157563000Y-44121623D01*
X157473338Y-44314783D01*
X157469775Y-44324470D01*
X157414389Y-44524183D01*
X142754000Y-44524183D01*
X142754000Y-42220606D01*
X150627495Y-42220606D01*
X150640935Y-42425659D01*
X150691517Y-42624828D01*
X150777549Y-42811445D01*
X150896148Y-42979259D01*
X151043342Y-43122649D01*
X151048138Y-43125854D01*
X151048141Y-43125856D01*
X151126523Y-43178229D01*
X151214203Y-43236815D01*
X151219506Y-43239093D01*
X151219509Y-43239095D01*
X151309293Y-43277669D01*
X151403008Y-43317932D01*
X151603433Y-43363284D01*
X151609202Y-43363511D01*
X151609205Y-43363511D01*
X151686697Y-43366555D01*
X151808768Y-43371351D01*
X151910451Y-43356607D01*
X152006419Y-43342693D01*
X152006424Y-43342692D01*
X152012133Y-43341864D01*
X152017597Y-43340009D01*
X152017602Y-43340008D01*
X152201249Y-43277669D01*
X152201254Y-43277667D01*
X152206721Y-43275811D01*
X152386012Y-43175403D01*
X152544003Y-43044003D01*
X152675403Y-42886012D01*
X152775811Y-42706721D01*
X152777667Y-42701254D01*
X152777669Y-42701249D01*
X152840008Y-42517602D01*
X152840009Y-42517597D01*
X152841864Y-42512133D01*
X152854403Y-42425659D01*
X152870818Y-42312442D01*
X152871351Y-42308768D01*
X152872890Y-42250000D01*
X152854087Y-42045370D01*
X152844400Y-42011021D01*
X152799878Y-41853157D01*
X152799876Y-41853152D01*
X152798308Y-41847592D01*
X152707421Y-41663292D01*
X152584470Y-41498640D01*
X152444081Y-41368865D01*
X152437812Y-41363070D01*
X152437809Y-41363068D01*
X152433572Y-41359151D01*
X152360224Y-41312872D01*
X152264665Y-41252579D01*
X152264660Y-41252577D01*
X152259781Y-41249498D01*
X152068918Y-41173351D01*
X151867374Y-41133261D01*
X151861599Y-41133185D01*
X151861595Y-41133185D01*
X151760796Y-41131866D01*
X151661899Y-41130571D01*
X151459375Y-41165372D01*
X151453958Y-41167370D01*
X151453952Y-41167372D01*
X151339426Y-41209623D01*
X151266583Y-41236496D01*
X151248326Y-41247358D01*
X151094950Y-41338607D01*
X151094947Y-41338609D01*
X151089982Y-41341563D01*
X150935484Y-41477054D01*
X150808265Y-41638430D01*
X150712585Y-41820289D01*
X150651648Y-42016538D01*
X150627495Y-42220606D01*
X142754000Y-42220606D01*
X142754000Y-40380000D01*
X142774002Y-40311879D01*
X142827658Y-40265386D01*
X142880000Y-40254000D01*
X160620000Y-40254000D01*
X160688121Y-40274002D01*
G37*
G04 #@! TD.AperFunction*
M02*
