M48
; DRILL file {KiCad (6.0.0)} date Sun Jan 30 15:01:05 2022
; FORMAT={-:-/ absolute / metric / decimal}
; #@! TF.CreationDate,2022-01-30T15:01:05+09:00
; #@! TF.GenerationSoftware,Kicad,Pcbnew,(6.0.0)
; #@! TF.FileFunction,MixedPlating,1,2
FMAT,2
METRIC
; #@! TA.AperFunction,Plated,PTH,ViaDrill
T1C0.381
; #@! TA.AperFunction,Plated,PTH,ComponentDrill
T2C0.800
; #@! TA.AperFunction,Plated,PTH,ComponentDrill
T3C1.000
; #@! TA.AperFunction,Plated,PTH,ComponentDrill
T4C1.016
; #@! TA.AperFunction,Plated,PTH,ComponentDrill
T5C1.100
; #@! TA.AperFunction,NonPlated,NPTH,ComponentDrill
T6C3.000
%
G90
G05
T1
X124.871Y-92.621
X125.5Y-77.703
X125.5Y-79.481
X125.5Y-86.75
X125.75Y-91.5
X126.5Y-67.75
X128.5Y-111.5
X128.95Y-96.2
X129.0Y-88.25
X130.456Y-98.706
X131.0Y-91.25
X131.5Y-103.86
X131.714Y-99.964
X132.25Y-96.75
X132.5Y-73.75
X132.5Y-107.25
X133.5Y-98.5
X134.5Y-67.0
X134.5Y-78.0
X134.7Y-63.56
X134.75Y-92.0
X135.75Y-59.0
X135.75Y-69.25
X136.0Y-88.25
X136.25Y-71.75
X136.87Y-63.56
X137.25Y-84.75
X138.6Y-105.7
X140.25Y-67.75
X152.5Y-71.25
T2
X124.75Y-65.96
X124.75Y-68.5
X132.35Y-65.96
X132.35Y-68.5
T3
X125.8Y-113.3
X126.71Y-45.75
X126.71Y-48.29
X126.71Y-50.83
X126.71Y-53.37
X126.71Y-55.91
X128.34Y-113.3
X129.25Y-45.75
X129.25Y-48.29
X129.25Y-50.83
X129.25Y-53.37
X129.25Y-55.91
X130.88Y-113.3
X133.42Y-113.3
X135.96Y-113.3
X138.5Y-113.3
X139.0Y-42.25
X139.0Y-44.79
X139.0Y-47.33
X139.0Y-49.87
X145.58Y-113.3
X148.12Y-113.3
X149.25Y-107.5
X149.25Y-110.0
X150.66Y-113.3
X151.75Y-107.5
X151.75Y-110.0
X153.2Y-113.3
X154.25Y-107.5
X154.25Y-110.0
X155.74Y-113.3
X158.28Y-113.3
X158.75Y-42.25
X158.75Y-44.79
X158.75Y-47.33
X158.75Y-49.87
T4
X147.0Y-52.34
X147.0Y-54.88
X147.0Y-62.5
X147.0Y-65.34
X147.0Y-67.88
X147.0Y-75.5
X147.0Y-78.34
X147.0Y-80.88
X147.0Y-88.5
X151.75Y-42.25
X151.75Y-49.87
X151.75Y-52.41
X156.5Y-52.34
X156.5Y-54.88
X156.5Y-62.5
X156.5Y-65.34
X156.5Y-67.88
X156.5Y-75.5
X156.5Y-78.34
X156.5Y-80.88
X156.5Y-88.5
T6
X147.0Y-58.055
X147.0Y-71.055
X147.0Y-84.055
X151.75Y-46.695
X156.5Y-58.055
X156.5Y-71.055
X156.5Y-84.055
T3
G00X125.5Y-124.35
M15
G01X125.5Y-122.85
M16
G05
G00X125.5Y-141.35
M15
G01X125.5Y-139.85
M16
G05
G00X131.75Y-130.6
M15
G01X133.25Y-130.6
M16
G05
G00X131.75Y-147.6
M15
G01X133.25Y-147.6
M16
G05
G00X136.066Y-118.974
M15
G01X137.126Y-120.034
M16
G05
G00X136.066Y-135.974
M15
G01X137.126Y-137.034
M16
G05
T5
G00X147.0Y-100.35
M15
G01X147.0Y-99.65
M16
G05
G00X156.5Y-100.35
M15
G01X156.5Y-99.65
M16
G05
T0
M30
