G04 #@! TF.GenerationSoftware,KiCad,Pcbnew,(6.0.0)*
G04 #@! TF.CreationDate,2022-01-30T15:01:01+09:00*
G04 #@! TF.ProjectId,exits,65786974-732e-46b6-9963-61645f706362,2.1*
G04 #@! TF.SameCoordinates,Original*
G04 #@! TF.FileFunction,Legend,Bot*
G04 #@! TF.FilePolarity,Positive*
%FSLAX46Y46*%
G04 Gerber Fmt 4.6, Leading zero omitted, Abs format (unit mm)*
G04 Created by KiCad (PCBNEW (6.0.0)) date 2022-01-30 15:01:01*
%MOMM*%
%LPD*%
G01*
G04 APERTURE LIST*
%ADD10C,0.150000*%
%ADD11C,0.100000*%
%ADD12C,0.254000*%
%ADD13C,0.120000*%
%ADD14C,0.200000*%
G04 APERTURE END LIST*
D10*
X137814285Y-45871428D02*
X137052380Y-45871428D01*
X136052380Y-46252380D02*
X136623809Y-46252380D01*
X136338095Y-46252380D02*
X136338095Y-45252380D01*
X136433333Y-45395238D01*
X136528571Y-45490476D01*
X136623809Y-45538095D01*
X135671428Y-45347619D02*
X135623809Y-45300000D01*
X135528571Y-45252380D01*
X135290476Y-45252380D01*
X135195238Y-45300000D01*
X135147619Y-45347619D01*
X135100000Y-45442857D01*
X135100000Y-45538095D01*
X135147619Y-45680952D01*
X135719047Y-46252380D01*
X135100000Y-46252380D01*
X134766666Y-45585714D02*
X134528571Y-46252380D01*
X134290476Y-45585714D01*
D11*
X132486428Y-145496904D02*
X132486428Y-145163571D01*
X131962619Y-145020714D02*
X131962619Y-145496904D01*
X132962619Y-145496904D01*
X132962619Y-145020714D01*
X131962619Y-144687380D02*
X132629285Y-144163571D01*
X132629285Y-144687380D02*
X131962619Y-144163571D01*
X131962619Y-143782619D02*
X132629285Y-143782619D01*
X132962619Y-143782619D02*
X132915000Y-143830238D01*
X132867380Y-143782619D01*
X132915000Y-143735000D01*
X132962619Y-143782619D01*
X132867380Y-143782619D01*
X132629285Y-143449285D02*
X132629285Y-143068333D01*
X132962619Y-143306428D02*
X132105476Y-143306428D01*
X132010238Y-143258809D01*
X131962619Y-143163571D01*
X131962619Y-143068333D01*
X132010238Y-142782619D02*
X131962619Y-142687380D01*
X131962619Y-142496904D01*
X132010238Y-142401666D01*
X132105476Y-142354047D01*
X132153095Y-142354047D01*
X132248333Y-142401666D01*
X132295952Y-142496904D01*
X132295952Y-142639761D01*
X132343571Y-142735000D01*
X132438809Y-142782619D01*
X132486428Y-142782619D01*
X132581666Y-142735000D01*
X132629285Y-142639761D01*
X132629285Y-142496904D01*
X132581666Y-142401666D01*
X129409285Y-145068333D02*
X128599761Y-145068333D01*
X128504523Y-145115952D01*
X128456904Y-145163571D01*
X128409285Y-145258809D01*
X128409285Y-145401666D01*
X128456904Y-145496904D01*
X128790238Y-145068333D02*
X128742619Y-145163571D01*
X128742619Y-145354047D01*
X128790238Y-145449285D01*
X128837857Y-145496904D01*
X128933095Y-145544523D01*
X129218809Y-145544523D01*
X129314047Y-145496904D01*
X129361666Y-145449285D01*
X129409285Y-145354047D01*
X129409285Y-145163571D01*
X129361666Y-145068333D01*
X128742619Y-144592142D02*
X129409285Y-144592142D01*
X129742619Y-144592142D02*
X129695000Y-144639761D01*
X129647380Y-144592142D01*
X129695000Y-144544523D01*
X129742619Y-144592142D01*
X129647380Y-144592142D01*
X129409285Y-144258809D02*
X129409285Y-143877857D01*
X129742619Y-144115952D02*
X128885476Y-144115952D01*
X128790238Y-144068333D01*
X128742619Y-143973095D01*
X128742619Y-143877857D01*
X128742619Y-143544523D02*
X129742619Y-143544523D01*
X128742619Y-143115952D02*
X129266428Y-143115952D01*
X129361666Y-143163571D01*
X129409285Y-143258809D01*
X129409285Y-143401666D01*
X129361666Y-143496904D01*
X129314047Y-143544523D01*
X129409285Y-142211190D02*
X128742619Y-142211190D01*
X129409285Y-142639761D02*
X128885476Y-142639761D01*
X128790238Y-142592142D01*
X128742619Y-142496904D01*
X128742619Y-142354047D01*
X128790238Y-142258809D01*
X128837857Y-142211190D01*
X128742619Y-141735000D02*
X129742619Y-141735000D01*
X129361666Y-141735000D02*
X129409285Y-141639761D01*
X129409285Y-141449285D01*
X129361666Y-141354047D01*
X129314047Y-141306428D01*
X129218809Y-141258809D01*
X128933095Y-141258809D01*
X128837857Y-141306428D01*
X128790238Y-141354047D01*
X128742619Y-141449285D01*
X128742619Y-141639761D01*
X128790238Y-141735000D01*
X128837857Y-140830238D02*
X128790238Y-140782619D01*
X128742619Y-140830238D01*
X128790238Y-140877857D01*
X128837857Y-140830238D01*
X128742619Y-140830238D01*
X128790238Y-139925476D02*
X128742619Y-140020714D01*
X128742619Y-140211190D01*
X128790238Y-140306428D01*
X128837857Y-140354047D01*
X128933095Y-140401666D01*
X129218809Y-140401666D01*
X129314047Y-140354047D01*
X129361666Y-140306428D01*
X129409285Y-140211190D01*
X129409285Y-140020714D01*
X129361666Y-139925476D01*
X128742619Y-139354047D02*
X128790238Y-139449285D01*
X128837857Y-139496904D01*
X128933095Y-139544523D01*
X129218809Y-139544523D01*
X129314047Y-139496904D01*
X129361666Y-139449285D01*
X129409285Y-139354047D01*
X129409285Y-139211190D01*
X129361666Y-139115952D01*
X129314047Y-139068333D01*
X129218809Y-139020714D01*
X128933095Y-139020714D01*
X128837857Y-139068333D01*
X128790238Y-139115952D01*
X128742619Y-139211190D01*
X128742619Y-139354047D01*
X128742619Y-138592142D02*
X129409285Y-138592142D01*
X129314047Y-138592142D02*
X129361666Y-138544523D01*
X129409285Y-138449285D01*
X129409285Y-138306428D01*
X129361666Y-138211190D01*
X129266428Y-138163571D01*
X128742619Y-138163571D01*
X129266428Y-138163571D02*
X129361666Y-138115952D01*
X129409285Y-138020714D01*
X129409285Y-137877857D01*
X129361666Y-137782619D01*
X129266428Y-137735000D01*
X128742619Y-137735000D01*
X129790238Y-136544523D02*
X128504523Y-137401666D01*
X128742619Y-136211190D02*
X129409285Y-136211190D01*
X129218809Y-136211190D02*
X129314047Y-136163571D01*
X129361666Y-136115952D01*
X129409285Y-136020714D01*
X129409285Y-135925476D01*
X128742619Y-135163571D02*
X129266428Y-135163571D01*
X129361666Y-135211190D01*
X129409285Y-135306428D01*
X129409285Y-135496904D01*
X129361666Y-135592142D01*
X128790238Y-135163571D02*
X128742619Y-135258809D01*
X128742619Y-135496904D01*
X128790238Y-135592142D01*
X128885476Y-135639761D01*
X128980714Y-135639761D01*
X129075952Y-135592142D01*
X129123571Y-135496904D01*
X129123571Y-135258809D01*
X129171190Y-135163571D01*
X128742619Y-134687380D02*
X129409285Y-134687380D01*
X129314047Y-134687380D02*
X129361666Y-134639761D01*
X129409285Y-134544523D01*
X129409285Y-134401666D01*
X129361666Y-134306428D01*
X129266428Y-134258809D01*
X128742619Y-134258809D01*
X129266428Y-134258809D02*
X129361666Y-134211190D01*
X129409285Y-134115952D01*
X129409285Y-133973095D01*
X129361666Y-133877857D01*
X129266428Y-133830238D01*
X128742619Y-133830238D01*
X129409285Y-133354047D02*
X128409285Y-133354047D01*
X129361666Y-133354047D02*
X129409285Y-133258809D01*
X129409285Y-133068333D01*
X129361666Y-132973095D01*
X129314047Y-132925476D01*
X129218809Y-132877857D01*
X128933095Y-132877857D01*
X128837857Y-132925476D01*
X128790238Y-132973095D01*
X128742619Y-133068333D01*
X128742619Y-133258809D01*
X128790238Y-133354047D01*
X128742619Y-132449285D02*
X129742619Y-132449285D01*
X128742619Y-132020714D02*
X129266428Y-132020714D01*
X129361666Y-132068333D01*
X129409285Y-132163571D01*
X129409285Y-132306428D01*
X129361666Y-132401666D01*
X129314047Y-132449285D01*
X128742619Y-131115952D02*
X129266428Y-131115952D01*
X129361666Y-131163571D01*
X129409285Y-131258809D01*
X129409285Y-131449285D01*
X129361666Y-131544523D01*
X128790238Y-131115952D02*
X128742619Y-131211190D01*
X128742619Y-131449285D01*
X128790238Y-131544523D01*
X128885476Y-131592142D01*
X128980714Y-131592142D01*
X129075952Y-131544523D01*
X129123571Y-131449285D01*
X129123571Y-131211190D01*
X129171190Y-131115952D01*
X129409285Y-130639761D02*
X128742619Y-130639761D01*
X129314047Y-130639761D02*
X129361666Y-130592142D01*
X129409285Y-130496904D01*
X129409285Y-130354047D01*
X129361666Y-130258809D01*
X129266428Y-130211190D01*
X128742619Y-130211190D01*
X128742619Y-129306428D02*
X129742619Y-129306428D01*
X128790238Y-129306428D02*
X128742619Y-129401666D01*
X128742619Y-129592142D01*
X128790238Y-129687380D01*
X128837857Y-129735000D01*
X128933095Y-129782619D01*
X129218809Y-129782619D01*
X129314047Y-129735000D01*
X129361666Y-129687380D01*
X129409285Y-129592142D01*
X129409285Y-129401666D01*
X129361666Y-129306428D01*
X128790238Y-128877857D02*
X128742619Y-128782619D01*
X128742619Y-128592142D01*
X128790238Y-128496904D01*
X128885476Y-128449285D01*
X128933095Y-128449285D01*
X129028333Y-128496904D01*
X129075952Y-128592142D01*
X129075952Y-128735000D01*
X129123571Y-128830238D01*
X129218809Y-128877857D01*
X129266428Y-128877857D01*
X129361666Y-128830238D01*
X129409285Y-128735000D01*
X129409285Y-128592142D01*
X129361666Y-128496904D01*
X129790238Y-127306428D02*
X128504523Y-128163571D01*
X129266428Y-126973095D02*
X129266428Y-126639761D01*
X128742619Y-126496904D02*
X128742619Y-126973095D01*
X129742619Y-126973095D01*
X129742619Y-126496904D01*
X128742619Y-126163571D02*
X129409285Y-125639761D01*
X129409285Y-126163571D02*
X128742619Y-125639761D01*
X128742619Y-125258809D02*
X129409285Y-125258809D01*
X129742619Y-125258809D02*
X129695000Y-125306428D01*
X129647380Y-125258809D01*
X129695000Y-125211190D01*
X129742619Y-125258809D01*
X129647380Y-125258809D01*
X129409285Y-124925476D02*
X129409285Y-124544523D01*
X129742619Y-124782619D02*
X128885476Y-124782619D01*
X128790238Y-124735000D01*
X128742619Y-124639761D01*
X128742619Y-124544523D01*
X128790238Y-124258809D02*
X128742619Y-124163571D01*
X128742619Y-123973095D01*
X128790238Y-123877857D01*
X128885476Y-123830238D01*
X128933095Y-123830238D01*
X129028333Y-123877857D01*
X129075952Y-123973095D01*
X129075952Y-124115952D01*
X129123571Y-124211190D01*
X129218809Y-124258809D01*
X129266428Y-124258809D01*
X129361666Y-124211190D01*
X129409285Y-124115952D01*
X129409285Y-123973095D01*
X129361666Y-123877857D01*
X127227857Y-144925476D02*
X127180238Y-144973095D01*
X127132619Y-145115952D01*
X127132619Y-145211190D01*
X127180238Y-145354047D01*
X127275476Y-145449285D01*
X127370714Y-145496904D01*
X127561190Y-145544523D01*
X127704047Y-145544523D01*
X127894523Y-145496904D01*
X127989761Y-145449285D01*
X128085000Y-145354047D01*
X128132619Y-145211190D01*
X128132619Y-145115952D01*
X128085000Y-144973095D01*
X128037380Y-144925476D01*
X127227857Y-143925476D02*
X127180238Y-143973095D01*
X127132619Y-144115952D01*
X127132619Y-144211190D01*
X127180238Y-144354047D01*
X127275476Y-144449285D01*
X127370714Y-144496904D01*
X127561190Y-144544523D01*
X127704047Y-144544523D01*
X127894523Y-144496904D01*
X127989761Y-144449285D01*
X128085000Y-144354047D01*
X128132619Y-144211190D01*
X128132619Y-144115952D01*
X128085000Y-143973095D01*
X128037380Y-143925476D01*
X127656428Y-142401666D02*
X127608809Y-142258809D01*
X127561190Y-142211190D01*
X127465952Y-142163571D01*
X127323095Y-142163571D01*
X127227857Y-142211190D01*
X127180238Y-142258809D01*
X127132619Y-142354047D01*
X127132619Y-142735000D01*
X128132619Y-142735000D01*
X128132619Y-142401666D01*
X128085000Y-142306428D01*
X128037380Y-142258809D01*
X127942142Y-142211190D01*
X127846904Y-142211190D01*
X127751666Y-142258809D01*
X127704047Y-142306428D01*
X127656428Y-142401666D01*
X127656428Y-142735000D01*
X127608809Y-141544523D02*
X127132619Y-141544523D01*
X128132619Y-141877857D02*
X127608809Y-141544523D01*
X128132619Y-141211190D01*
X127513571Y-140877857D02*
X127513571Y-140115952D01*
X127180238Y-139687380D02*
X127132619Y-139544523D01*
X127132619Y-139306428D01*
X127180238Y-139211190D01*
X127227857Y-139163571D01*
X127323095Y-139115952D01*
X127418333Y-139115952D01*
X127513571Y-139163571D01*
X127561190Y-139211190D01*
X127608809Y-139306428D01*
X127656428Y-139496904D01*
X127704047Y-139592142D01*
X127751666Y-139639761D01*
X127846904Y-139687380D01*
X127942142Y-139687380D01*
X128037380Y-139639761D01*
X128085000Y-139592142D01*
X128132619Y-139496904D01*
X128132619Y-139258809D01*
X128085000Y-139115952D01*
X127418333Y-138735000D02*
X127418333Y-138258809D01*
X127132619Y-138830238D02*
X128132619Y-138496904D01*
X127132619Y-138163571D01*
X127799285Y-136639761D02*
X127132619Y-136639761D01*
X128180238Y-136877857D02*
X127465952Y-137115952D01*
X127465952Y-136496904D01*
X127227857Y-136115952D02*
X127180238Y-136068333D01*
X127132619Y-136115952D01*
X127180238Y-136163571D01*
X127227857Y-136115952D01*
X127132619Y-136115952D01*
X128132619Y-135449285D02*
X128132619Y-135354047D01*
X128085000Y-135258809D01*
X128037380Y-135211190D01*
X127942142Y-135163571D01*
X127751666Y-135115952D01*
X127513571Y-135115952D01*
X127323095Y-135163571D01*
X127227857Y-135211190D01*
X127180238Y-135258809D01*
X127132619Y-135354047D01*
X127132619Y-135449285D01*
X127180238Y-135544523D01*
X127227857Y-135592142D01*
X127323095Y-135639761D01*
X127513571Y-135687380D01*
X127751666Y-135687380D01*
X127942142Y-135639761D01*
X128037380Y-135592142D01*
X128085000Y-135544523D01*
X128132619Y-135449285D01*
X148350000Y-48751428D02*
X148550000Y-48465714D01*
X148692857Y-48751428D02*
X148692857Y-48151428D01*
X148464285Y-48151428D01*
X148407142Y-48180000D01*
X148378571Y-48208571D01*
X148350000Y-48265714D01*
X148350000Y-48351428D01*
X148378571Y-48408571D01*
X148407142Y-48437142D01*
X148464285Y-48465714D01*
X148692857Y-48465714D01*
X148150000Y-48151428D02*
X147750000Y-48151428D01*
X148007142Y-48751428D01*
X149850000Y-76001428D02*
X150050000Y-75715714D01*
X150192857Y-76001428D02*
X150192857Y-75401428D01*
X149964285Y-75401428D01*
X149907142Y-75430000D01*
X149878571Y-75458571D01*
X149850000Y-75515714D01*
X149850000Y-75601428D01*
X149878571Y-75658571D01*
X149907142Y-75687142D01*
X149964285Y-75715714D01*
X150192857Y-75715714D01*
X149650000Y-75401428D02*
X149278571Y-75401428D01*
X149478571Y-75630000D01*
X149392857Y-75630000D01*
X149335714Y-75658571D01*
X149307142Y-75687142D01*
X149278571Y-75744285D01*
X149278571Y-75887142D01*
X149307142Y-75944285D01*
X149335714Y-75972857D01*
X149392857Y-76001428D01*
X149564285Y-76001428D01*
X149621428Y-75972857D01*
X149650000Y-75944285D01*
X158850000Y-92541428D02*
X159050000Y-92255714D01*
X159192857Y-92541428D02*
X159192857Y-91941428D01*
X158964285Y-91941428D01*
X158907142Y-91970000D01*
X158878571Y-91998571D01*
X158850000Y-92055714D01*
X158850000Y-92141428D01*
X158878571Y-92198571D01*
X158907142Y-92227142D01*
X158964285Y-92255714D01*
X159192857Y-92255714D01*
X158621428Y-91998571D02*
X158592857Y-91970000D01*
X158535714Y-91941428D01*
X158392857Y-91941428D01*
X158335714Y-91970000D01*
X158307142Y-91998571D01*
X158278571Y-92055714D01*
X158278571Y-92112857D01*
X158307142Y-92198571D01*
X158650000Y-92541428D01*
X158278571Y-92541428D01*
X151900000Y-90001428D02*
X152100000Y-89715714D01*
X152242857Y-90001428D02*
X152242857Y-89401428D01*
X152014285Y-89401428D01*
X151957142Y-89430000D01*
X151928571Y-89458571D01*
X151900000Y-89515714D01*
X151900000Y-89601428D01*
X151928571Y-89658571D01*
X151957142Y-89687142D01*
X152014285Y-89715714D01*
X152242857Y-89715714D01*
X151328571Y-90001428D02*
X151671428Y-90001428D01*
X151500000Y-90001428D02*
X151500000Y-89401428D01*
X151557142Y-89487142D01*
X151614285Y-89544285D01*
X151671428Y-89572857D01*
X153850000Y-75291428D02*
X154050000Y-75005714D01*
X154192857Y-75291428D02*
X154192857Y-74691428D01*
X153964285Y-74691428D01*
X153907142Y-74720000D01*
X153878571Y-74748571D01*
X153850000Y-74805714D01*
X153850000Y-74891428D01*
X153878571Y-74948571D01*
X153907142Y-74977142D01*
X153964285Y-75005714D01*
X154192857Y-75005714D01*
X153335714Y-74891428D02*
X153335714Y-75291428D01*
X153478571Y-74662857D02*
X153621428Y-75091428D01*
X153250000Y-75091428D01*
X153600000Y-63751428D02*
X153800000Y-63465714D01*
X153942857Y-63751428D02*
X153942857Y-63151428D01*
X153714285Y-63151428D01*
X153657142Y-63180000D01*
X153628571Y-63208571D01*
X153600000Y-63265714D01*
X153600000Y-63351428D01*
X153628571Y-63408571D01*
X153657142Y-63437142D01*
X153714285Y-63465714D01*
X153942857Y-63465714D01*
X153057142Y-63151428D02*
X153342857Y-63151428D01*
X153371428Y-63437142D01*
X153342857Y-63408571D01*
X153285714Y-63380000D01*
X153142857Y-63380000D01*
X153085714Y-63408571D01*
X153057142Y-63437142D01*
X153028571Y-63494285D01*
X153028571Y-63637142D01*
X153057142Y-63694285D01*
X153085714Y-63722857D01*
X153142857Y-63751428D01*
X153285714Y-63751428D01*
X153342857Y-63722857D01*
X153371428Y-63694285D01*
X153600000Y-62291428D02*
X153800000Y-62005714D01*
X153942857Y-62291428D02*
X153942857Y-61691428D01*
X153714285Y-61691428D01*
X153657142Y-61720000D01*
X153628571Y-61748571D01*
X153600000Y-61805714D01*
X153600000Y-61891428D01*
X153628571Y-61948571D01*
X153657142Y-61977142D01*
X153714285Y-62005714D01*
X153942857Y-62005714D01*
X153085714Y-61691428D02*
X153200000Y-61691428D01*
X153257142Y-61720000D01*
X153285714Y-61748571D01*
X153342857Y-61834285D01*
X153371428Y-61948571D01*
X153371428Y-62177142D01*
X153342857Y-62234285D01*
X153314285Y-62262857D01*
X153257142Y-62291428D01*
X153142857Y-62291428D01*
X153085714Y-62262857D01*
X153057142Y-62234285D01*
X153028571Y-62177142D01*
X153028571Y-62034285D01*
X153057142Y-61977142D01*
X153085714Y-61948571D01*
X153142857Y-61920000D01*
X153257142Y-61920000D01*
X153314285Y-61948571D01*
X153342857Y-61977142D01*
X153371428Y-62034285D01*
X150350000Y-63751428D02*
X150550000Y-63465714D01*
X150692857Y-63751428D02*
X150692857Y-63151428D01*
X150464285Y-63151428D01*
X150407142Y-63180000D01*
X150378571Y-63208571D01*
X150350000Y-63265714D01*
X150350000Y-63351428D01*
X150378571Y-63408571D01*
X150407142Y-63437142D01*
X150464285Y-63465714D01*
X150692857Y-63465714D01*
X150064285Y-63751428D02*
X149950000Y-63751428D01*
X149892857Y-63722857D01*
X149864285Y-63694285D01*
X149807142Y-63608571D01*
X149778571Y-63494285D01*
X149778571Y-63265714D01*
X149807142Y-63208571D01*
X149835714Y-63180000D01*
X149892857Y-63151428D01*
X150007142Y-63151428D01*
X150064285Y-63180000D01*
X150092857Y-63208571D01*
X150121428Y-63265714D01*
X150121428Y-63408571D01*
X150092857Y-63465714D01*
X150064285Y-63494285D01*
X150007142Y-63522857D01*
X149892857Y-63522857D01*
X149835714Y-63494285D01*
X149807142Y-63465714D01*
X149778571Y-63408571D01*
X153885714Y-70041428D02*
X154085714Y-69755714D01*
X154228571Y-70041428D02*
X154228571Y-69441428D01*
X154000000Y-69441428D01*
X153942857Y-69470000D01*
X153914285Y-69498571D01*
X153885714Y-69555714D01*
X153885714Y-69641428D01*
X153914285Y-69698571D01*
X153942857Y-69727142D01*
X154000000Y-69755714D01*
X154228571Y-69755714D01*
X153314285Y-70041428D02*
X153657142Y-70041428D01*
X153485714Y-70041428D02*
X153485714Y-69441428D01*
X153542857Y-69527142D01*
X153600000Y-69584285D01*
X153657142Y-69612857D01*
X153085714Y-69498571D02*
X153057142Y-69470000D01*
X153000000Y-69441428D01*
X152857142Y-69441428D01*
X152800000Y-69470000D01*
X152771428Y-69498571D01*
X152742857Y-69555714D01*
X152742857Y-69612857D01*
X152771428Y-69698571D01*
X153114285Y-70041428D01*
X152742857Y-70041428D01*
X145435714Y-90001428D02*
X145635714Y-89715714D01*
X145778571Y-90001428D02*
X145778571Y-89401428D01*
X145550000Y-89401428D01*
X145492857Y-89430000D01*
X145464285Y-89458571D01*
X145435714Y-89515714D01*
X145435714Y-89601428D01*
X145464285Y-89658571D01*
X145492857Y-89687142D01*
X145550000Y-89715714D01*
X145778571Y-89715714D01*
X144864285Y-90001428D02*
X145207142Y-90001428D01*
X145035714Y-90001428D02*
X145035714Y-89401428D01*
X145092857Y-89487142D01*
X145150000Y-89544285D01*
X145207142Y-89572857D01*
X144664285Y-89401428D02*
X144292857Y-89401428D01*
X144492857Y-89630000D01*
X144407142Y-89630000D01*
X144350000Y-89658571D01*
X144321428Y-89687142D01*
X144292857Y-89744285D01*
X144292857Y-89887142D01*
X144321428Y-89944285D01*
X144350000Y-89972857D01*
X144407142Y-90001428D01*
X144578571Y-90001428D01*
X144635714Y-89972857D01*
X144664285Y-89944285D01*
X155300000Y-51291428D02*
X155500000Y-51005714D01*
X155642857Y-51291428D02*
X155642857Y-50691428D01*
X155414285Y-50691428D01*
X155357142Y-50720000D01*
X155328571Y-50748571D01*
X155300000Y-50805714D01*
X155300000Y-50891428D01*
X155328571Y-50948571D01*
X155357142Y-50977142D01*
X155414285Y-51005714D01*
X155642857Y-51005714D01*
X154957142Y-50948571D02*
X155014285Y-50920000D01*
X155042857Y-50891428D01*
X155071428Y-50834285D01*
X155071428Y-50805714D01*
X155042857Y-50748571D01*
X155014285Y-50720000D01*
X154957142Y-50691428D01*
X154842857Y-50691428D01*
X154785714Y-50720000D01*
X154757142Y-50748571D01*
X154728571Y-50805714D01*
X154728571Y-50834285D01*
X154757142Y-50891428D01*
X154785714Y-50920000D01*
X154842857Y-50948571D01*
X154957142Y-50948571D01*
X155014285Y-50977142D01*
X155042857Y-51005714D01*
X155071428Y-51062857D01*
X155071428Y-51177142D01*
X155042857Y-51234285D01*
X155014285Y-51262857D01*
X154957142Y-51291428D01*
X154842857Y-51291428D01*
X154785714Y-51262857D01*
X154757142Y-51234285D01*
X154728571Y-51177142D01*
X154728571Y-51062857D01*
X154757142Y-51005714D01*
X154785714Y-50977142D01*
X154842857Y-50948571D01*
X153885714Y-81771428D02*
X154085714Y-81485714D01*
X154228571Y-81771428D02*
X154228571Y-81171428D01*
X154000000Y-81171428D01*
X153942857Y-81200000D01*
X153914285Y-81228571D01*
X153885714Y-81285714D01*
X153885714Y-81371428D01*
X153914285Y-81428571D01*
X153942857Y-81457142D01*
X154000000Y-81485714D01*
X154228571Y-81485714D01*
X153314285Y-81771428D02*
X153657142Y-81771428D01*
X153485714Y-81771428D02*
X153485714Y-81171428D01*
X153542857Y-81257142D01*
X153600000Y-81314285D01*
X153657142Y-81342857D01*
X152800000Y-81371428D02*
X152800000Y-81771428D01*
X152942857Y-81142857D02*
X153085714Y-81571428D01*
X152714285Y-81571428D01*
X153885714Y-57291428D02*
X154085714Y-57005714D01*
X154228571Y-57291428D02*
X154228571Y-56691428D01*
X154000000Y-56691428D01*
X153942857Y-56720000D01*
X153914285Y-56748571D01*
X153885714Y-56805714D01*
X153885714Y-56891428D01*
X153914285Y-56948571D01*
X153942857Y-56977142D01*
X154000000Y-57005714D01*
X154228571Y-57005714D01*
X153314285Y-57291428D02*
X153657142Y-57291428D01*
X153485714Y-57291428D02*
X153485714Y-56691428D01*
X153542857Y-56777142D01*
X153600000Y-56834285D01*
X153657142Y-56862857D01*
X152942857Y-56691428D02*
X152885714Y-56691428D01*
X152828571Y-56720000D01*
X152800000Y-56748571D01*
X152771428Y-56805714D01*
X152742857Y-56920000D01*
X152742857Y-57062857D01*
X152771428Y-57177142D01*
X152800000Y-57234285D01*
X152828571Y-57262857D01*
X152885714Y-57291428D01*
X152942857Y-57291428D01*
X153000000Y-57262857D01*
X153028571Y-57234285D01*
X153057142Y-57177142D01*
X153085714Y-57062857D01*
X153085714Y-56920000D01*
X153057142Y-56805714D01*
X153028571Y-56748571D01*
X153000000Y-56720000D01*
X152942857Y-56691428D01*
X150135714Y-72501428D02*
X150335714Y-72215714D01*
X150478571Y-72501428D02*
X150478571Y-71901428D01*
X150250000Y-71901428D01*
X150192857Y-71930000D01*
X150164285Y-71958571D01*
X150135714Y-72015714D01*
X150135714Y-72101428D01*
X150164285Y-72158571D01*
X150192857Y-72187142D01*
X150250000Y-72215714D01*
X150478571Y-72215714D01*
X149564285Y-72501428D02*
X149907142Y-72501428D01*
X149735714Y-72501428D02*
X149735714Y-71901428D01*
X149792857Y-71987142D01*
X149850000Y-72044285D01*
X149907142Y-72072857D01*
X148992857Y-72501428D02*
X149335714Y-72501428D01*
X149164285Y-72501428D02*
X149164285Y-71901428D01*
X149221428Y-71987142D01*
X149278571Y-72044285D01*
X149335714Y-72072857D01*
D10*
X160502380Y-112490476D02*
X161216666Y-112490476D01*
X161359523Y-112442857D01*
X161454761Y-112347619D01*
X161502380Y-112204761D01*
X161502380Y-112109523D01*
X161502380Y-113490476D02*
X161502380Y-112919047D01*
X161502380Y-113204761D02*
X160502380Y-113204761D01*
X160645238Y-113109523D01*
X160740476Y-113014285D01*
X160788095Y-112919047D01*
X160502380Y-114109523D02*
X160502380Y-114204761D01*
X160550000Y-114300000D01*
X160597619Y-114347619D01*
X160692857Y-114395238D01*
X160883333Y-114442857D01*
X161121428Y-114442857D01*
X161311904Y-114395238D01*
X161407142Y-114347619D01*
X161454761Y-114300000D01*
X161502380Y-114204761D01*
X161502380Y-114109523D01*
X161454761Y-114014285D01*
X161407142Y-113966666D01*
X161311904Y-113919047D01*
X161121428Y-113871428D01*
X160883333Y-113871428D01*
X160692857Y-113919047D01*
X160597619Y-113966666D01*
X160550000Y-114014285D01*
X160502380Y-114109523D01*
X156833333Y-41752380D02*
X156833333Y-42466666D01*
X156880952Y-42609523D01*
X156976190Y-42704761D01*
X157119047Y-42752380D01*
X157214285Y-42752380D01*
X156309523Y-42752380D02*
X156119047Y-42752380D01*
X156023809Y-42704761D01*
X155976190Y-42657142D01*
X155880952Y-42514285D01*
X155833333Y-42323809D01*
X155833333Y-41942857D01*
X155880952Y-41847619D01*
X155928571Y-41800000D01*
X156023809Y-41752380D01*
X156214285Y-41752380D01*
X156309523Y-41800000D01*
X156357142Y-41847619D01*
X156404761Y-41942857D01*
X156404761Y-42180952D01*
X156357142Y-42276190D01*
X156309523Y-42323809D01*
X156214285Y-42371428D01*
X156023809Y-42371428D01*
X155928571Y-42323809D01*
X155880952Y-42276190D01*
X155833333Y-42180952D01*
D12*
X128942619Y-67744047D02*
X128761190Y-67804523D01*
X128458809Y-67804523D01*
X128337857Y-67744047D01*
X128277380Y-67683571D01*
X128216904Y-67562619D01*
X128216904Y-67441666D01*
X128277380Y-67320714D01*
X128337857Y-67260238D01*
X128458809Y-67199761D01*
X128700714Y-67139285D01*
X128821666Y-67078809D01*
X128882142Y-67018333D01*
X128942619Y-66897380D01*
X128942619Y-66776428D01*
X128882142Y-66655476D01*
X128821666Y-66595000D01*
X128700714Y-66534523D01*
X128398333Y-66534523D01*
X128216904Y-66595000D01*
X127007380Y-67804523D02*
X127733095Y-67804523D01*
X127370238Y-67804523D02*
X127370238Y-66534523D01*
X127491190Y-66715952D01*
X127612142Y-66836904D01*
X127733095Y-66897380D01*
D11*
X149850000Y-48950000D02*
X146650000Y-48950000D01*
X146650000Y-48950000D02*
X146650000Y-50550000D01*
X146650000Y-50550000D02*
X149850000Y-50550000D01*
X149850000Y-50550000D02*
X149850000Y-48950000D01*
X148150000Y-77800000D02*
X151350000Y-77800000D01*
X148150000Y-76200000D02*
X148150000Y-77800000D01*
X151350000Y-76200000D02*
X148150000Y-76200000D01*
X151350000Y-77800000D02*
X151350000Y-76200000D01*
X157150000Y-91800000D02*
X160350000Y-91800000D01*
X160350000Y-91800000D02*
X160350000Y-90200000D01*
X160350000Y-90200000D02*
X157150000Y-90200000D01*
X157150000Y-90200000D02*
X157150000Y-91800000D01*
X150200000Y-90200000D02*
X150200000Y-91800000D01*
X153400000Y-91800000D02*
X153400000Y-90200000D01*
X153400000Y-90200000D02*
X150200000Y-90200000D01*
X150200000Y-91800000D02*
X153400000Y-91800000D01*
X155350000Y-72950000D02*
X152150000Y-72950000D01*
X155350000Y-74550000D02*
X155350000Y-72950000D01*
X152150000Y-72950000D02*
X152150000Y-74550000D01*
X152150000Y-74550000D02*
X155350000Y-74550000D01*
X155100000Y-65550000D02*
X155100000Y-63950000D01*
X151900000Y-63950000D02*
X151900000Y-65550000D01*
X151900000Y-65550000D02*
X155100000Y-65550000D01*
X155100000Y-63950000D02*
X151900000Y-63950000D01*
X151900000Y-59950000D02*
X151900000Y-61550000D01*
X155100000Y-61550000D02*
X155100000Y-59950000D01*
X155100000Y-59950000D02*
X151900000Y-59950000D01*
X151900000Y-61550000D02*
X155100000Y-61550000D01*
X151850000Y-65550000D02*
X151850000Y-63950000D01*
X148650000Y-65550000D02*
X151850000Y-65550000D01*
X151850000Y-63950000D02*
X148650000Y-63950000D01*
X148650000Y-63950000D02*
X148650000Y-65550000D01*
X151900000Y-69300000D02*
X155100000Y-69300000D01*
X155100000Y-67700000D02*
X151900000Y-67700000D01*
X155100000Y-69300000D02*
X155100000Y-67700000D01*
X151900000Y-67700000D02*
X151900000Y-69300000D01*
X146650000Y-90200000D02*
X143450000Y-90200000D01*
X146650000Y-91800000D02*
X146650000Y-90200000D01*
X143450000Y-91800000D02*
X146650000Y-91800000D01*
X143450000Y-90200000D02*
X143450000Y-91800000D01*
X156800000Y-48950000D02*
X153600000Y-48950000D01*
X153600000Y-48950000D02*
X153600000Y-50550000D01*
X153600000Y-50550000D02*
X156800000Y-50550000D01*
X156800000Y-50550000D02*
X156800000Y-48950000D01*
X154300000Y-80850000D02*
X154300000Y-77650000D01*
X152700000Y-77650000D02*
X152700000Y-80850000D01*
X152700000Y-80850000D02*
X154300000Y-80850000D01*
X154300000Y-77650000D02*
X152700000Y-77650000D01*
X151900000Y-56550000D02*
X155100000Y-56550000D01*
X155100000Y-54950000D02*
X151900000Y-54950000D01*
X155100000Y-56550000D02*
X155100000Y-54950000D01*
X151900000Y-54950000D02*
X151900000Y-56550000D01*
X148150000Y-74300000D02*
X151350000Y-74300000D01*
X151350000Y-74300000D02*
X151350000Y-72700000D01*
X148150000Y-72700000D02*
X148150000Y-74300000D01*
X151350000Y-72700000D02*
X148150000Y-72700000D01*
D13*
X157010000Y-111970000D02*
X144250000Y-111970000D01*
X159610000Y-111970000D02*
X158280000Y-111970000D01*
X157010000Y-114630000D02*
X144250000Y-114630000D01*
X144250000Y-114630000D02*
X144250000Y-111970000D01*
X159610000Y-113300000D02*
X159610000Y-111970000D01*
X157010000Y-114630000D02*
X157010000Y-111970000D01*
X160080000Y-43520000D02*
X157420000Y-43520000D01*
X160080000Y-51200000D02*
X157420000Y-51200000D01*
X157420000Y-43520000D02*
X157420000Y-51200000D01*
X158750000Y-40920000D02*
X157420000Y-40920000D01*
X157420000Y-40920000D02*
X157420000Y-42250000D01*
X160080000Y-43520000D02*
X160080000Y-51200000D01*
X131230000Y-41840000D02*
X124730000Y-41840000D01*
X131230000Y-59820000D02*
X131230000Y-52880000D01*
X131230000Y-52880000D02*
X131230000Y-52880000D01*
X132540000Y-48780000D02*
X131230000Y-48780000D01*
X124730000Y-59820000D02*
X131230000Y-59820000D01*
X131230000Y-52880000D02*
X132540000Y-52880000D01*
X123420000Y-40540000D02*
X123420000Y-61120000D01*
X131230000Y-48780000D02*
X131230000Y-41840000D01*
X132930000Y-45750000D02*
X133930000Y-45250000D01*
X133930000Y-45250000D02*
X133930000Y-46250000D01*
X132540000Y-61120000D02*
X132540000Y-40540000D01*
X133930000Y-46250000D02*
X132930000Y-45750000D01*
X132540000Y-40540000D02*
X123420000Y-40540000D01*
X123420000Y-61120000D02*
X132540000Y-61120000D01*
X124730000Y-41840000D02*
X124730000Y-59820000D01*
D11*
X132050000Y-63155000D02*
X125050000Y-63155000D01*
X132050000Y-71305000D02*
X125050000Y-71305000D01*
D14*
X124250000Y-69730000D02*
X124250000Y-69730000D01*
D11*
X132050000Y-64730000D02*
X132050000Y-63155000D01*
X125050000Y-71305000D02*
X125050000Y-69730000D01*
X132050000Y-69730000D02*
X132050000Y-71305000D01*
D14*
X124450000Y-69730000D02*
X124450000Y-69730000D01*
D11*
X125050000Y-63155000D02*
X125050000Y-64730000D01*
D14*
X124250000Y-69730000D02*
G75*
G03*
X124450000Y-69730000I100000J0D01*
G01*
X124450000Y-69730000D02*
G75*
G03*
X124250000Y-69730000I-100000J0D01*
G01*
M02*
