G04 #@! TF.GenerationSoftware,KiCad,Pcbnew,(6.0.0)*
G04 #@! TF.CreationDate,2022-01-28T00:57:07+09:00*
G04 #@! TF.ProjectId,exits board A,65786974-7320-4626-9f61-726420412e6b,2.1*
G04 #@! TF.SameCoordinates,Original*
G04 #@! TF.FileFunction,Soldermask,Top*
G04 #@! TF.FilePolarity,Negative*
%FSLAX46Y46*%
G04 Gerber Fmt 4.6, Leading zero omitted, Abs format (unit mm)*
G04 Created by KiCad (PCBNEW (6.0.0)) date 2022-01-28 00:57:07*
%MOMM*%
%LPD*%
G01*
G04 APERTURE LIST*
G04 Aperture macros list*
%AMRoundRect*
0 Rectangle with rounded corners*
0 $1 Rounding radius*
0 $2 $3 $4 $5 $6 $7 $8 $9 X,Y pos of 4 corners*
0 Add a 4 corners polygon primitive as box body*
4,1,4,$2,$3,$4,$5,$6,$7,$8,$9,$2,$3,0*
0 Add four circle primitives for the rounded corners*
1,1,$1+$1,$2,$3*
1,1,$1+$1,$4,$5*
1,1,$1+$1,$6,$7*
1,1,$1+$1,$8,$9*
0 Add four rect primitives between the rounded corners*
20,1,$1+$1,$2,$3,$4,$5,0*
20,1,$1+$1,$4,$5,$6,$7,0*
20,1,$1+$1,$6,$7,$8,$9,0*
20,1,$1+$1,$8,$9,$2,$3,0*%
%AMHorizOval*
0 Thick line with rounded ends*
0 $1 width*
0 $2 $3 position (X,Y) of the first rounded end (center of the circle)*
0 $4 $5 position (X,Y) of the second rounded end (center of the circle)*
0 Add line between two ends*
20,1,$1,$2,$3,$4,$5,0*
0 Add two circle primitives to create the rounded ends*
1,1,$1,$2,$3*
1,1,$1,$4,$5*%
G04 Aperture macros list end*
%ADD10RoundRect,0.101600X0.800000X-0.500000X0.800000X0.500000X-0.800000X0.500000X-0.800000X-0.500000X0*%
%ADD11RoundRect,0.101600X-0.500000X0.500000X-0.500000X-0.500000X0.500000X-0.500000X0.500000X0.500000X0*%
%ADD12RoundRect,0.101600X0.650000X0.750000X-0.650000X0.750000X-0.650000X-0.750000X0.650000X-0.750000X0*%
%ADD13RoundRect,0.101600X0.750000X-0.650000X0.750000X0.650000X-0.750000X0.650000X-0.750000X-0.650000X0*%
%ADD14RoundRect,0.101600X-0.500000X-0.500000X0.500000X-0.500000X0.500000X0.500000X-0.500000X0.500000X0*%
%ADD15RoundRect,0.101600X0.500000X-0.500000X0.500000X0.500000X-0.500000X0.500000X-0.500000X-0.500000X0*%
%ADD16RoundRect,0.101600X0.700000X-0.700000X0.700000X0.700000X-0.700000X0.700000X-0.700000X-0.700000X0*%
%ADD17RoundRect,0.101600X-0.700000X-0.700000X0.700000X-0.700000X0.700000X0.700000X-0.700000X0.700000X0*%
%ADD18RoundRect,0.101600X-0.850000X-0.850000X0.850000X-0.850000X0.850000X0.850000X-0.850000X0.850000X0*%
%ADD19O,1.903200X1.903200*%
%ADD20RoundRect,0.101600X-0.850000X0.850000X-0.850000X-0.850000X0.850000X-0.850000X0.850000X0.850000X0*%
%ADD21RoundRect,0.351600X-0.625000X0.312500X-0.625000X-0.312500X0.625000X-0.312500X0.625000X0.312500X0*%
%ADD22RoundRect,0.351600X0.625000X-0.312500X0.625000X0.312500X-0.625000X0.312500X-0.625000X-0.312500X0*%
%ADD23RoundRect,0.351600X0.312500X0.625000X-0.312500X0.625000X-0.312500X-0.625000X0.312500X-0.625000X0*%
%ADD24RoundRect,0.351600X-0.312500X-0.625000X0.312500X-0.625000X0.312500X0.625000X-0.312500X0.625000X0*%
%ADD25RoundRect,0.101600X1.000000X-0.325000X1.000000X0.325000X-1.000000X0.325000X-1.000000X-0.325000X0*%
%ADD26RoundRect,0.101600X-0.762500X0.225000X-0.762500X-0.225000X0.762500X-0.225000X0.762500X0.225000X0*%
%ADD27RoundRect,0.101600X0.762500X-0.225000X0.762500X0.225000X-0.762500X0.225000X-0.762500X-0.225000X0*%
%ADD28HorizOval,1.711200X-0.533159X0.533159X0.533159X-0.533159X0*%
%ADD29O,3.219200X1.711200*%
%ADD30O,1.711200X3.219200*%
%ADD31C,1.503200*%
%ADD32RoundRect,0.351600X0.600000X0.600000X-0.600000X0.600000X-0.600000X-0.600000X0.600000X-0.600000X0*%
%ADD33C,1.903200*%
G04 APERTURE END LIST*
D10*
X137750000Y-96750000D03*
X137750000Y-93750000D03*
X127250000Y-106750000D03*
X127250000Y-103750000D03*
D11*
X137750000Y-81450000D03*
X137750000Y-83050000D03*
X125500000Y-80200000D03*
X125500000Y-81800000D03*
D12*
X132250000Y-58750000D03*
X130250000Y-58750000D03*
D13*
X132250000Y-47750000D03*
X132250000Y-45750000D03*
D14*
X128450000Y-76500000D03*
X130050000Y-76500000D03*
D15*
X137750000Y-71050000D03*
X137750000Y-69450000D03*
D11*
X125500000Y-83750000D03*
X125500000Y-85350000D03*
D14*
X132900000Y-76500000D03*
X134500000Y-76500000D03*
D16*
X132250000Y-56150000D03*
X132250000Y-52350000D03*
D17*
X128350000Y-42000000D03*
X132150000Y-42000000D03*
D18*
X139000000Y-42250000D03*
D19*
X139000000Y-44790000D03*
X139000000Y-47330000D03*
X139000000Y-49870000D03*
D20*
X138500000Y-113300000D03*
D19*
X135960000Y-113300000D03*
X133420000Y-113300000D03*
X130880000Y-113300000D03*
X128340000Y-113300000D03*
X125800000Y-113300000D03*
D21*
X137750000Y-88787500D03*
X137750000Y-91712500D03*
D22*
X133750000Y-108925000D03*
X133750000Y-106000000D03*
D11*
X137750000Y-72950000D03*
X137750000Y-74550000D03*
D15*
X137750000Y-67300000D03*
X137750000Y-65700000D03*
D14*
X128400000Y-68500000D03*
X130000000Y-68500000D03*
D11*
X125500000Y-71750000D03*
X125500000Y-73350000D03*
X137750000Y-76950000D03*
X137750000Y-78550000D03*
X125500000Y-75450000D03*
X125500000Y-77050000D03*
D23*
X126712500Y-100250000D03*
X123787500Y-100250000D03*
X126712500Y-97500000D03*
X123787500Y-97500000D03*
D24*
X136537500Y-110250000D03*
X139462500Y-110250000D03*
X136537500Y-107500000D03*
X139462500Y-107500000D03*
D11*
X133250000Y-85200000D03*
X133250000Y-86800000D03*
X130750000Y-85250000D03*
X130750000Y-86850000D03*
X135750000Y-85200000D03*
X135750000Y-86800000D03*
X128250000Y-85200000D03*
X128250000Y-86800000D03*
D25*
X134500000Y-74405000D03*
X134500000Y-73135000D03*
X134500000Y-71865000D03*
X134500000Y-70595000D03*
X128500000Y-70595000D03*
X128500000Y-71865000D03*
X128500000Y-73135000D03*
X128500000Y-74405000D03*
X134500000Y-83155000D03*
X134500000Y-81885000D03*
X134500000Y-80615000D03*
X134500000Y-79345000D03*
X128500000Y-79345000D03*
X128500000Y-80615000D03*
X128500000Y-81885000D03*
X128500000Y-83155000D03*
D26*
X134712000Y-94975000D03*
X134712000Y-94325000D03*
X134712000Y-93675000D03*
X134712000Y-93025000D03*
X128788000Y-93025000D03*
X128788000Y-93675000D03*
X128788000Y-94325000D03*
X128788000Y-94975000D03*
D27*
X129788000Y-101775000D03*
X129788000Y-102425000D03*
X129788000Y-103075000D03*
X129788000Y-103725000D03*
X135712000Y-103725000D03*
X135712000Y-103075000D03*
X135712000Y-102425000D03*
X135712000Y-101775000D03*
D14*
X128950000Y-97500000D03*
X130550000Y-97500000D03*
D11*
X134750000Y-89200000D03*
X134750000Y-90800000D03*
D15*
X135500000Y-99550000D03*
X135500000Y-97950000D03*
X131000000Y-107550000D03*
X131000000Y-105950000D03*
D28*
X136596000Y-119504000D03*
D29*
X132500000Y-130600000D03*
D30*
X125500000Y-123600000D03*
D28*
X136596000Y-136504000D03*
D29*
X132500000Y-147600000D03*
D30*
X125500000Y-140600000D03*
D31*
X124750000Y-68500000D03*
X124750000Y-65960000D03*
X132350000Y-68500000D03*
X132350000Y-65960000D03*
D32*
X129250000Y-45750000D03*
D33*
X126710000Y-45750000D03*
X129250000Y-48290000D03*
X126710000Y-48290000D03*
X129250000Y-50830000D03*
X126710000Y-50830000D03*
X129250000Y-53370000D03*
X126710000Y-53370000D03*
X129250000Y-55910000D03*
X126710000Y-55910000D03*
M02*
