G04 #@! TF.GenerationSoftware,KiCad,Pcbnew,(6.0.0)*
G04 #@! TF.CreationDate,2022-01-28T00:57:34+09:00*
G04 #@! TF.ProjectId,exits board B,65786974-7320-4626-9f61-726420422e6b,2.1*
G04 #@! TF.SameCoordinates,Original*
G04 #@! TF.FileFunction,Legend,Bot*
G04 #@! TF.FilePolarity,Positive*
%FSLAX46Y46*%
G04 Gerber Fmt 4.6, Leading zero omitted, Abs format (unit mm)*
G04 Created by KiCad (PCBNEW (6.0.0)) date 2022-01-28 00:57:34*
%MOMM*%
%LPD*%
G01*
G04 APERTURE LIST*
%ADD10C,0.100000*%
%ADD11C,0.150000*%
%ADD12C,0.120000*%
G04 APERTURE END LIST*
D10*
X151900000Y-90001428D02*
X152100000Y-89715714D01*
X152242857Y-90001428D02*
X152242857Y-89401428D01*
X152014285Y-89401428D01*
X151957142Y-89430000D01*
X151928571Y-89458571D01*
X151900000Y-89515714D01*
X151900000Y-89601428D01*
X151928571Y-89658571D01*
X151957142Y-89687142D01*
X152014285Y-89715714D01*
X152242857Y-89715714D01*
X151328571Y-90001428D02*
X151671428Y-90001428D01*
X151500000Y-90001428D02*
X151500000Y-89401428D01*
X151557142Y-89487142D01*
X151614285Y-89544285D01*
X151671428Y-89572857D01*
X158850000Y-92541428D02*
X159050000Y-92255714D01*
X159192857Y-92541428D02*
X159192857Y-91941428D01*
X158964285Y-91941428D01*
X158907142Y-91970000D01*
X158878571Y-91998571D01*
X158850000Y-92055714D01*
X158850000Y-92141428D01*
X158878571Y-92198571D01*
X158907142Y-92227142D01*
X158964285Y-92255714D01*
X159192857Y-92255714D01*
X158621428Y-91998571D02*
X158592857Y-91970000D01*
X158535714Y-91941428D01*
X158392857Y-91941428D01*
X158335714Y-91970000D01*
X158307142Y-91998571D01*
X158278571Y-92055714D01*
X158278571Y-92112857D01*
X158307142Y-92198571D01*
X158650000Y-92541428D01*
X158278571Y-92541428D01*
X149850000Y-76001428D02*
X150050000Y-75715714D01*
X150192857Y-76001428D02*
X150192857Y-75401428D01*
X149964285Y-75401428D01*
X149907142Y-75430000D01*
X149878571Y-75458571D01*
X149850000Y-75515714D01*
X149850000Y-75601428D01*
X149878571Y-75658571D01*
X149907142Y-75687142D01*
X149964285Y-75715714D01*
X150192857Y-75715714D01*
X149650000Y-75401428D02*
X149278571Y-75401428D01*
X149478571Y-75630000D01*
X149392857Y-75630000D01*
X149335714Y-75658571D01*
X149307142Y-75687142D01*
X149278571Y-75744285D01*
X149278571Y-75887142D01*
X149307142Y-75944285D01*
X149335714Y-75972857D01*
X149392857Y-76001428D01*
X149564285Y-76001428D01*
X149621428Y-75972857D01*
X149650000Y-75944285D01*
X153850000Y-75291428D02*
X154050000Y-75005714D01*
X154192857Y-75291428D02*
X154192857Y-74691428D01*
X153964285Y-74691428D01*
X153907142Y-74720000D01*
X153878571Y-74748571D01*
X153850000Y-74805714D01*
X153850000Y-74891428D01*
X153878571Y-74948571D01*
X153907142Y-74977142D01*
X153964285Y-75005714D01*
X154192857Y-75005714D01*
X153335714Y-74891428D02*
X153335714Y-75291428D01*
X153478571Y-74662857D02*
X153621428Y-75091428D01*
X153250000Y-75091428D01*
X153600000Y-63751428D02*
X153800000Y-63465714D01*
X153942857Y-63751428D02*
X153942857Y-63151428D01*
X153714285Y-63151428D01*
X153657142Y-63180000D01*
X153628571Y-63208571D01*
X153600000Y-63265714D01*
X153600000Y-63351428D01*
X153628571Y-63408571D01*
X153657142Y-63437142D01*
X153714285Y-63465714D01*
X153942857Y-63465714D01*
X153057142Y-63151428D02*
X153342857Y-63151428D01*
X153371428Y-63437142D01*
X153342857Y-63408571D01*
X153285714Y-63380000D01*
X153142857Y-63380000D01*
X153085714Y-63408571D01*
X153057142Y-63437142D01*
X153028571Y-63494285D01*
X153028571Y-63637142D01*
X153057142Y-63694285D01*
X153085714Y-63722857D01*
X153142857Y-63751428D01*
X153285714Y-63751428D01*
X153342857Y-63722857D01*
X153371428Y-63694285D01*
X153600000Y-62291428D02*
X153800000Y-62005714D01*
X153942857Y-62291428D02*
X153942857Y-61691428D01*
X153714285Y-61691428D01*
X153657142Y-61720000D01*
X153628571Y-61748571D01*
X153600000Y-61805714D01*
X153600000Y-61891428D01*
X153628571Y-61948571D01*
X153657142Y-61977142D01*
X153714285Y-62005714D01*
X153942857Y-62005714D01*
X153085714Y-61691428D02*
X153200000Y-61691428D01*
X153257142Y-61720000D01*
X153285714Y-61748571D01*
X153342857Y-61834285D01*
X153371428Y-61948571D01*
X153371428Y-62177142D01*
X153342857Y-62234285D01*
X153314285Y-62262857D01*
X153257142Y-62291428D01*
X153142857Y-62291428D01*
X153085714Y-62262857D01*
X153057142Y-62234285D01*
X153028571Y-62177142D01*
X153028571Y-62034285D01*
X153057142Y-61977142D01*
X153085714Y-61948571D01*
X153142857Y-61920000D01*
X153257142Y-61920000D01*
X153314285Y-61948571D01*
X153342857Y-61977142D01*
X153371428Y-62034285D01*
X148350000Y-48751428D02*
X148550000Y-48465714D01*
X148692857Y-48751428D02*
X148692857Y-48151428D01*
X148464285Y-48151428D01*
X148407142Y-48180000D01*
X148378571Y-48208571D01*
X148350000Y-48265714D01*
X148350000Y-48351428D01*
X148378571Y-48408571D01*
X148407142Y-48437142D01*
X148464285Y-48465714D01*
X148692857Y-48465714D01*
X148150000Y-48151428D02*
X147750000Y-48151428D01*
X148007142Y-48751428D01*
X150135714Y-72501428D02*
X150335714Y-72215714D01*
X150478571Y-72501428D02*
X150478571Y-71901428D01*
X150250000Y-71901428D01*
X150192857Y-71930000D01*
X150164285Y-71958571D01*
X150135714Y-72015714D01*
X150135714Y-72101428D01*
X150164285Y-72158571D01*
X150192857Y-72187142D01*
X150250000Y-72215714D01*
X150478571Y-72215714D01*
X149564285Y-72501428D02*
X149907142Y-72501428D01*
X149735714Y-72501428D02*
X149735714Y-71901428D01*
X149792857Y-71987142D01*
X149850000Y-72044285D01*
X149907142Y-72072857D01*
X148992857Y-72501428D02*
X149335714Y-72501428D01*
X149164285Y-72501428D02*
X149164285Y-71901428D01*
X149221428Y-71987142D01*
X149278571Y-72044285D01*
X149335714Y-72072857D01*
X153885714Y-81771428D02*
X154085714Y-81485714D01*
X154228571Y-81771428D02*
X154228571Y-81171428D01*
X154000000Y-81171428D01*
X153942857Y-81200000D01*
X153914285Y-81228571D01*
X153885714Y-81285714D01*
X153885714Y-81371428D01*
X153914285Y-81428571D01*
X153942857Y-81457142D01*
X154000000Y-81485714D01*
X154228571Y-81485714D01*
X153314285Y-81771428D02*
X153657142Y-81771428D01*
X153485714Y-81771428D02*
X153485714Y-81171428D01*
X153542857Y-81257142D01*
X153600000Y-81314285D01*
X153657142Y-81342857D01*
X152800000Y-81371428D02*
X152800000Y-81771428D01*
X152942857Y-81142857D02*
X153085714Y-81571428D01*
X152714285Y-81571428D01*
X155300000Y-51291428D02*
X155500000Y-51005714D01*
X155642857Y-51291428D02*
X155642857Y-50691428D01*
X155414285Y-50691428D01*
X155357142Y-50720000D01*
X155328571Y-50748571D01*
X155300000Y-50805714D01*
X155300000Y-50891428D01*
X155328571Y-50948571D01*
X155357142Y-50977142D01*
X155414285Y-51005714D01*
X155642857Y-51005714D01*
X154957142Y-50948571D02*
X155014285Y-50920000D01*
X155042857Y-50891428D01*
X155071428Y-50834285D01*
X155071428Y-50805714D01*
X155042857Y-50748571D01*
X155014285Y-50720000D01*
X154957142Y-50691428D01*
X154842857Y-50691428D01*
X154785714Y-50720000D01*
X154757142Y-50748571D01*
X154728571Y-50805714D01*
X154728571Y-50834285D01*
X154757142Y-50891428D01*
X154785714Y-50920000D01*
X154842857Y-50948571D01*
X154957142Y-50948571D01*
X155014285Y-50977142D01*
X155042857Y-51005714D01*
X155071428Y-51062857D01*
X155071428Y-51177142D01*
X155042857Y-51234285D01*
X155014285Y-51262857D01*
X154957142Y-51291428D01*
X154842857Y-51291428D01*
X154785714Y-51262857D01*
X154757142Y-51234285D01*
X154728571Y-51177142D01*
X154728571Y-51062857D01*
X154757142Y-51005714D01*
X154785714Y-50977142D01*
X154842857Y-50948571D01*
X145435714Y-90001428D02*
X145635714Y-89715714D01*
X145778571Y-90001428D02*
X145778571Y-89401428D01*
X145550000Y-89401428D01*
X145492857Y-89430000D01*
X145464285Y-89458571D01*
X145435714Y-89515714D01*
X145435714Y-89601428D01*
X145464285Y-89658571D01*
X145492857Y-89687142D01*
X145550000Y-89715714D01*
X145778571Y-89715714D01*
X144864285Y-90001428D02*
X145207142Y-90001428D01*
X145035714Y-90001428D02*
X145035714Y-89401428D01*
X145092857Y-89487142D01*
X145150000Y-89544285D01*
X145207142Y-89572857D01*
X144664285Y-89401428D02*
X144292857Y-89401428D01*
X144492857Y-89630000D01*
X144407142Y-89630000D01*
X144350000Y-89658571D01*
X144321428Y-89687142D01*
X144292857Y-89744285D01*
X144292857Y-89887142D01*
X144321428Y-89944285D01*
X144350000Y-89972857D01*
X144407142Y-90001428D01*
X144578571Y-90001428D01*
X144635714Y-89972857D01*
X144664285Y-89944285D01*
X150350000Y-63751428D02*
X150550000Y-63465714D01*
X150692857Y-63751428D02*
X150692857Y-63151428D01*
X150464285Y-63151428D01*
X150407142Y-63180000D01*
X150378571Y-63208571D01*
X150350000Y-63265714D01*
X150350000Y-63351428D01*
X150378571Y-63408571D01*
X150407142Y-63437142D01*
X150464285Y-63465714D01*
X150692857Y-63465714D01*
X150064285Y-63751428D02*
X149950000Y-63751428D01*
X149892857Y-63722857D01*
X149864285Y-63694285D01*
X149807142Y-63608571D01*
X149778571Y-63494285D01*
X149778571Y-63265714D01*
X149807142Y-63208571D01*
X149835714Y-63180000D01*
X149892857Y-63151428D01*
X150007142Y-63151428D01*
X150064285Y-63180000D01*
X150092857Y-63208571D01*
X150121428Y-63265714D01*
X150121428Y-63408571D01*
X150092857Y-63465714D01*
X150064285Y-63494285D01*
X150007142Y-63522857D01*
X149892857Y-63522857D01*
X149835714Y-63494285D01*
X149807142Y-63465714D01*
X149778571Y-63408571D01*
D11*
X160502380Y-112490476D02*
X161216666Y-112490476D01*
X161359523Y-112442857D01*
X161454761Y-112347619D01*
X161502380Y-112204761D01*
X161502380Y-112109523D01*
X161502380Y-113490476D02*
X161502380Y-112919047D01*
X161502380Y-113204761D02*
X160502380Y-113204761D01*
X160645238Y-113109523D01*
X160740476Y-113014285D01*
X160788095Y-112919047D01*
X160502380Y-114109523D02*
X160502380Y-114204761D01*
X160550000Y-114300000D01*
X160597619Y-114347619D01*
X160692857Y-114395238D01*
X160883333Y-114442857D01*
X161121428Y-114442857D01*
X161311904Y-114395238D01*
X161407142Y-114347619D01*
X161454761Y-114300000D01*
X161502380Y-114204761D01*
X161502380Y-114109523D01*
X161454761Y-114014285D01*
X161407142Y-113966666D01*
X161311904Y-113919047D01*
X161121428Y-113871428D01*
X160883333Y-113871428D01*
X160692857Y-113919047D01*
X160597619Y-113966666D01*
X160550000Y-114014285D01*
X160502380Y-114109523D01*
X156833333Y-41752380D02*
X156833333Y-42466666D01*
X156880952Y-42609523D01*
X156976190Y-42704761D01*
X157119047Y-42752380D01*
X157214285Y-42752380D01*
X156309523Y-42752380D02*
X156119047Y-42752380D01*
X156023809Y-42704761D01*
X155976190Y-42657142D01*
X155880952Y-42514285D01*
X155833333Y-42323809D01*
X155833333Y-41942857D01*
X155880952Y-41847619D01*
X155928571Y-41800000D01*
X156023809Y-41752380D01*
X156214285Y-41752380D01*
X156309523Y-41800000D01*
X156357142Y-41847619D01*
X156404761Y-41942857D01*
X156404761Y-42180952D01*
X156357142Y-42276190D01*
X156309523Y-42323809D01*
X156214285Y-42371428D01*
X156023809Y-42371428D01*
X155928571Y-42323809D01*
X155880952Y-42276190D01*
X155833333Y-42180952D01*
D10*
X153885714Y-57291428D02*
X154085714Y-57005714D01*
X154228571Y-57291428D02*
X154228571Y-56691428D01*
X154000000Y-56691428D01*
X153942857Y-56720000D01*
X153914285Y-56748571D01*
X153885714Y-56805714D01*
X153885714Y-56891428D01*
X153914285Y-56948571D01*
X153942857Y-56977142D01*
X154000000Y-57005714D01*
X154228571Y-57005714D01*
X153314285Y-57291428D02*
X153657142Y-57291428D01*
X153485714Y-57291428D02*
X153485714Y-56691428D01*
X153542857Y-56777142D01*
X153600000Y-56834285D01*
X153657142Y-56862857D01*
X152942857Y-56691428D02*
X152885714Y-56691428D01*
X152828571Y-56720000D01*
X152800000Y-56748571D01*
X152771428Y-56805714D01*
X152742857Y-56920000D01*
X152742857Y-57062857D01*
X152771428Y-57177142D01*
X152800000Y-57234285D01*
X152828571Y-57262857D01*
X152885714Y-57291428D01*
X152942857Y-57291428D01*
X153000000Y-57262857D01*
X153028571Y-57234285D01*
X153057142Y-57177142D01*
X153085714Y-57062857D01*
X153085714Y-56920000D01*
X153057142Y-56805714D01*
X153028571Y-56748571D01*
X153000000Y-56720000D01*
X152942857Y-56691428D01*
X153885714Y-70041428D02*
X154085714Y-69755714D01*
X154228571Y-70041428D02*
X154228571Y-69441428D01*
X154000000Y-69441428D01*
X153942857Y-69470000D01*
X153914285Y-69498571D01*
X153885714Y-69555714D01*
X153885714Y-69641428D01*
X153914285Y-69698571D01*
X153942857Y-69727142D01*
X154000000Y-69755714D01*
X154228571Y-69755714D01*
X153314285Y-70041428D02*
X153657142Y-70041428D01*
X153485714Y-70041428D02*
X153485714Y-69441428D01*
X153542857Y-69527142D01*
X153600000Y-69584285D01*
X153657142Y-69612857D01*
X153085714Y-69498571D02*
X153057142Y-69470000D01*
X153000000Y-69441428D01*
X152857142Y-69441428D01*
X152800000Y-69470000D01*
X152771428Y-69498571D01*
X152742857Y-69555714D01*
X152742857Y-69612857D01*
X152771428Y-69698571D01*
X153114285Y-70041428D01*
X152742857Y-70041428D01*
X150200000Y-90200000D02*
X150200000Y-91800000D01*
X153400000Y-91800000D02*
X153400000Y-90200000D01*
X153400000Y-90200000D02*
X150200000Y-90200000D01*
X150200000Y-91800000D02*
X153400000Y-91800000D01*
X157150000Y-91800000D02*
X160350000Y-91800000D01*
X160350000Y-91800000D02*
X160350000Y-90200000D01*
X160350000Y-90200000D02*
X157150000Y-90200000D01*
X157150000Y-90200000D02*
X157150000Y-91800000D01*
X148150000Y-77800000D02*
X151350000Y-77800000D01*
X148150000Y-76200000D02*
X148150000Y-77800000D01*
X151350000Y-76200000D02*
X148150000Y-76200000D01*
X151350000Y-77800000D02*
X151350000Y-76200000D01*
X155350000Y-72950000D02*
X152150000Y-72950000D01*
X155350000Y-74550000D02*
X155350000Y-72950000D01*
X152150000Y-72950000D02*
X152150000Y-74550000D01*
X152150000Y-74550000D02*
X155350000Y-74550000D01*
X155100000Y-65550000D02*
X155100000Y-63950000D01*
X151900000Y-63950000D02*
X151900000Y-65550000D01*
X151900000Y-65550000D02*
X155100000Y-65550000D01*
X155100000Y-63950000D02*
X151900000Y-63950000D01*
X151900000Y-59950000D02*
X151900000Y-61550000D01*
X155100000Y-61550000D02*
X155100000Y-59950000D01*
X155100000Y-59950000D02*
X151900000Y-59950000D01*
X151900000Y-61550000D02*
X155100000Y-61550000D01*
X149850000Y-48950000D02*
X146650000Y-48950000D01*
X146650000Y-48950000D02*
X146650000Y-50550000D01*
X146650000Y-50550000D02*
X149850000Y-50550000D01*
X149850000Y-50550000D02*
X149850000Y-48950000D01*
X148150000Y-74300000D02*
X151350000Y-74300000D01*
X151350000Y-74300000D02*
X151350000Y-72700000D01*
X148150000Y-72700000D02*
X148150000Y-74300000D01*
X151350000Y-72700000D02*
X148150000Y-72700000D01*
X154300000Y-80850000D02*
X154300000Y-77650000D01*
X152700000Y-77650000D02*
X152700000Y-80850000D01*
X152700000Y-80850000D02*
X154300000Y-80850000D01*
X154300000Y-77650000D02*
X152700000Y-77650000D01*
X156800000Y-48950000D02*
X153600000Y-48950000D01*
X153600000Y-48950000D02*
X153600000Y-50550000D01*
X153600000Y-50550000D02*
X156800000Y-50550000D01*
X156800000Y-50550000D02*
X156800000Y-48950000D01*
X146650000Y-90200000D02*
X143450000Y-90200000D01*
X146650000Y-91800000D02*
X146650000Y-90200000D01*
X143450000Y-91800000D02*
X146650000Y-91800000D01*
X143450000Y-90200000D02*
X143450000Y-91800000D01*
X151850000Y-65550000D02*
X151850000Y-63950000D01*
X148650000Y-65550000D02*
X151850000Y-65550000D01*
X151850000Y-63950000D02*
X148650000Y-63950000D01*
X148650000Y-63950000D02*
X148650000Y-65550000D01*
D12*
X157010000Y-111970000D02*
X144250000Y-111970000D01*
X159610000Y-111970000D02*
X158280000Y-111970000D01*
X157010000Y-114630000D02*
X144250000Y-114630000D01*
X144250000Y-114630000D02*
X144250000Y-111970000D01*
X159610000Y-113300000D02*
X159610000Y-111970000D01*
X157010000Y-114630000D02*
X157010000Y-111970000D01*
X160080000Y-43520000D02*
X157420000Y-43520000D01*
X160080000Y-51200000D02*
X157420000Y-51200000D01*
X157420000Y-43520000D02*
X157420000Y-51200000D01*
X158750000Y-40920000D02*
X157420000Y-40920000D01*
X157420000Y-40920000D02*
X157420000Y-42250000D01*
X160080000Y-43520000D02*
X160080000Y-51200000D01*
D10*
X151900000Y-56550000D02*
X155100000Y-56550000D01*
X155100000Y-54950000D02*
X151900000Y-54950000D01*
X155100000Y-56550000D02*
X155100000Y-54950000D01*
X151900000Y-54950000D02*
X151900000Y-56550000D01*
X151900000Y-69300000D02*
X155100000Y-69300000D01*
X155100000Y-67700000D02*
X151900000Y-67700000D01*
X155100000Y-69300000D02*
X155100000Y-67700000D01*
X151900000Y-67700000D02*
X151900000Y-69300000D01*
M02*
