M48
; DRILL file {KiCad (6.0.0)} date Fri Jan 28 00:57:35 2022
; FORMAT={-:-/ absolute / metric / decimal}
; #@! TF.CreationDate,2022-01-28T00:57:35+09:00
; #@! TF.GenerationSoftware,Kicad,Pcbnew,(6.0.0)
; #@! TF.FileFunction,MixedPlating,1,2
FMAT,2
METRIC
; #@! TA.AperFunction,Plated,PTH,ViaDrill
T1C0.381
; #@! TA.AperFunction,Plated,PTH,ComponentDrill
T2C1.000
; #@! TA.AperFunction,Plated,PTH,ComponentDrill
T3C1.016
; #@! TA.AperFunction,Plated,PTH,ComponentDrill
T4C1.100
; #@! TA.AperFunction,NonPlated,NPTH,ComponentDrill
T5C3.000
%
G90
G05
T1
X152.5Y-71.25
T2
X145.58Y-113.3
X148.12Y-113.3
X149.25Y-107.5
X149.25Y-110.0
X150.66Y-113.3
X151.75Y-107.5
X151.75Y-110.0
X153.2Y-113.3
X154.25Y-107.5
X154.25Y-110.0
X155.74Y-113.3
X158.28Y-113.3
X158.75Y-42.25
X158.75Y-44.79
X158.75Y-47.33
X158.75Y-49.87
T3
X147.0Y-52.34
X147.0Y-54.88
X147.0Y-62.5
X147.0Y-65.34
X147.0Y-67.88
X147.0Y-75.5
X147.0Y-78.34
X147.0Y-80.88
X147.0Y-88.5
X151.75Y-42.25
X151.75Y-49.87
X151.75Y-52.41
X156.5Y-52.34
X156.5Y-54.88
X156.5Y-62.5
X156.5Y-65.34
X156.5Y-67.88
X156.5Y-75.5
X156.5Y-78.34
X156.5Y-80.88
X156.5Y-88.5
T5
X147.0Y-58.055
X147.0Y-71.055
X147.0Y-84.055
X151.75Y-46.695
X156.5Y-58.055
X156.5Y-71.055
X156.5Y-84.055
T4
G00X147.0Y-100.35
M15
G01X147.0Y-99.65
M16
G05
G00X156.5Y-100.35
M15
G01X156.5Y-99.65
M16
G05
T0
M30
