G04 #@! TF.GenerationSoftware,KiCad,Pcbnew,(6.0.0)*
G04 #@! TF.CreationDate,2022-01-28T00:57:34+09:00*
G04 #@! TF.ProjectId,exits board B,65786974-7320-4626-9f61-726420422e6b,2.1*
G04 #@! TF.SameCoordinates,Original*
G04 #@! TF.FileFunction,Legend,Top*
G04 #@! TF.FilePolarity,Positive*
%FSLAX46Y46*%
G04 Gerber Fmt 4.6, Leading zero omitted, Abs format (unit mm)*
G04 Created by KiCad (PCBNEW (6.0.0)) date 2022-01-28 00:57:34*
%MOMM*%
%LPD*%
G01*
G04 APERTURE LIST*
%ADD10C,0.150000*%
%ADD11C,0.120000*%
G04 APERTURE END LIST*
D10*
X156166666Y-75252380D02*
X156166666Y-75966666D01*
X156119047Y-76109523D01*
X156023809Y-76204761D01*
X155880952Y-76252380D01*
X155785714Y-76252380D01*
X157166666Y-76252380D02*
X156595238Y-76252380D01*
X156880952Y-76252380D02*
X156880952Y-75252380D01*
X156785714Y-75395238D01*
X156690476Y-75490476D01*
X156595238Y-75538095D01*
X156250000Y-51195000D02*
X147250000Y-51195000D01*
X147250000Y-40695000D02*
X156250000Y-40695000D01*
X156250000Y-40695000D02*
X156250000Y-51195000D01*
X147250000Y-51195000D02*
X147250000Y-40695000D01*
X154750000Y-46695000D02*
G75*
G03*
X154750000Y-46695000I-3000000J0D01*
G01*
X152000000Y-66555000D02*
X161000000Y-66555000D01*
X161000000Y-77055000D02*
X152000000Y-77055000D01*
X152000000Y-77055000D02*
X152000000Y-66555000D01*
X161000000Y-66555000D02*
X161000000Y-77055000D01*
X159500000Y-71055000D02*
G75*
G03*
X159500000Y-71055000I-3000000J0D01*
G01*
X161000000Y-53555000D02*
X161000000Y-64055000D01*
X161000000Y-64055000D02*
X152000000Y-64055000D01*
X152000000Y-53555000D02*
X161000000Y-53555000D01*
X152000000Y-64055000D02*
X152000000Y-53555000D01*
X159500000Y-58055000D02*
G75*
G03*
X159500000Y-58055000I-3000000J0D01*
G01*
X142500000Y-53555000D02*
X151500000Y-53555000D01*
X142500000Y-64055000D02*
X142500000Y-53555000D01*
X151500000Y-53555000D02*
X151500000Y-64055000D01*
X151500000Y-64055000D02*
X142500000Y-64055000D01*
X150000000Y-58055000D02*
G75*
G03*
X150000000Y-58055000I-3000000J0D01*
G01*
X142500000Y-77055000D02*
X142500000Y-66555000D01*
X142500000Y-66555000D02*
X151500000Y-66555000D01*
X151500000Y-66555000D02*
X151500000Y-77055000D01*
X151500000Y-77055000D02*
X142500000Y-77055000D01*
X150000000Y-71055000D02*
G75*
G03*
X150000000Y-71055000I-3000000J0D01*
G01*
X151500000Y-79555000D02*
X151500000Y-90055000D01*
X142500000Y-90055000D02*
X142500000Y-79555000D01*
X151500000Y-90055000D02*
X142500000Y-90055000D01*
X142500000Y-79555000D02*
X151500000Y-79555000D01*
X150000000Y-84055000D02*
G75*
G03*
X150000000Y-84055000I-3000000J0D01*
G01*
X161000000Y-79555000D02*
X161000000Y-90055000D01*
X161000000Y-90055000D02*
X152000000Y-90055000D01*
X152000000Y-90055000D02*
X152000000Y-79555000D01*
X152000000Y-79555000D02*
X161000000Y-79555000D01*
X159500000Y-84055000D02*
G75*
G03*
X159500000Y-84055000I-3000000J0D01*
G01*
D11*
X150960000Y-106620000D02*
X150430000Y-106620000D01*
X156620000Y-106620000D02*
X156620000Y-101900000D01*
X146880000Y-98090000D02*
X146880000Y-95030000D01*
X153410000Y-106620000D02*
X152580000Y-106620000D01*
X146880000Y-106620000D02*
X146880000Y-101900000D01*
X156620000Y-98090000D02*
X156620000Y-95030000D01*
X156620000Y-95030000D02*
X146880000Y-95030000D01*
X156620000Y-106620000D02*
X155130000Y-106620000D01*
X148060000Y-106620000D02*
X146880000Y-106620000D01*
M02*
